<svg xmlns="http://www.w3.org/2000/svg" xmlns:xlink="http://www.w3.org/1999/xlink" viewBox="0 0 600 600"><ellipse fill="#D1D1D1" cx="299.8" cy="550.1" rx="118.8" ry="15.8"/><linearGradient id="a" gradientUnits="userSpaceOnUse" x1="299.828" y1="409.452" x2="299.828" y2="521"><stop offset="0" stop-color="#d8ab6f"/><stop offset="1" stop-color="#af7c3f"/></linearGradient><path fill="url(#a)" d="M395.8 546.4c-63.9 20.4-128.1 20.4-192 0-29.7-43.6-29.7-86.4 0-130 63.9-20.5 128.1-20.5 192 0 29.7 43.5 29.7 86.4 0 130z"/><path opacity=".25" fill="#FFF" d="M299.8 436.1c39.2 0 74.2-6.1 97-15.5-.3-.5-.6-.9-1-1.4-63.9-20.4-128.1-20.5-192 0-.3.5-.6.9-1 1.4 22.8 9.4 57.8 15.5 97 15.5z"/><linearGradient id="b" gradientUnits="userSpaceOnUse" x1="299.827" y1="511.877" x2="299.827" y2="426.979"><stop offset="0" stop-color="#d8ab6f"/><stop offset="1" stop-color="#af7c3f"/></linearGradient><path fill="url(#b)" d="M299.8 433.3c39.2 0 74.2-6.1 97-15.5-.3-.5-.6-.9-1-1.4-63.9-20.5-128.1-20.5-192 0-.3.5-.6.9-1 1.4 22.8 9.4 57.8 15.5 97 15.5z"/><path opacity=".2" fill="#FFF" d="M318.4 435.3h-37.2l4.2-19.6h28.9z"/><linearGradient id="c" gradientUnits="userSpaceOnUse" x1="299.827" y1="448.036" x2="299.827" y2="416.188"><stop offset="0" stop-color="#d8ab6f" stop-opacity="0"/><stop offset="1" stop-color="#af7c3f"/></linearGradient><path fill="url(#c)" d="M299.8 425.6c41.3 0 77.3-3.7 96-9.2-63.9-20.5-128.1-20.5-192 0 18.7 5.5 54.7 9.2 96 9.2z"/><linearGradient id="d" gradientUnits="userSpaceOnUse" x1="299.828" y1="441.309" x2="299.828" y2="414.018"><stop offset="0" stop-color="#d8ab6f" stop-opacity="0"/><stop offset="1" stop-color="#af7c3f"/></linearGradient><path fill="url(#d)" d="M204.1 416.3c23.7 3.6 57.8 5.8 95.8 5.8 37.9 0 72-2.2 95.8-5.8-63.9-20.4-127.9-20.4-191.6 0z"/><path fill="#DD002A" d="M389 328.1l18.4 72.8h-18.7z"/><path fill="#930023" d="M389 328.1l18.4 72.8h-18.7z"/><g fill="#050505"><path d="M303.7 306.9L420 397.1s1.3 3.5-.5 5H303.7v-95.2z"/><path d="M420 397.1l11.8-18.1h2.5v23.4l-14.9-.3c.1.1-2.7-2.4.6-5z"/></g><path fill="#191919" d="M303.7 318.2v84h108.2z"/><g fill="#050505"><path d="M303.7 321L420 411.2s1.3 3.5-.5 5H303.7V321z"/><path d="M420 411.2l11.8-18.1h2.5v23.4l-14.9-.3c.1 0-2.7-2.5.6-5z"/></g><path fill="#050505" d="M290.4 231.3h-83c-2.6 1.1 7.4 1.8 5 3.1-10.7 4.4-8.3 18.7-8.3 58.6v123.5h192.2S418 264.2 290.4 231.3z"/><path fill="#DD002A" d="M396.3 416.5s6.5-45.4-8.4-91.9l-6.3 1.9c13.4 33 8.2 82.6 8.2 82.6H210.1v-81.7l-6.1.5v88.5h192.3z"/><g fill="#DD002A"><path d="M389 328.1c-.4-1.4-.9-2.8-1.3-4.2H204.1v4.2H389zM381.9 308.4c-.6-1.4-1.2-2.8-1.9-4.2H204.1v4.2h177.8z"/></g><path fill="#FFB000" d="M378.3 323.1l-1.5-.1c-.6 0-1.2-.5-1.2-1.2V311c0-.7.5-1.2 1.2-1.2h7.6v-1.3c0-3.5-2.9-6.4-6.4-6.4h-4.1c-3.5 0-6.4 2.9-6.4 6.4v15.9c0 3.5 2.9 6.4 6.4 6.4h8.3c3.5 0 6.4-2.9 6.4-6.4v-1.2h-10.3z"/><path fill="#F4CF8C" d="M312.6 153.4s4.9-21.7-12.4-24.9l.7-12.9h-104l.7 12.5h-.6c-9.8 0-17.8 7.9-17.8 17.8 0 9.8 7.9 17.8 17.8 17.8.9 0 1.7-.1 2.5-.2l3.5 64.7s10.7 16.1 45.2 16.1c29 0 46.7-16.1 46.7-16.1l.3-4.8c14-6.2 3-25.7 1.5-28.1l.2-4.2c6.1-5.5.5-9.1.5-9.1l1.2-21.4 14-7.2z"/><path fill="#050505" d="M295.8 161.1c-9.4 0-17.1 4.6-17.1 10.2s7.6 10.2 17.1 10.2h1.5l1.1-20.3c-.8-.1-1.7-.1-2.6-.1z"/><path fill="#DD002A" d="M295.8 175.9c-4.4 0-8.3 1.5-10.3 3.6 2.9 1.3 6.4 2.6 10.3 2.6.5 0 1 0 1.5-.1l.3-6.1h-1.8z"/><path fill="#FFF" d="M298.5 161.2c-.9-.1-1.7-.1-2.6-.1-9.4 0-17.1 4.6-17.1 10.2 0 .3 0 .6.1.9h19l.6-11z"/><path fill="#C98C28" d="M296.8 191.2c-3.5 0-6.7-.6-9.4-1.7 2.1 2.8 5.5 4.6 9.3 4.6l.1-2.9zM294.6 218.7c-5.9 0-11.4-1.1-16-2.9 3.7 4.8 9.5 7.9 16 7.9h.5v-.2c2.8-1.3 4.6-3.1 5.7-5.2-2 .2-4.1.4-6.2.4z"/><path fill="#CEA063" d="M197 128.2c-5.3 0-10.1 2.3-13.3 6h126.2c-2-2.7-5-4.8-9.5-5.6l.7-12.9H196.9l.7 12.5h-.6z"/><path fill="#050505" d="M301.2 115.7l9.1-52.8s-13.8-27-61.1-27c-57.5 0-61.7 27-61.7 27l9.1 52.8h104.6z"/><path fill="#DD002A" d="M192.7 93.1l3.9 22.6h104.6l3.9-22.6z"/><path fill="#050505" d="M317 128.4H180.9l-4.2-12.7h144.5z"/><path fill="#DD002A" d="M248.2 244.3c-34.5 0-45.2-16.1-45.2-16.1l1.2 22.8s10.4 15.6 44 15.6c28.2 0 45.4-15.6 45.4-15.6l1.2-22.8s-17.6 16.1-46.6 16.1z"/><path fill="#4F1907" d="M298.5 160.3s-10.4-12.4-34.8-6.3c-24.4 6.1-36.9 36.4-36.9 36.4s13.3 9.9 34.1 7.2 37.8-24.9 37.6-37.3z"/><path fill="#B27D30" d="M290.4 139.4s1.6-2.6 3-5.5l-3.9-6.3.5 2.8c-15.7-4.3-26.1 8.5-26.1 8.5 14.4-7.7 23.7-7.2 23.7-7.2l2.6 3.3c-5 10.1-16.8 10.9-16.8 10.9 12.4 1.2 17-6.5 17-6.5z"/><defs><path id="e" d="M301.2 115.7l9.1-52.8s-13.8-27-61.1-27c-57.5 0-61.7 27-61.7 27l9.1 52.8h104.6z"/></defs><clipPath id="f"><use xlink:href="#e" overflow="visible"/></clipPath><g clip-path="url(#f)"><circle fill="#050505" cx="303.8" cy="100.3" r="16.8"/><path fill="#DD002A" d="M303.8 115.1c-8.1 0-14.8-6.6-14.8-14.8 0-8.1 6.6-14.8 14.8-14.8 8.1 0 14.8 6.6 14.8 14.8-.1 8.2-6.7 14.8-14.8 14.8zm0-27.6c-7.1 0-12.8 5.8-12.8 12.8 0 7.1 5.8 12.8 12.8 12.8 7.1 0 12.8-5.8 12.8-12.8 0-7-5.8-12.8-12.8-12.8z"/><path fill="#DD002A" d="M303.8 111c-5.9 0-10.7-4.8-10.7-10.7 0-5.9 4.8-10.7 10.7-10.7 5.9 0 10.7 4.8 10.7 10.7-.1 5.9-4.9 10.7-10.7 10.7zm0-19.9c-5.1 0-9.3 4.2-9.3 9.3 0 5.1 4.2 9.3 9.3 9.3s9.3-4.2 9.3-9.3c-.1-5.2-4.2-9.3-9.3-9.3z"/><path fill="#DD002A" d="M306.4 96.6l4.9-3.5-3.7 4.7 5.8-1.5-5.2 3.1 6 .6-5.9 1.1 5.3 2.7-5.9-1.2 4 4.5-5.1-3.2 2.1 5.6-3.6-4.8-.1 6-1.5-5.8-2.3 5.5.6-5.9-4.1 4.3 2.8-5.3-5.5 2.6 4.5-4-5.9.4 5.6-2-5.7-1.8 5.9.1-4.7-3.7 5.6 2.2-3.1-5.1 4.4 4.1-1-5.9 2.6 5.4 1.2-5.9.5 6 3.3-5z"/><path fill="#050505" d="M306.9 100.3c0 1.8-1.4 3.2-3.2 3.2-1.8 0-3.2-1.4-3.2-3.2 0-1.8 1.4-3.2 3.2-3.2 1.8 0 3.2 1.5 3.2 3.2z"/></g><circle fill="#F4CF8C" cx="187.8" cy="145.9" r="8.6"/><g><path fill="#D8AF6F" d="M187.8 137.3c-.3 0-.7 0-1 .1 3.3.5 5.9 4.1 5.9 8.5s-2.6 8-5.9 8.5c.3 0 .7.1 1 .1 4.7 0 8.6-3.8 8.6-8.6 0-4.7-3.9-8.6-8.6-8.6z"/><path fill="#F4CF8C" d="M186.8 137.4c-.3 0-.5-.1-.8-.1-3.7 0-6.7 3.8-6.7 8.6-.1-4.4 3.2-8 7.5-8.5zM179.2 145.9c0 4.7 3 8.6 6.7 8.6.3 0 .5 0 .8-.1-4.2-.5-7.5-4.1-7.5-8.5z"/></g><linearGradient id="g" gradientUnits="userSpaceOnUse" x1="299.828" y1="670.249" x2="299.828" y2="513.585"><stop offset="0" stop-color="#d8ab6f" stop-opacity="0"/><stop offset="1" stop-color="#af7c3f"/></linearGradient><path fill="url(#g)" d="M299.8 559.8c.9-16.1 1.4-37.3 1.4-60.5 0-23.2-.5-44.3-1.4-60.5-.9 16.1-1.4 37.3-1.4 60.5 0 23.2.6 44.4 1.4 60.5z"/><linearGradient id="h" gradientUnits="userSpaceOnUse" x1="300.462" y1="629.896" x2="300.462" y2="510.228"><stop offset="0" stop-color="#d8ab6f" stop-opacity="0"/><stop offset="1" stop-color="#af7c3f"/></linearGradient><path fill="url(#h)" d="M299.7 499.4c0 16.9.3 32.6.8 46.2.5-13.6.8-29.3.8-46.2 0-16.9-.3-32.6-.8-46.2-.5 13.5-.8 29.3-.8 46.2z"/><path opacity=".2" fill="#FFF" d="M281.2 561.1c12.4.8 24.8.8 37.2 0V435.5h-37.2v125.6z"/><path opacity=".5" fill="#DD002A" d="M382.1 482.6l-18.8-18.7-18.7 18.7H356v22.2h14.6v-22.2z"/><path fill="#050505" d="M277.7 262.8s-16.8 89.8-11.9 154.3c0 0-9.8 8.4-22.4 0 0 0-23.9-70.9-33.7-138.9 0 .1 47.7 2.2 68-15.4z"/><g fill="#DD002A"><path d="M229.3 363.2l-1.6.8c.3 1.3.7 2.5 1 3.8 20.1-5.7 32.1-.7 32.1-.7s2.2 1 4.6 2.4c.1-2 .2-3.9.3-5.9-.9-.3-1.8-.5-2.7-.8-20.5-5.1-33.7.4-33.7.4zM230.9 375.7c.4 1.6.9 3.2 1.3 4.7 17.6-5.1 30.6-.5 32.9-.2 0-1.8.1-3.7.2-5.6-.7-.1-1.4-.2-2.2-.4-18.7-3.2-29.7.5-32.2 1.5zM264.9 391.8c-9.9 4.4-24.2 2.7-28.8 2 4.3 14.5 7.3 23.3 7.3 23.3 12.6 8.4 22.4 0 22.4 0-.6-8.1-.9-16.6-.9-25.3z"/></g><path opacity=".2" fill="#FFF" d="M271.9 273c-13 67.2-10.2 134.7-9.5 146.3 2.2-1 3.5-2.1 3.5-2.1-4.9-64.5 11.9-154.3 11.9-154.3-1.8 1.4-5.6 8.5-5.9 10.1z"/><linearGradient id="i" gradientUnits="userSpaceOnUse" x1="260.039" y1="488.969" x2="260.039" y2="438.062"><stop offset="0" stop-color="#d8ab6f" stop-opacity="0"/><stop offset="1" stop-color="#af7c3f"/></linearGradient><path fill="url(#i)" d="M244.1 417.9s-14 1.6-17.1 7c-3 5.4-4.7 29.2 1.2 31.6 5.8 2.3 12.6-4.4 12.6-14l1.9.2s0 20.1 2.8 23.6c3 3.8 14 5.6 14.7-6.3.7-11.9.2-17.5.2-17.5l2.8-.2s-2.1 22.2 7.5 22.2 12.4-11.9 10.8-29.2c0 0 13.1-1.2 14.3-5.8 1.2-4.7-6.8-12.6-28-10.7-.1-.1-11.8 8.2-23.7-.9z"/><path fill="#F4CF8C" d="M242.7 415.8s-14 1.6-17.1 7c-3 5.4-4.7 29.2 1.2 31.6 5.8 2.3 12.6-4.4 12.6-14l1.9.2s0 20.1 2.8 23.6c3 3.8 14 5.6 14.7-6.3.7-11.9.2-17.5.2-17.5l2.8-.2s-2.1 22.2 7.5 22.2 12.4-11.9 10.8-29.2c0 0 13.1-1.2 14.3-5.8 1.2-4.7-6.8-12.6-28-10.7-.1-.1-11.8 8.2-23.7-.9z"/><path fill="#F4CF8C" d="M278.1 426.6c-10.1 7.9-19.2.5-19.2.5-11.1 6.4-18.4-1.1-18.4-1.1-7.5 3.3-13.1-1.1-15.1-3.1-3 5.7-4.5 29.1 1.3 31.4 5.8 2.3 12.6-4.4 12.6-14l1.9.2s0 20.1 2.8 23.6c3 3.8 14 5.6 14.7-6.3.7-11.9.2-17.5.2-17.5l2.8-.2s-2.1 22.2 7.5 22.2 12.4-11.9 10.8-29.2c0 0 13.1-1.2 14.3-5.8.2-.8.1-1.8-.3-2.8-6 2.2-15.9 2.1-15.9 2.1z"/><g fill="#E5BC7A"><path d="M241.2 440.6l-.4-14.2-.3-.3c-.4.2-.9.4-1.3.5l-1.4 13.6c-1.9 11.6-9.8 11.2-13.9 10.2.6 2.1 1.5 3.5 2.8 4 5.8 2.3 12.6-4.4 12.6-14l1.9.2zM244.1 464.2c3 3.8 14 5.6 14.7-6.3.7-11.9.2-17.5.2-17.5l2.8-.2c-.1-6.8-1-10.4-1.8-12.1-.7-.4-1.2-.8-1.2-.8-.7.4-1.3.7-1.9 1 .4 12.4.6 35.9-5.6 36-3.1.1-5.2-.4-8.7-3.7.5 1.6.9 2.9 1.5 3.6z"/></g><path fill="#E5BC7A" d="M276.1 455.1c-3.3 5.1-9.6 3.6-12.7 2.5 1.1 2.8 3 4.8 5.8 4.8 9.6 0 12.4-11.9 10.8-29.2 0 0 12.2-1.1 14.1-5.4-12.1 5.1-16-1.1-16-1.1s2.4 21.5-2 28.4z"/></svg>