<svg xmlns="http://www.w3.org/2000/svg" xmlns:xlink="http://www.w3.org/1999/xlink" viewBox="0 0 250 250"><ellipse fill="#D1D1D1" cx="125" cy="208.5" rx="44.7" ry="3.7"/><g fill="#050505"><path d="M135.5 154.7l-37.6 48.5s-1.5.5-2.1-.2v-48.2h39.7z"/><path d="M97.9 203.1l7.5 4.9v1h-9.8l.1-6.2c.1.1 1.1-1.1 2.2.3z"/></g><path fill="#191919" d="M130.7 154.7h-35v45.1l35-45.1z"/><path fill="#C98C28" d="M153.5 125s-6.1-2.5-6.3-.5c0 0-1.9 4.2-.2 6.2"/><linearGradient id="a" gradientUnits="userSpaceOnUse" x1="361.127" y1="3.573" x2="392.006" y2="-7.917" gradientTransform="matrix(.4167 0 0 -.4167 0 104.167)"><stop offset="0" stop-color="#225db2"/><stop offset="1" stop-color="#06448e"/></linearGradient><path fill="url(#a)" d="M171.7 119.9s1.5-24.2 17.8-42.2c0 0 5.4-6-4.8-5.4-10.2.6-32.5 10.2-46 3.8 0 0 15 47.1 9 70 0 0 12.1 3.5 20.4-.4v2.7l5.4-4.6c-.1 0-2-10.6-1.8-23.9z"/><g opacity=".85" fill="#FFF"><path d="M147.5 82.8c-.4 0-.7-.2-.5-.2-.8-.1-.7-.2-.9 0-.5 0-1-.3-.4-.2 0 0-.3-.1-.7-.1l-.5-.1h-.2l.4.2c.2.1.4.1.4.1-.2.1-1.3-.5-1.6-.4l.8.2c.2 0 .4.1.5.2h.2-.1c.4 0 1 .3 1.2.3h-.3c.9.2 1.1.2 1.2.1.1 0 .2-.1.9 0-.1 0-.2 0-.4-.1zm1.5.5l.7-.1h1s.8-.1.3-.1h-.5c.1 0 .4 0 .8-.1.3 0 .5 0 .4-.1-.9 0-1 0-1.5.1-.8 0-1.4-.1-1.7-.2h-.6.2v.2h0-.7c.2.1.6.2 1 .2s.9.1 1.1.1c-.4.1.7.2-.5 0zm-1.1-.4zm20.6 47.8h-.5H169.2s0-.1.1-.1l.2-.2.3-.4.3-1.2s-.1.3-.2.5-.1.2 0-.1c0 .1-.1.4-.2.7-.1.2-.2.5-.2.5v-.1-.1c0 .1-.1.2-.2.3 0 0 0 .1-.1.1h-.1c-.2-.1-.4-.2-.1-.1h-2 .5c.2 0 .3 0 .7.1 0 .1.2.1.3.1zm-24.3-45l.1.4-.1-.4zm22.3 44.9l-.6.1c.3 0 .5 0 .6-.1zm2.1-1.9s0-.1 0 0zm-15.8 2c-.1 0-.1 0-.2-.1.1.1.1.1.2.1zm17.3-9.9l-.2 1.3c0-.2-.2.5-.1.2 0 .1-.1.6-.1.5l.1-.2c0 .7.1.3-.1 1.5.2-.7.3-1 .3-1.4 0-.1 0-.2.1-.3l.1-1.1-.1-.5zm-21.8-16.9s.1.3 0 0zm18.5 26.6s-.1 0-.2.1h.4c-.1 0-.2 0-.2-.1z"/><path d="M167.8 130.4c.1 0 .2 0 .4.1.3 0 .6 0 .8.1h.2v-.1.1h-.1c-.3-.1-.5-.1-.9-.1-.2-.1-.3-.1-.4-.1zm-13.3 1.1c-2.4-.9.6 0-.5-.4-.3-.1-.5-.2-.8-.2-.2 0-.4-.1-.6-.2.9.4.8.4.7.5-.1 0-.2.1.8.4-.2 0-.5-.1-.9-.2-.4-.2-.8-.4-1.1-.5-.6-.5.7.2.9.2-.8-.3-.6-.3-1-.3-.5-.3-1.1-.7-1.6-1l-.4-.2c-.2-.1-.4-.3-.5-.5-.3-.3-.6-.5-.5-.9 0-.4 0-.7-.1-.9v-.2-.1c0-.2-.1-.3-.1-.5-.1 0-.1.2-.1.6v1.6s0 .1.1.1c0 0-.1-.1-.1-.2v-.1c-.1 0 .2.3.5.5.1.1.2.2.4.3l.2.2c-.5-.5-.4-.5-.2-.3.1.1.3.2.5.3.1.1.2.2.3.2.2.2.8.5.7.5l-.4-.2c.5.4 1.1.6 1.7 1h-.2c.7.2 1.3.5 2.3.8l-.6-.1c.4.1 1.1.2 1.8.4s1.5.3 2.2.4c-.2 0-.4 0-.2-.1.8 0 1.4.1 1 .2.2 0 .5-.1.8-.1h.5c.2 0 .4-.1.5-.1.2 0 .4-.1.6-.1h.4c.3-.1.5-.2.8-.2 0 0 .2-.1.6-.2.3-.1.8-.3 1.3-.5 1-.3 1.9-.5 1.9-.5h-.5c-.2-.1-.3-.1-.3-.1s.1-.1.4-.1c-.3 0-.4.1-.5.1-.1 0-.3.1-.8.1.4-.1.5-.2-.5-.2-1.1.2-2 .5-2.9.9-1 .3-2 .7-3.2.7 0 0-.5-.1-1.2-.2-.6-.1-1.3-.2-1.7-.4.2 0 .5 0 .8.1s.6.1 1 .1c-.4-.1-1.2-.2-1.7-.4h-.5z"/><path d="M160.5 131.5h-.2c0 .1.1 0 .2 0zm-3.7.4c0-.1 0-.1 0 0h-.2c0-.1.1-.1.2 0zm9.4-1.6h.4-.4c0-.1 0 0 0 0zm.5.2c-.1 0 0 0 0 0zm-16.7-6.3v-.2.2z"/><path d="M152 130.2c.4.2.4.2.5.2.1 0 .2 0 .7.3l-.3-.2c.2.1.5.2.7.3.2.1.5.2.8.3.3.1.6.2.9.2s.6.1.8.2c-.1 0 .1.1.2.1.2 0 .3.1.2.1.7.1 1.5 0 1.8 0 .5 0 1.1-.1 1.7-.2-.2 0 .7-.3-.6 0h.1c-.9 0-1.2.2-2 .2-.5 0 .7-.1.3-.1-.5 0-1.2 0-1.8-.1-.3 0-.6-.1-.7-.1h-.3c-.7-.2-.8-.2-.9-.4-.5-.1-1.5-.5-2.2-1-.8-.5-1.3-.9-1.4-.8.3.2.9.6 1.4.8l.1.2zm12.9.1h-.2.2zm6.9-5.2l.1.4c-.2.9-.4 1.6-.6 2.2-.1.3-.2.6-.2.9-.1.5-.2.9-.4 1.5-.1.2 0-.2 0-.3-.1.3-.2.6-.2 1-.2.1-.4.2-.5.3l-.3.2s-.1 0-.1.1h-.1c-.3.1-.7.2-1.2.4-.2-.1-.5-.1-.7-.2h-.2-.8c-.3 0-1.2-.1-.9-.2h-.5c0-.1.4 0 .5-.1h-.2c.2 0-.2-.2.9-.2.5.2-.8 0-.5.2.4 0 .3 0 .4-.1.5 0 .5.1.5.1.2 0 .7.1 1.3.2.1 0 .2 0 .2.1.3-.1.4-.1.5-.1-.1 0-.2.1.2 0l.4-.2h.2s.1 0 .1-.1l.2-.2.5-.3v-.2c.2-.7.2-1 .2-1.2 0-.2 0-.1-.1-.1s-.2 0 0-1c0 .2.4-.5.6-1.3-.1.5-.3 1.5-.5 2.2l.1-.2v.2c0 .1 0 .2-.1.3-.2.7-.4 1.4-.2 1 0-.2.1-.5.2-.7 0-.2.1-.5.2-.7.1-.3.2-.7.3-1v.2c.2-.6.1-1.2.5-2 .1-.5.1-.3.2-.2v-.9zm-.2 1l-.2.6c.1-.2.2-.4.2-.6zM157.8 83h-.2.2zm17.8 19.9l.1-.3c-.1.1-.1.2-.1.3zM177 95l.1-.5c0 .2 0 .4-.1.5zm-15-12.8c.1 0 .1 0 0 0zm19.8-2.6s.1-.1.1-.2l-.1.2zM177 95.1zm-2.8 11.1v0zm.6-.4v.2-.2zm-3.5 11.8l-.1.5c0-.3.1-.4.1-.5zm3-10.6c.1 0 .1 0 0 0zm-19.6-24.2zm-1.2.3h-.4.4zm27.1-6.4h-.3c-.2.1-.2.2.3 0zm-23.7 4.7c-.1 0-.2 0-.2.1.1 0 .3 0 .2-.1zm-.3.1c-.1 0-.2 0-.2.1.1 0 .1-.1.2-.1zm27.3-5.5v.2c.1 0 .1-.1 0-.2zM152.8 83.1c-.1 0-1.9.2-.4.2 0 .1-1 .1-1.4.1.3 0-.2.1 0 .1h.8c.2 0-.4.1-.8.1.5.1-.7.1.1.2 1.5 0 2.6-.1 3.7-.4-.4 0-.9.1-1.3.1h-1.2l.3-.1c.8.1 1.3 0 2.1-.1l-1.9-.2c-.9 0-.3 0 .3-.1-.1.1-.3.1-.3.1zm1.1-1zm20.6 32.4zm-2.1-1.6c-.1.1 0 .1 0 0zm6.3-15.9l-.1.1c0 .1.1 0 .1-.1zm-1.1 3.4zm3.9-23.4h.2-.2zm-2 14.6v.1-.1z"/><path d="M180.1 89.8v.2c.1-.7.5-1.8.4-2 0 .2-.4 1.3-.5 1.1-.1.5-.3 1.1-.4 1.3.2-.7.1 0 0 .5-.2.5-.1-.1-.2.3l-.2 1 .2-.9v.3-.1c.5-1.5.4-.1.7-1.7zm0 .2v0zm1.9-6.2v-.3.3zm-12.5 46s.1-.2.2-.5c0-.1.1-.2.1-.4v-.1l-.2.9-.1.1zm4.4-51.6l.3-.1s-.2.1-.3.1zm6.2 10.6v0zM173.8 78h-.4c-.2.1-.4.2-.7.3.3-.1.7-.2 1.1-.3z"/><path d="M169.3 130.2c0 .1 0 .2-.1.2v-.1c0 .1-.1.3-.2.2-.1 0-.1 0-.2-.1h-.2.1-2.3c-.5 0-1 0-1.4.1.3 0 .8 0 .6-.1-.7 0-1-.2-2.2.1h.6l-.8.2c-.2 0-.4.1-.5.2l-.2.1c-.3 0-.1 0 .2-.1.3-.1.7-.1.8-.2-1.2.3-2.2.3-2.8.5-.1-.1-.3-.2-1.1 0 .6 0-.5.2 0 .2-.3.1-.9 0-1 .1h.1c-1.4-.1-1.9 0-2.5 0-.4-.1-.8-.1-1.1-.2-.2 0-.3-.1-.5-.1-.1 0-.3-.1-.4-.2-.1 0-.2-.1-.4-.2-.1 0-.2-.1-.4-.2-.3-.1-.5-.3-.8-.4 0-.1-.2-.4-.7-.7-.3 0-1.3-.7-1.5-.8.5.4.6.5.8.5.1.1.2.1.5.2.3.4 0 .1.5.5-.2-.2-.8-.5-1.2-.8l-.2-.1c-.1 0-.2-.1-.2-.2-.1-.1-.3-.2-.4-.4l-.1-.1s-.1 0 0-.1v-.5.2c0-.6.1-.8.1-1.2v-1.5l-.2-.9c-.1-1.2.1-.9-.1-2.2v.1c0-.7-.2-1.5-.3-2.1.1-.4.1.1.2.3-.1-1.3-.4-2.8-.6-3.5v-.9c.1.5.3 1.1.3 1-.1-.5-.1-.4-.2-1 .1.1.2.4.3.7 0-1.4-.2-.3-.2-1.2 0-.4-.2-.7-.2-.7v-.8c-.1-.1-.2-1-.3-1.7v.8c-.1 0-.2-.7-.2-1.1.2-.2-.4-2.8-.1-2.3-.3-1.9-.8-4.7-1.1-5.9 0-.4-.2-1.3 0-.8-.3-1.5-.6-2.3-.8-3.9 0-.1.1.7.2.6-.3-1-.3-1.8-.5-3.4 0 .2.1.3.1.4 0 0-.2-.6-.3-1 0-.2.1.3.1.2-.5-3-1.1-5.3-1.7-8.3.2.9.3 1.2.4 1.2l-.2-.8c-.1-.3-.2-1-.4-1.5 0-.1 0-.3.1-.1-.2-1.7-.7-2.5-1.1-4.6l.7 2.4v-.6l.3 1c0-.7-.3-1.2-.3-1.3 0 .1.1.5.2.5-.1-.6-.2-.7-.3-1.1.5 1.2.9 3.6 1.2 4.9 0 .2-.1-.2-.1-.2.1.5.1.9.3 1.5.2.4 0-.3 0-.7.1 0 .1.2.2.5-.1.1.3 2 .3 2.5.4 2 .2-.4.5 1.5v.3c.3 1.1.6 2.5.8 3.8v-.3c-.1-.2 0 .1 0 .3.1 1 .4 1.8.4 2.4.3 1.1.7 2.9 1 4.1-.1.4-.4-1.6-.6-2.1l.2 1.1c-.1-.7-.2-1-.4-1.4.1 1 .3 1.3.5 2.2v.5l.1.1v.2l.3 1.7c0-.4.1-.4 0-.8 0 .2-.1-.2-.2-.6.1.4 0-.4 0-.4.1.9.3 1.9.4 2.5l-.1.2c.1.8.3 1.7.3 2.2l-.1-.2c.1 1 .3 2 .3 2.9.2.9.5 2 .7 2.7.2.4.2 2.6.5 3.6 0 .1-.2-.7-.2-1 0 .7.3 1.2.2 1.4-.1-1.5-.1.1-.2-.6.1.7.2 1.5.2 1.8-.1-1.1.2.4 0-.7.2.9.4 2.1.4 3.2 0 0-.1.1-.1.5l.1.3c0 .5-.2-1-.1 0 .1.5.2 1.3.2 2s.1 1.3.2 1.6c-.1.8-.2-1.5-.2-.3 0-.3-.1-.7-.1-1.1 0-.3 0-.7-.1-.7.1.7-.1.2 0 .7v.8-.2c0 .3.1.7.1 1.1v1.1l.1.1.2.1s.1.1.2.1c.1.1.2.1.3.2.3.2.7.5 1 .7 1.2.5 2 .8 3.5 1.1-.5 0 1.2.3.2.3.7.2 1.4.1 1.4.1h-.4-.3 1.5-.1c.8 0 .3-.1.9-.2.2.1 1.1-.2 1.7-.3l.4-.2.4-.2c-.4.2.8-.1.9 0 .3-.1.5-.2.8-.2.3 0 .6-.1 1.1-.1-.4.1.8 0 .8.1h2.5c.1 0 .2 0 .4.1 0-.1 0-.2.1-.4V128.3v-.4c0-.3.1-.6.2-1.2-.1 0-.3 1-.4 1.4v.3c-.1 0-.1.1-.1.2v-.4-.2c0-.1.1-.3.1-.5.1-.6.3-1.2.4-1.7-.2.3-.3.8-.5 1.4-.1.3-.2.6-.2.9v.2h.1v.1h.1v.1s0 .1 0 0h-.1s.1 0 .1.1l.1.1c-.2-.1-.2 0-.2 0h-.1.2c.1 0 .1 0 0 .1-.1-.1-.7-.2-1-.2-.2 0-.4 0-.6-.1-.2 0-.5 0-.7-.1.1.2-1.5 0-1.6.2h.5s-.3 0-.5.1c-.3 0-.5.1-.5.1-1 0 .9-.3-.7-.1-1.4.2-1.4.5-2.4.7.3-.2 1.2-.5 2.1-.6h-.5c.3-.1 1.5-.3 2.2-.4-1 .2.5 0 1 0 .1-.1-.6 0 .2-.2-.8 0-.9 0-1.8.1 1-.1 1.5-.2 2-.3.5-.1.9-.2 1.8 0-.9 0 .3.2.4.2h.4l-.1-.2.1.1v-.1c0-.1 0-.2.1-.2.1-.3.2-.5.3-.7.2-.5.4-.9.6-1.6 0-.1-.1-.1 0-.6 0 .2.2-.2.1.4.2-.5.3-1 .3-1.4-.3.9 0-.4 0-.6.1-.5 0 .2 0 .5.1-.4.4-.8.3-1.1.1 0 0 1.1-.2 1.9l.1-.5c0 .3-.1.4-.2.9.2-.5.2-.4.3-.2-.1.4-.2.7-.1.6 0 .4.2-.5.3-.7 0-.2.1-.4.1-.6l.2-2.1c.2-.9.4-1.2.6-1.9v-.2c.2-.7.4-1.5.4-.9 0 0 0 .1-.1.3v.2c.2-.8.3-1.3.3-1.4-.2 1.4.2.1.3.4l.3-1.4c-.3.8-.1 0 0-.3.1 0 .3-1.1.4-1.6.2-.4.3-1.2.5-1.8v-1.1c-.3 1-.2.4-.2.4 0-.1.1-.3.1-.3 0-.1-.1.2-.1.2-.2 1-.5 2.1-.5 2.5.1-.3.1-.5.2-.9 0 .5-.2 1.2-.5 2l-.2.3-.2.9c0-.4-.1-.2.1-1.1-.1.1-.2.9-.4 1.4v.3c0-.1-.4 1-.2.2l.2-1.4-.2.4.3-1.1v.3c.4-1.8.4-.5.7-2.4 0-.6.2-1.2.5-2.4-.2.8.1.1.1.4.3-.8.2-1.1.3-1.6.1-.2.2-.3 0 .4.1.1.2-1 .4-1 .7-2.5 0-2.1 1-5v.1c.4-1.8.8-2.9 1.2-4.6l.5-1.3c0 .3-.2 1.1 0 .8-.3.6-.5 1.3-.7 2 0 .1.1-.2.2-.3-.1.4-.2.6-.4 1.2l.1-.2-.3.8c-.2 1 .1.5-.2 1.8 0-.2 0-.8.1-1.2-.2.5.1-.8 0-.3-.1.8-.3 1.2-.5 2.2v-.4l-.5 1.5c.2-.4-.2 1.3-.1 1.2.5-1.6.3-1.1.8-3-.1.5-.2 1.2-.2 1.6v.1c0 .3.1 0 .3.1.1-.9.3-1.4.5-2.4 0-.2-.3.5-.4 1l.2-.9v.2l.6-2.2c-.1.4-.1.6-.1.8.1-.3.2-.5.3-.8-.1 0-.2 0-.1-.3.4-1.4.7-2.2 1-2.7v-.2c-.2.2.1-1 .1-1.5.1 0 .2-.7.4-1.1-.1-.2-.3 0-.5.5-.1 1 0 .6 0 1.1l-.3 1.6v-.4c-.3.8-.3 1.5-.4 1.5 0-.4.2-1.1.3-1.5l-.2.5c.1-.9.3-.4.5-1.5-.2.4 0-.1.1-.6-.2.4-.5 1.9-.6 1.5.1-.6.7-1.8.8-2.7.3-1.1.3-1.5.4-2 .2-.5.3-1.1.4-1.6l.2-.7c0 .4-.2.8-.4 1.5h.1c-.3.7-.2 1.2-.3 1.8.1-.8.6-2.2.5-2.5l.2-.5v-.2c.2-.3.2 0 0 .8 0 .1-.1.2-.1.1 0 .3 0 .7-.3 1.5v-.5c-.3 1-.5 1.9-.5 2.3.4-1.5.8-2.9 1.2-4.2-.1-.5-.1-1-.2-1.2.2-.9.5-2.2.8-3v.1c.1-.4.2-.8.2-1 .2-.4 0 .3.1 0l.3-1.3c.1.1-.2 1.2-.3 1.7v-.2c-.2.6-.3 1.8-.5 2 0 .3 0-.6-.2.4-.2.7-.2.9-.1 1 0 0 .3-1 .3-.7.1-.5.1-.8.3-1.4-.1.5-.2 1.2-.4 1.5-.2 1 .1 1 .2.5-.1.1.4-1.9 0-.6 0-.6.3-1.8.5-2.5l.2-1c0 .1-.1.5 0 .5l.2-1.4c-.1.8.2-.5.3-.8 0-.2 0-.7-.1-.2-.2.5 0 .3-.2.9l.1-.8v-.5c.3-1 .1.5.4-.8l-.2.1c.2-.5.3-1.1.5-1.7.1-.3.2-.6.2-.8 0-.1.1-.3.1-.4 0-.2.1-.4.2-.5.1-.1.1-.3.2-.4l.1-.2c.1-.2.1-.3.2-.4 0 .3 0 .5.2.1 0 .1-.1.2-.2.4l-.1.2c0 .1-.1.3-.2.4-.1.4-.2.8-.3 1.1v-.2-.3-.2c0-.1 0-.2.1-.3l.2-.4.1-.3-.2.2s0 .1-.1.1l-.1.3c0 .1-.1.2-.1.3v.2c0 .2 0 .3-.1.4 0 .2-.1.5-.2.5-.5 1.8-.1 1.4-.7 2.9.1 0-.1.5 0 .5.3-.4.5-2 .9-3v.3c.2-.7.3-1 .4-1.5v-.3c0-.1 0-.2.1-.3.2-.3.2-.2.4-.5.1-.2.4-.8.2-.8l.2-.4.2-.4h-.1c.1-.5.3-.5.2-1h-.1s0 .2-.1.5-.2.5-.2.5c.1-.6 0-.2.1-.8 0 .3 0 .2.1 0 0-.2.1-.5.2-.5 0 0 0-.2-.1-.2 0-.2 0-.2-.1-.3v.4c0-.1-.1-.1-.1-.2-.1 0-.2-.1-.3-.1.2 0 .1-.1.2-.2 0 0 0-.1.1-.1s.2 0 .3.2c0 0-.1 0-.1-.1 0 .1.1.2.1.3 0 .1.1.3.1.4.1 0 .1.2.2-.2 0 .1-.1-.3-.4-.5h.2s-.1-.1-.3-.1h-.3c-.2-.1-.9.1-1.6.3-.5.2-2.5.8-1.6.7-.7.1-1.2.4-1.9.7l.9-.2c-1 .5-.7.3-1.5.8-.1 0-.3 0-.1-.1-1.4.5-3.4 1.1-4.2 1.5-1 .3-1.2.2-2.6.7-.3.1.3.1-.7.3-.1 0 .9-.4-.2-.1-.7.3-1.8.4-2.7.8-.5.1-1.4.3-1.2.2.8-.2 2-.5 2.1-.6-.1.1.6-.1 0 .1 1.2-.2.8-.3 1.9-.5.1 0-.6 0-.8.2 0-.1 2.1-.7 1.1-.6-1.2.3-1.5.7-2.5.8.4-.2 1-.3 1.5-.6l-.8.2-.6.2c-1.5.2-1.3.5-2.7.9.8-.1-.1.3.5.2-.9.2-1.5.4-1.6.2 1.7-.5.1-.2 1.6-.7-.2 0 .3-.3-.6-.1-1 .3.3 0-.7.3h-.1c-.5.2-.6.1-1.1.3h.1c-.8.1-.8.2-1.4.3.2 0-.4.2-.8.3.6-.1 1 0 2.2-.2.1-.1 0-.1.5-.3l-.8.2c.2 0 .3-.1.5-.2l.8-.1c-1 .3-.5.3-.9.4-.9.2-.8.2-1.3.2 0-.1-1.8.1-2.8.2.2 0 .4 0 .5-.1.7-.2-.5 0-.6 0l-.5.1c.1 0 .2-.1 0 0-.8.1-.7.2-1.4.3-.1 0 .5-.2.1-.2-.2 0-.7-.2-1.7 0-.1 0-.3 0-.6.1h.1-.7c.5-.2 1.1 0 1.7-.2v-.1c.5 0 1-.1 1.3-.2-.7 0-.8.1-1.5.2-.1 0 .4-.2.5-.2l-.1.1c.9 0 1.3-.2 2.4-.3.2 0 .1 0 0 0 .9-.2 1.8-.2 2.6-.5l-.2.1c.6-.2 1.7-.5 2.8-.8-.1 0 .3-.1.5-.1.5-.2 1.1-.4 1.5-.5-.2 0-.3 0-.5.1s-1.2.3-1 .4c-.5 0-1.2.3-1.6.3.7 0-.4.2-.5.3-.2 0-1 .2-.9.1-.1 0 .3 0 .6-.1.7-.2-1.2.2-.4-.1-1 .2-2.5.5-3.6.7h.7c-.5 0-1.7.2-1.8.2.4 0 .8-.1 1.2-.2 0-.1-1.1.1-1.2.1l-1.3.3h.6c-.2 0-.6.1-1.1.1h-1.5c.5-.2 1.4 0 2.4-.2.7-.1-.5-.1.2-.2-.2 0-.6 0-.8.1h-.3c.3-.1.8-.1 1.3-.2.5 0 1.1-.2 1.5-.2-.1 0-.1 0-.2.1.7 0 1.4-.1 2-.2-.4 0-.5 0-.7.1 0 0 .6-.1.8-.2h-.5c.4-.1.7-.1 1.2-.2.3 0-.2.1-.1.2.5-.1.7 0 1.5-.2-1 .2.2-.2.5-.3h-.2c.3-.1.5-.2.8-.2-.4.1-.8.2-.7.2.2 0 .5-.1.8-.2l-.2.1.7-.2.7-.2c.2-.1.5-.3.7-.5.3 0 .8-.2 1-.3l-.1.1c.6-.1 1.8-.5 1.9-.5.4 0-2.8 1.1.1.3 1.1-.3.6-.4 1.2-.6.5-.1.5-.2.9-.3-.3 0-.7.2-.8.2.1-.1 1-.3 1.3-.5-.4.3.9-.2.6 0 1-.2 2-.6 2.4-.9.7 0 1.1-.4 2.2-.7-.2 0-.5.2-.7.2-.5.3 1.1-.3.2.1.2-.1 0 0-.2 0-.3.1-.7.3-.5.3l.9-.2-.3.1 1.3-.3h-.2c1.5-.5 3.2-1.1 4.5-1.5 0-.1.3-.2.6-.3s.8-.3 1.3-.4c.2 0 .3 0 .5-.1h.5c.4 0 .7.1 1 .2.6.3 1 .8 1.1 1.2-.2-.4-.5-.5-.4-.2-.1-.1-.3-.4-.5-.5-.2-.2-.6-.3-1-.4 0 0-.3-.1-.5-.1s-.2 0 0-.1h-.6.4c.1 0 .1 0 0 .1.5 0 1.1 0 1.5.2.4.2.7.6.8.9.2.4.2.8.2 1.2 0 .4 0 .6-.1 1 0 0 0 .2-.1.5l-.1.4c.1-.3.2-.5.2-.5s0 .3-.2.7v-.1c-.1.2-.2.5-.3.9-.1.2-.1.3-.2.5s-.1.3-.2.5v.7c-.2.8-.4.7-.5 1-.3 1.2-.4 1.9-.5 2.7-.2.4-.7 2.1-.5 1.2-.2 1.1.2 1-.5 2.7v-.5c-.5 1.8-1 4.2-1.2 5-.1-.7-.8 2.1-1.2 2.3.1-.1-.1.6-.1.7-.1.1-.2.4-.2.6.2-.7.1.5.4-.8 0 .7-.1 1.6-.5 3h-.1l.3-1.1c-.1.1 0-.5.1-.8-.6 2.1-.2-.3-.7 1.8 0 .2 0 .1-.1.7.1-.3 0-.3-.1.1v.4c-.4.7.2-1.3-.1-.7.1-.8.5-2.3.2-2.1-.4 1.3-.1 1.3-.5 2.7l-.1.1c-.1.5 0 .6 0 .9 0 0-.1.1-.2.5-.1.9-.2 1.5-.2 2.2.4-2.1.6-1.8 1-3.9 0 .3-.4 1.8-.3 2h-.1c-.1.7-.2 1.4-.5 2.3l.1-.5c-.2 1.2-.7 1.9-.8 2.8.1-.3.2-.6.2-.8-.1.6-.3 1.3-.5 2l-.2 1.4s-.3.8-.2.4c-.3 1-.3 1.4-.4 2-.4 1 .2-.9 0-1-.4 1.3-.8 2.8-.9 3.6l.2-.4s-.2.6-.2.9v.2c-.2.5-.2.4-.1 0-.1.5-.2 1.1-.4 1.6.1-.8.5-1.9.5-2.3-.4 1.8-.7 1.7-1.2 3.9 0 0 0-.4-.1 0-.2 1 .1.3.1.6.2-.8.3-1.1.5-1.5v.2s-.2.5-.2.6l.1.2c-.1-.1-.4.6-.5 1.2.2-.6.2-.4.4-.5-.1.9-.4.9-.5 1.9 0-.1.2-.9 0-.2-.2.6 0 .5-.1.9 0-.5-.1-.4-.1-.9.3-1 .1-.4.3-1.5l-.3.8c.2-.9 0-.7 0-.7-.5 1.5-.1 1.2-.4 2.1 0 .5.2-.9.1-.2-.2.9 0 .2-.2 1.2v-.2c-.1.3-.2.6-.2 1-.1.4.5-.3 0 1.3v-.1l-.5-1.8c-.4 1.7-1 3.5-1.5 5.4-.3.4.2-1.4.1-1.3l.2-.9c0 .1-.5 1.8-.1 1.1.4-1.5.6-2.2.9-3.7-.3.4-.5 1.9-.9 2.8.1-.4.2-.7.3-1.1-.3.9-.5 1.8-.8 2.8v.3c.2-.7.3-1.1.4-1.2-.2.9-.4 1.7-.2 1.8v-.2V130.1l-.9.1zm-24.5-42.6s0 .1.1.1c-.1 0-.1 0-.1-.1zm28.9 24.7c-.3 1.2-.7 2.4-1 3.6.8-2 1.4-3.5.5 0v.3c.2-.5.4-1.2.5-2 0-.3.1-1 .2-1.5v-1c-.1.2-.1.5-.3.9l.1-.3zm.6-.7c.2-.7.1-.5.1-.7 0 .3-.1.5-.1.7 0-.1 0-.1 0 0zm.1-.6v.2-.2zm-3.6 13.2l-.1.4s0-.1.1-.4zm.4-1.3v-.2c0 .2-.1.3-.1.5 0-.1.1-.1.1-.3zm1.6-4.4c0-.3.2-1.2.1-1.3 0-.1-.1.1-.2.3-.1.2-.1.5-.2.8v.2c.1-.3.2-.5.2-.3-.4.7 0 .7-.3 1.4 0 .2.3-.8.4-1.1zm-6.3-38.3h-.2l.5-.2c1-.3 1.8-.3 2.6-.7.4-.1.7-.1.9 0-.2 0-.4.1-.5.1-2.4.9-1.4.1-3.3.8zm11-3.2c-.1 0-.1.1-.1.1 1-.5 2-.9 2.8-1.2.4-.1.8-.3 1.2-.3.4-.1.8-.1 1.1 0-.1-.1-.5-.2-.9-.2s-.8.1-1.1.1c0 0 .1 0 .2-.1.1 0 .2-.1.2-.1h1.2c-.1 0-.4-.1-.7 0h-.8s-1.4.5-1.7.7c0 0 .2-.1.5-.1.2 0 .5-.1.5-.1-.3 0-1.7.5-2.2.7 0 0 1-.2 1-.3.1 0-1 .4-.2.2-.8.3-2.1.7-2.7.9l-.1-.1c-.7.2-.4.3-1.2.5 1-.3-.2-.1.5-.3-.2 0 0-.1-.8.1-.6.4-.8.2-1.4.5-.4.1.4-.2-.4 0-.9.4-.8.4-.8.6.9-.2.9-.5 1.6-.7l-1.3.7c.3 0 .5-.1.6-.2-.3.1-.5.2-.7.3-.1 0-.2.1-.3.2.8-.2 1.5-.5 1.6-.5l-.1.1c.3 0 .8-.2.9-.3.7-.3 1.4-.5 1.5-.5l-.2.1c1.2-.4 1.3-.4 2.3-.8zm-.3 22c.4-.5.7-1 1.3-3.5v.2c.5-1.2.5-2.5 1-4-.1.8-.1.7-.1 1.6l.2-.8c.1.3.2-.5.4-1.1v.5c-.1.3-.4 1.2-.3 1.2 0-.2-.5 1.2-.7 1.9.1 0 .5-1.7.5-.9.1-.7.2-.7.4-1.4-.1.7.1.2 0 .7l.2-1.1s-.3 1.6 0 .8c.1-.5.4-1.6.3-1.6.2-.8 0-.4.2-1.4 0 0-.1.2-.2.5 0 .3 0 .4-.1 1-.2.2.2-.8 0-.3-.1.2-.4 1.7-.4 1.2l.2-.8c-.1 0 0-.6 0-.6.1-.5.3-.9.4-1.5 0-.2-.2.1 0-.7.3-.6.8-2.5 1-3.3l.1-.7c-.1 0-.3 1.2-.3.8l.2-1v.1c.1-.3.1-.7.2-1 0 .3-.2 1-.1.9.1-.5.2-.5.3-1v.2c.3-.9.1-.9.1-1.2.1-1-.4.9-.5.8l.6-2.5.1-.2c0 .1 0 .2-.1.2v0c.2-.3 0 .1.4-.7-.2 0 .4-1.2.5-1.9.1-.3.2-.4 0 .3.1 0 .3-1 .3-1.3 0-.2 0-.5-.1-.8v.1s-.1-.2-.3-.5c.5.8-.1 2.3-.2 2.9v-.2c-.2.6-.5 1.3-.7 1.8-.1.5-.2.8-.3 1 0-.1-.1.2-.2.2l-.1.8v-.2l-.3 1.4c-.1.7-.1 1.2-.2 1.7 0 0 .1 0 0 .2 0 .2-.1.4-.1.5-.1.3-.2.5-.4 1l.3-1.3c0-.1-.2 0-.4.6.1-.2 0-.4 0-.1 0 0-.2.9 0 .6-.3 1.2-1 3.2-1.4 5.1.2-1.4-.4 1 0-.5-.4 1-.1.9-.4 2-.1.1.2-.6.1-.8-.5 1.8-.6 3-1.1 4.7h-.1c0 .6-.1 1-.2 1.4zm-.8 3.4l-.2 1v-.1l-.2 1c.2-.6.4-1 .2-.1 0-.1-.1.2-.1-.2-.2.5-.6 1.8-.4 1.5.2-1.1.2-.2.4-1.1 0 .5-.2.9-.2 1.4 0-.5-.2 0-.4.8 0 .3-.3 1.1-.4 1.6.1-.2.1.3.3-.5 0 .3-.2.7-.3 1.2 0-.2.1-.6.1-.5-.2.3-.3.7-.4.9l-.1.5s0-.1.1-.1l-.1.6c.2-.7.1-.3.2-.3-.1 0-.1.5-.2.7l.3-.5c0 .3-.3.9-.2.8.4-1.2.5-1.6.7-2.7l-.2.4c.3-1.2.3-.7.7-2.1.1-.6.5-2 .4-2.1 0 .2.4-.8.4-1.3s.4-2.1.2-1.7c-.1.4-.2 1-.4 1.3l.2-.8-.2.5c.1-.2 0-.2-.2-.1z"/><path d="M154.2 82.8c-.2 0-.8.1-.7.2-.1-.1 1-.1.7-.2zm-.7-.1l-.3.1h.7l-.4-.1zm-.8-.5c-.4.1-.6.1-1.2.1-.2-.2 1-.1 1.2-.3-1.1 0-1.4.2-2.3.2.2 0 .8.1 1.3.1s1-.1 1-.1zm.5-.3h-.6.6zm13.4-.4c.1 0 .4-.1.6-.2-.2.1-.4.1-.6.2zm-18.1 19.4s-.2-1.2-.4-2.3c-.2-1.2-.4-2.3-.4-2.3.2 1.3.5 2.6.8 4.6zm32.8-24.4c-.5.2-1 .3-1.4.5s-.8.3-1.4.5c.8-.2 1.3-.4 1.8-.6.2-.1.5-.2.7-.2.3-.1.5-.1.8-.1h-.2c-.1-.1-.3-.1-.3-.1zm-.3.6c-.1 0 .1-.1.3-.2.2-.1.3-.1.3-.2-.7.2-.3.2-1 .3l.4.1zm-6-.3l.3-.2-.3.2zm7 2v-.1s0 .1-.1.3c0 .1-.1.2-.1.2l.2-.4zm0-.3v.1-.1zm-6.6-2.1l-.5.2-.2.1.7-.3zm5-.9l-.2.1-.2.1s.7-.2.4-.2zm.3 6.9l-.1.6v-.1l.1-.5zm3.6-5.3c0-.2.1.1 0 .4v.3l.1-.2c-.1-1.1-.1-.6-.1-.5zm-2.8 7.2v0zm0 0c.1-.2.2-.5.2-.7-.1.4-.1.5-.2.7zm-.7 3l.1-.2V87c.1-.2 0-.2 0-.3v-.2.2c-.1.5-.2.7-.1.6zm-4.6 10.6c.2-.9.3-1.1.4-1 .2-.8.1-.7.2-1.2-.2.9-.3 1.1-.6 2.2zm.6-2.2c0-.1 0-.2.1-.3-.1.1-.1.2-.1.3zm5.7-11.7v.6V84zm-6.7 15.2c0-.2.1-.4.2-.5 0-.1-.2.7-.2.5zm2.4-3c.1-.1.2-.6.2-.9-.1.4-.3.6-.2.9zm-2.7 5.6c0-.2.2-.4.2-.3 0-.2 0-.6-.2.3zm2.3-4v-.1l.1-.6-.1.7zm1.6-1.8c.1-.7-.5 1-.2-.2-.5 1.5.2-.1-.2 1 .2-.6.4-.9.4-.8zm-.4.8c0 .1 0 .2-.1.3 0-.1.1-.2.1-.3zm-3.1 9.3v-.2.2zm2.2-5.7l.1-1c-.1.7-.5 2.4-.4 2.3.2-.5.3-1.2.3-1.5v.2zm-5.4 10.8l.1-.5-.1.5c-.1 0 0 .3 0 0zM172.5 111.4c.1-.1 0 0 0 0zm3.9-7.2c.1-.3.2-.6.2-.9-.1.1-.3.9-.2.9zm-4.4 10.1l.2-.7-.2.7zm-1 3.3l-.1.1-.1.6v-.1l.2-.6zm3.7-3.6c.1-.5.1-.9.1-.7l-.2 1c.2-.2.1-.2.2-.8l-.1.5zm-17.9 15.5c.2 0 1.1.1 1.2.1h-.3c-.1 0-.2 0 0 0l.8-.2c1 0-.8.3-1.2.2.5.1.8 0 1.2 0 .2 0 .3 0 .5-.1.2 0 .4 0 .7-.1h-.7s.2-.1.5-.1.7-.1 1.1-.2h-.2.1c.1 0 .2 0 .2-.1h.2-.1-.1c-.4.1-.6.1-.8.2h-.6c.2.1-.1.1-.5.2h-1.9.3-1.1s-.1 0-.3-.1c-.2 0-.4-.1-.7-.2-.5-.2-.9-.4-.9-.4l-.1-.1h-.1s-.1-.1-.3-.2c-.2-.1-.5-.3-.9-.5-.2-.1-.4-.2-.5-.4l-.1-.1-.1-.1v-.1-.8c0-1.3-.2-2.5-.2-3.5 0-.5-.1-.9-.1-1.1v-.4 1.5c-.2-.7 0 .8-.1.6-.1-.3-.1-.8-.1-1.2-.1-.1-.1.3-.2.3 0 1.3.3 1.5.4 2.7-.1 0-.2-.4-.1.4v-.2c.1.7 0 .9 0 1.1v.7h-.1c0 .1 0 .2.2.3l.1.1.2.2c.2.1.3.2.4.3.4.2.6.3.7.4.2.1.3.2.4.2.2.1.5.3 1.3.6h-.1c-.1 0-.2 0-.3-.1-.2 0-.4-.1-.4-.1.5.3.8.2 1.2.4 0 0 0 .1-.4 0 0 0 .1 0 .3.1s.5.1.8.2c.3 0 .5.1.7.1h.3c.5-.4-.1-.5-.2-.5z"/><path d="M159.5 129.6c.1 0 .3 0 .4-.1-.1.1-.3.1-.4.1zm-8-9.2l.1.7c0-.2-.1-.4-.1-.7zm11.4 8.3c-.5 0 .3-.1.4-.2 0 0-.4 0-.8.1l-.8.2s-.1.1-.1.2c0 0 .3-.1.7-.1.2 0 .3-.1.5-.1 0-.1.1-.1.1-.1zm-1.7.1l-.4.2.4-.2h.5c0-.1-.1-.1-.5 0zm.7 2.2l-.2.1-.4.1.6-.2zm-4.4.4h1.2c-.7 0-.4-.1-1.2 0zm1 .6h-.8H158.5zm-8-16.7v-.3.3zm.7 5.8c0-1.6.2 1 .3.5 0 0 0-.2-.1-.5 0-.2-.1-.5-.1-.5v.1l-.1-1.1c0 .2 0 .4-.1.4-.1-1.5 0-.5 0-1.5 0 0 0-.4-.1-.8 0-.4-.1-.8-.1-.8v-.1s-.2-1.3-.3-2.7c-.2-1.3-.4-2.7-.4-2.7-.2-1 0 .5-.3-.2.2 1.1.3 2.8.5 2.9 0 0-.1-.1-.1.1l.2.6v-.6c.2.7.4 2.8.4 3.2-.2-1.2-.3-.6-.4-2.3 0 .1 0 .4-.1 0 .1 1 .2 1.9.4 2.9.2 1.1.3 2.1.4 3.1zm-2.7-19.9zm.1.7l.3.9-.2-1.5-.1-.1c0 .1.2.6.2.8l-.2-.1zm.5 2.1c-.2-.8-.3-.7-.2-.3-.2-.7.1-.4-.1-.9-.1 0 .1.9.2 1.1l.1.1zm.9 5.7l-.1-.2v.5l.1-.3zm-.1-.2l-.1-.5s-.1.1-.1.2l.2.3zm-.3-2c0-.2 0-.5-.1-.8l.1.8zM149.7 108.1v-.6c-.1.3 0 .5 0 .6zm.1.8c.1-.1.2-.2 0-1l-.1.2.1.8zm3.4 21.9s-.2 0-.3-.1c-.2-.1-.3-.1-.3-.1s.2.1.3.1c.2.1.4.1.3.1zm-3.3-2.3c-.1-.1-.2-.1-.2-.2 0 0-.1 0-.1-.1v-.1c0 .1.1.2.2.2 0 .2 0 .2.1.2zm-1-3c0-.7.2 1 .1-.3.1-.1.2.5.2 1.1-.1 0-.1-.6-.1-.2.1.4 0 .6.2.4 0 .2 0 .3.1.4v.4c0 .2.1.5.2.8v-.5-.6-1-1c0-.3-.1-.6-.1-.9-.2-.6-.3-.2-.5-.2-.3.1-.2 1.6-.1 1.6zm-.2 1.2V127.3v-.3c.1-.1 0-.2 0-.3zm.9-7.7s-.1-.7-.2-.5l.1.9c0-.3.1-.4.1-.4zm0 .7v-.4.4zm-.3-14.4s0-.4-.1-.6c0 .2.1.4.1.6zm-2.8-15.1v-.4.4zM144 85s0-.1 0 0c0-.1 0 0 0 0zm0-.1c-.1-.3-.2-1-.3-1.2l-.1-.5c.1.4.2 1.4.4 1.7zM180.6 82.2h.2c.1-.1.2-.1.1-.2.1-.1.2-.1.1 0l.2-.2h-.2c0-.1.3-.1.3-.3l-.3.2c0 .1-.2.1-.2.1v-.1c-.3.3.1.3-.2.5-.1 0-.1 0 0 0zm-.4-.2v.2l-.2.1s-.1.2 0 .2l.1-.1c0 .1-.2.2-.2.3.2-.1.2-.1.3-.3.2-.1.3-.1.4-.1 0 0 0-.1.1-.2l-.1-.2c-.3.2-.3.2-.4.1l.2-.2c-.2-.1-.4.1-.5.1.2.1-.1.2.3.1zm-20.1 6.5s-.1 0 0 0h.6s-.2-.1-.1-.1c-.1 0-.2 0-.2.1v-.1c-.2.1-.3 0-.2-.1l-.4.4c.2-.1.1-.2.3-.2zm-14.1.4s0-.1 0 0c0-.1 0 0 0 0zm13.7-.2l-.1.1.1-.1zm.8-1.7zm-3.9 2.4zm5.6-3.3l-.3.1s-.1 0 0-.1c0 0-.1 0-.1.1-.1.2 0 .2-.3.3.2.1.2 0 .3-.1h.1l.3-.3zm-12 2c0-.1 0 0 0 0zm0-.1s.1 0 0 0zm9.6.6c0 .1 0 .1 0 0zm.2-.3h.2l.1-.1c-.1 0-.2 0-.3.1zm-3 1.2c-.5 0 .1-.2-.1-.2s-.2.1-.3.2c.4-.1 0 .3.4.2 0 .2-.3.2-.5.2-.2-.1.1-.1.2-.2-.2 0-.1 0-.2.1-.3 0-.5.2-.7 0-.2 0-.2.1-.3.2 0 .2.3 0 .4.2h.2c-.2 0 0-.2.1-.2h.2-.1c.1 0 .3-.1.4 0v.1c.1-.1.3-.1.5-.2l-.1.2c.2-.2.5-.2.8-.1 0 0-.1 0 0-.1.2 0 .3 0 .2.1.1-.1.6 0 .8-.1l.9-.9h-.1c-.1-.1-.1-.1 0-.3-.1.1-.1.2-.3.2.1-.1.1-.2-.1-.2-.5.2-.8.6-1.3.8-.3-.1-.7 0-1 0 .1-.1.2-.2.4-.2h-.4v.2zM158.2 89zm-.7.2zm2.1-.8zm.2.2zm-4.9.1z"/><path d="M156.4 89.3c.2 0 0-.2.3-.2h-.1c.2-.1.5-.1.7-.1 0 .1.1.1.1.2.2 0 .3-.1.4-.2.1 0 .2-.1.4 0 0 0 .2-.2-.1-.1-.2-.1-.2.1-.4.1-.1 0 .2-.1 0-.1-.2.1-.6 0-.6.2h-.2c-.2.3-.9 0-.9.3.1 0 .2 0 .3-.1h.1zm2.9-.8s-.1 0 0 0c-.1 0 0 0 0 0zm2.4.5v.2c-.5.1-.6.1-1 .1-.3 0-.7 0-.9.2-.1 0-.3 0-.2-.1h-.1c0-.1.1 0 .1-.1s-.1-.2.2-.2c.1.1-.2 0-.1.2.1 0 .1-.1.1-.1.1 0 .1 0 .1.1 0 0 .2 0 .3-.1.2 0 0 .1.2.1l.1-.2h.3c.4-.1-.1-.3.3-.5 0 .1.2.2.4.2-.1 0-.3.2-.5.1.2.1-.3 0-.2.2.1-.1.3-.1.5-.1s.2-.2.5-.2c.1 0 .1 0 .1.1l-.2.1zm-.2.1h-.1.1zm5-2.9zm1.7-1l.1-.1-.1.1zm9.3-2zm-5.7 1.6c.1 0 0 0 0 0zm-6.1 1s-.1 0 0 0zm.1.5zm-2.8.1h-.1.1zm2.5-.2zm13.9-3.5zm-6 2c.1 0 .1 0 0 0 .1 0 .1-.1 0 0zm5.8-.4zm0-.1zm-6.1 2.1zM179.5 82.7s.3-.3 0-.2c0-.1.2-.2.2-.2-.1 0 0-.1 0-.1l-.1.1s0-.1.1-.1c-.1 0 .1-.2-.1-.1-.3.2-.5.3-.6.6.2-.1.3-.2.5-.2v.1c-.2 0-.2.1-.4.2l.4-.1c.3-.1.1 0 0 0zm-16.1 5.9c0 .1 0 .1 0 0zm4.9-1.2s-.1 0 0 0c-.1 0-.1 0 0 0zm-.8 0c-.1 0-.1 0 0 0zm5.6-3.2c-.1 0-.1.1 0 0-.1.1-.1.1 0 0zm-8.9 4.3s0 .1 0 0c0 .1 0 0 0 0zm5.6-1.9c.1 0 .4 0 .4-.2 0 0-.3 0-.3-.1h-.3c.2 0 0 .1-.1.2-.1 0 0-.1-.1-.1l-.3.1h.2v.1c.4-.2.2.1.5 0zM169.8 86.6s0 .1 0 0zm1.5-.1zm-10.8 1.7s.2.1.2 0h-.2zm14.6-3.4c-.1.1-.1 0 0 0zm-5.1 1.4c0 .1 0 .1 0 0zm5.2-1.2s.1 0 .1.1l.1-.1h-.2z"/><path d="M160.3 88.1h-.2c-.1.1-.4.2-.5.2-.1 0-.2.1-.3.1.1 0 .2 0 .1-.1-.2 0-.2-.2-.5 0h.2l-.3.2c-.1-.1.2-.1.2-.2-.3.1-.5-.1-.7.1 0-.1-.1-.2-.2-.2.1.1-.1.1 0 .2 0 .1-.2 0-.2 0-.3-.1-.4.1-.5.2-.4.1-.5 0-.9 0 0-.1-.1-.3-.2-.3 0 .1-.3.2-.3.3.2 0 .2-.1.3-.2.1.1 0 .1.2.2-.1 0-.5.1-.7 0-.2 0-.3-.3-.6-.2l-.2.1c-.3 0-.2-.1-.5 0-.2 0-.3.1-.5.1-.1-.1 0-.1 0-.2-.3 0-.6.2-.8.3h-.2c.1 0 .2-.2.2-.2-.1 0-.1.1-.2 0 0-.1.1-.1.2-.2-.3-.1 0 .2-.3 0-.1 0-.2.1-.2.2l-.2-.1c0 .1-.2.1-.4.1 0 0 .1.1.2 0 0 .1-.2.1-.2.1 0-.2-.7 0-.5-.2-.5.1-1.1.1-1.4.2-.1 0-.3 0-.2-.2-.4 0-.5.2-.9.2 0 0 .2 0 .2-.1-.2.1-.4-.1-.8 0 0 0 .1 0 .1-.1l-.2.1s.1 0 0 0c-.7-.1-1.2.2-2 .2.2 0 .3-.1.3-.2h-.2c-.1.1-.2.1-.3.1 0 0-.1 0 0-.1-.4-.2-.6.2-1.1.1l.6-.3-.1-.1.2-.1c-.2-.1-.3.1-.3 0 0 0 .1 0 .1-.1h-.2c.3-.2.8-.2 1.2-.2v.1h.3c.1-.1-.1-.1-.2-.1 0-.1 0-.1.1-.1 0 .1.5 0 .6.2.5 0-.1-.2.4-.2l.1.1c.2-.1.6-.2.9-.1v.1c.2 0 .4-.1.5 0 .2-.1.7-.2 1-.3.1.2-.4.1-.5.2h.2c-.2 0-.2.1-.3.2.2 0 .3-.1.5-.2 0 0 0 .1.1.1v-.1l.4-.1c-.1 0-.1-.1-.2-.1 0 0 0 .1-.2.1.1-.1-.1 0-.1-.1h.6v.1h1.2c.2-.1.5-.2.6-.3.1-.1.6.1.8 0 0 0-.2.1-.3.2.2 0 .3-.1.3 0-.3 0 0 .1-.1.1.2 0 .3 0 .4-.1-.2 0 .1-.2-.2-.1.2-.1.5-.2.7-.1 0 0 0 .1.1.1l.1-.1c.1 0-.2.1 0 .1.2-.2.7 0 .8-.2.2.1-.3.1 0 .2-.2.1-.4 0-.4.1.2 0 0 .1.2.1l.2-.1c.3-.1.8-.1 1.1-.2.3-.2.5-.3.9-.4-.1.1.3 0 .1.2.2 0 .3 0 .3-.1h-.2c.1-.1.3-.1.4 0 .2 0 .1-.1.2-.1 0 .1.3 0 .4 0l.2-.2c-.1.1.2 0 .2.1.1-.1.2-.2.4-.2-.1 0 .2 0 .2.1.3 0 .5-.3.8-.2 0 0-.1.1 0 .1h.2c.1-.1.2-.2.4-.3 0-.1-.2 0-.3 0l-.1.1c-.1-.1-.2 0-.3 0 .1-.2.6-.2.8-.3-.2-.1-.5-.1-.8 0h.1-.2l.2.1h-.4c.2 0 .2.1.1.1-.2-.1-.2.1-.3.1h.1c-.3-.1-.3 0-.6-.1 0 .2-.3 0-.3.2h.1l-.3.1c-.2-.1.2-.2-.2-.2-.3 0-.3.2-.5.2.1-.1.2-.2.5-.2h-.1c0-.1.3-.1.5-.1-.2.1.1 0 .2.1 0-.1-.1-.1 0-.2h-.4c.5 0 .4-.4.8-.3-.2 0 .1.1.1.2.1 0 .2 0 .3-.1l-.1-.1c.2-.1.3.2.6 0 0-.1-.2 0-.2 0 .3-.1.5.1.8.2 0 0 0-.1.1-.2v.2c.1 0 .2 0 .3-.1-.2 0 .1-.1.1-.2.1 0 0 .1-.1.1.1 0 .2.1.2 0 0 .1-.2.2-.4.3h.1-.2c.1 0 .1.1.1.2-.1 0-.2 0-.1.1-.1.1.1 0 .2.1h.1l.4-.5c.2-.1.3 0 .5 0V86c.2 0 .3 0 .3.1h-.1c.2 0 .3-.1.3-.1-.3.2 0 .2 0 .4l.3-.1c-.2 0 0-.1 0-.1 0 .1.2 0 .4 0 .1 0 .3 0 .4-.1 0 0 .1-.2.2-.3-.2 0-.1-.1-.1-.1h.1v-.1c-.2.1-.5.1-.5.3.1 0 .1-.1.2 0-.1.1-.2.1-.5.1l-.1-.1-.2.1c.1 0 0-.1.2-.2 0-.1-.2 0-.3 0v.1c0-.1-.2 0-.1-.2l.3-.1-.1-.1h.3v.1c.4-.1.2.2.6 0 .1-.2.2-.2.5-.2-.2 0 0 .1-.1.2.2 0 .2-.1.3-.2 0 .1.1.1-.1.1 0 .2.2-.1.2.1.6-.1.4-.6 1.1-.5v.1c.4-.2.7-.1 1-.2l.3.1c-.1 0-.2.2-.1.3-.2-.1-.3 0-.5-.1 0 0 0 .1.1.1h-.3s.2 0 0 .1l-.2-.1c-.2.1-.1.2-.4.2 0-.1.1-.2.2-.3-.1 0 .2-.1 0-.1-.2.2-.2.1-.5.2l.1-.1h-.4c.1 0-.3.1-.2.2.4 0 .2-.1.7-.1-.1 0-.3.2-.3.3v.3c.2-.2.3-.1.5-.2 0-.1-.2-.1-.2-.1l.5.3h.5c-.1 0-.1.1-.2.1h.2v-.2c.3 0 .5 0 .7.1-.1-.1.2-.2.3-.4 0 .1.2 0 .3.1 0-.1-.1-.3-.2-.4-.2.2-.1.1-.2.3l-.3.2v-.1c-.2 0-.3.2-.3 0 .1-.1.2-.1.3-.2h-.1c.2-.2.1.1.4 0-.1-.1 0 0 .1-.1-.1 0-.4.1-.4-.1.1-.1.5.1.6-.1.2 0 .3-.2.4-.2.1 0 .2-.1.4-.1h.2c0 .1-.2 0-.3.1v.1c-.2-.1-.2.1-.4.2.2-.1.5-.1.5-.3l.1.1c.1 0 0 .2-.1.2s-.1.2-.3.2l.1-.1c-.2 0-.4.1-.5.2.3 0 .7-.1 1-.2 0-.2.1-.4.1-.6.2-.1.5-.2.7-.1.1 0 .2 0 .2-.1.1 0 0 .1 0 .1l.3-.1c0 .1-.2.2-.4.2-.1 0-.4.2-.5.1 0 0 .1-.1-.1-.1s-.2.1-.2.2c0 0 .3 0 .2.1.1 0 .2-.1.3-.1-.1 0-.2.2-.3.1-.2.2-.1.4 0 .4 0-.1.4-.2.1-.2.1-.1.4-.2.5-.3l.2-.1-.1.1.3-.2c-.2.1.1 0 .2 0 0-.1.1-.2 0-.2s-.1.1-.2.1l.1-.2.1-.1c.2 0 0 .3.2.1l-.1-.1c.3-.1.8 0 1-.1 0 .1 0 .3.1.3-.1 0-.3 0-.5.1 0 0 .1-.2.3-.2-.1-.2-.4.2-.5 0-.4 0-.2.3-.6.2 0 .1-.1.1-.1.2.1.2.5-.1.7-.1l-.1.1c.2 0 .2 0 .3-.1.2-.2.1 0 .2.1 0 0 .2 0 .2-.1h.2v-.1c.1 0 .2 0 .2-.1v-.1h-.3c.1-.1 0-.1.2-.2-.2.2.1 0 .2.1l.1-.1c.1 0 .1-.1.2-.1-.2 0-.2-.1-.4 0 .1-.1.3-.2.4-.2.1-.1.2 0 .3 0-.2.1.2.3-.3.3-.1-.1-.2.1-.4.2 0 .1 0 .1.1.1-.1 0 .1-.2.3-.2v.2h.2c.1.1.2-.1.4-.1.1-.1.6-.2.3-.3.2 0 .2-.1.4-.2h.5c.2-.2.2-.1.3-.3l.1.1c.3-.1.8-.2.9-.4.2-.1.3.1.6-.1 0 0-.1-.1.1-.2 0 0-.2.2.1.1.1-.2.4-.1.6-.3.1 0 .3-.1.3 0-.2 0-.4.2-.5.2 0-.1-.1 0 0-.1-.3 0-.2.1-.4.2 0 0 .2.1.2 0 0 .1-.5.3-.2.3.2-.1.2-.4.5-.3 0 .1-.2.1-.3.3h.2l.1-.2c.4 0 .2-.2.5-.4-.2 0 0-.2-.2-.2.2-.1.3-.1.4 0-.3.2 0 .2-.2.4.1 0 0 .2.2.2.2-.2-.1-.1.1-.2.1-.1.1 0 .2-.1.2 0 .1-.2.3-.1-.1-.1 0-.1.1-.2-.2 0-.3-.1-.5 0v.2l.2-.1-.1.1h-.2c.2-.1 0-.2.1-.3.2 0 .2-.1.3-.1 0 .1.5 0 .7 0h-.1c-.1.1.2 0 .2.1l.1-.1c.2-.1.1-.2.2-.3v.2s.2.1.4 0c0 0 0-.1.1-.1h.2c-.1.2-.2 0-.3.2v.1c-.1 0-.2.1-.2.2.1 0 .2-.1.3-.2v.2-.1c-.2 0-.2.3-.5.3-.2.2-.4.1-.5.3v-.1l-.5.5h-.1c-.1.1-.2.2-.3.2h.1s.2-.1.2-.2c.1 0 .2-.1.4-.1-.2 0 0-.1 0-.2.1 0 .2-.1.2 0h-.1c-.1.1.3 0 .2.1.2-.2.5-.2.8-.4h-.2c.1 0 .3-.2.4-.1-.1 0-.2.1-.2.2s.2-.1.3 0l.2-.3h-.1c0-.1.3-.2.5-.3 0 .2-.3.1-.5.3-.1.1.2.1 0 .2 0 0 .1 0 .2-.1h.1c-.1.2-.4.3-.5.5-.2 0-.3.1-.5.2h.2l-.2.2c.2 0 0 .1.2 0-.1.1-.2.1-.2.1-.1 0 0-.1 0-.1-.1.1-.2 0-.3.1.2 0 0 .2 0 .3 0 .1-.1.1-.2.1.1-.1.2-.1.1-.1 0 0-.1 0-.2.1v-.1l-.3.1c0 .1 0 .2-.1.3-.1 0-.2 0-.2.1-.2 0-.4.2-.4.2-.1 0 .5-.6-.1-.3-.2.1-.1.3-.2.4-.1 0-.1.1-.2.2.1 0 .2 0 .2-.1 0 .1-.2.1-.3.2.1-.2-.2 0-.2-.1-.2 0-.5.2-.5.3-.2-.1-.2.1-.5.1h.2c.1-.1-.2 0-.1-.1.1 0 .1-.1.1-.1h-.5c-.4 0-.7.2-1 .3 0 .3-.7.4-.9.6v-.3s.1-.2.2-.2c0 0 .2 0 .1.1.3-.1-.1-.1 0-.2-.4.2-.5.4-.8.5l-.2.1c.2 0 .2.1 0 .1-.1 0-.3.1-.5.1l-.1.1c-.2 0-.2-.1-.3-.2-.3 0-.4.2-.6.4-.1 0-.5 0-.3-.1-.2.1-.1.5-.5.4l.1-.1c-.4.1-1 .4-1.2.3.1-.3-.6-.2-.7-.4l-.1.1h-.2c.2 0 0 .3.2.1-.1.2-.3.4-.6.5v-.1h.3c0-.1.1-.1.1-.1-.5 0 0-.3-.5-.2 0 .1 0 0-.1.1v-.1l-.1.1c-.2-.1.2-.2.1-.3.2-.1.5-.3.4-.4-.3 0-.2.3-.6.3-.1.1-.1.2-.2.3h-.1c-.2.2-.3.2-.5.4.5-.2.5 0 .9-.2-.1.1-.4.2-.4.3v.2c-.2.1-.3.2-.5.2l.1-.1c-.2.1-.5-.1-.7.1h.2c-.1.1-.3.1-.5.1l-.3.3s-.2 0-.1-.1c-.2 0-.3.1-.5.2-.2-.1.2-.1.2-.3-.3 0-.7.1-.8.3h-.1v.1c-.1 0-.1-.1 0-.1-.1 0-.2.2-.4.1.2-.1.5-.1.5-.1-.4.1-.5-.2-1 0 0 0 .1-.1 0-.1-.2 0 0 .2-.1.3.2-.1.2 0 .4 0v.1h-.2v.1c0-.1-.2-.2-.3-.1.2.1.1.1.2.2-.2.2-.2-.1-.5.1 0 0 .2-.1 0-.1-.1 0-.1.1-.2.2.1-.1 0-.2.2-.3.3 0 .1 0 .3-.1l-.2-.1c.2 0 .1-.1.2-.2-.4-.1-.3.2-.5.2-.1.1.2 0 0 .1-.2 0 0 .1-.3.2h-.2c-.1 0 .2.4-.2.4v-.1l.2-1c-.4 0-.8.1-1.3.1-.1-.2.3-.2.2-.2h.2c0 .1-.4.1-.2.2.4-.1.5 0 .9-.2-.1-.2-.5.1-.7 0 .1 0 .2 0 .2-.1h-.7.3c-.2 0-.4.1-.4.3h-.1l-.2-.5zm-13.9.6zm18.1-1.5h-.8c.5.2.9.3.1.5h.5l.5-.5c-.2-.2-.3 0-.3 0zm.3.3c.2 0 .1 0 .1-.1l-.1.1zm.1-.1zm-3.2.3c-.1 0 0 .1 0 0zm.3.1zm1.2.2c0-.1.3-.2.2-.3H163.1c.1 0 .1 0 .1.1-.2-.2-.1.1-.3.1-.1.2.2.2.3.1zm13.6-3.5s.1 0 0 0v.2c-.2 0-.5 0-.6.2-.1 0-.2-.1-.2-.1h.1c.4-.6.3 0 .7-.3zm-2.6.6c0-.1 0-.1 0 0-.4.3-.8.5-1 .6.1.1.3.1.5.1l-.1.1h-.1l-.2.2h.3s.3-.2.3-.3h-.2c.1 0 .4-.1.5-.2 0 0-.3-.1-.3 0 0-.1.2-.2 0-.2.2-.1.5-.2.6-.2l.1.1c.2 0 0-.2.2-.2-.2.1.1.1-.1.2.1 0 0 .1.2.1.1-.2.2 0 .3-.2.1 0-.1.1.1.1.2-.2.2-.2.1-.3-.2 0-.2.3-.3.3l.2-.3h-.2l.1-.1v-.1c-.2 0-.3.1-.4 0v-.1c-.1 0-.2 0-.2.1-.2 0-.3.2-.4.1v-.1c.3.2.3.2 0 .3zm-6.6 1.5c.2.2.3.4.9.2.3.1.5-.3.9-.2-.2.1-.2.1-.3.3l.2-.1c0 .1.2 0 .3 0l-.1.2h-.3s-.3-.1-.5 0c0 .1.4 0 .3.2.1-.1.2 0 .3-.1-.1.1 0 .1-.1.3l.2-.1s-.3.2-.1.2c.1-.1.4-.1.4-.2.2 0 0-.2.3-.2 0 0 0-.1-.1 0-.1 0 0 .1-.2.2-.1-.1.2 0 0-.2-.1 0-.4.1-.3 0h.2c0-.1.1-.1.1-.2.1-.1.2 0 .3-.1 0-.1-.1-.2.1-.2.2.1.6 0 .8-.1l.1-.1s-.3.1-.2 0l.2-.1c.1 0 .1-.1.2-.1 0 .1-.2.1-.2.2h.2c.2 0 .2-.2.2-.2.2-.2-.2-.1-.2-.2l.6-.2s-.1.1 0 .1c.2 0 0 .1.2 0 0-.2.3-.2.4-.3.1 0 .1 0 0 .1 0 .1.3 0 .3 0s.1-.1.2-.1c-.1 0-.1-.1 0-.2-.2 0-.6 0-.7.2-.3 0-.5.3-.7.2 0-.1 0 0-.1-.1l-.2.1-.3.1-.3.3v.1H170.3l.3-.1c0-.1 0-.2-.2-.2 0 0 .1-.1 0-.1 0 0-.2.1-.1.1-.3.1-.8 0-1.2.2.3-.2-.3 0 .1-.2-.2-.1-.2.2-.4.2 0 0 .1 0 .2-.1-.4 0-.7.3-1 .4v-.1c-.3.1-.3.1-.4.2zm-.8.2c-.1 0-.2 0-.2.1l-.2.1c.2 0 .2.1.1.2v-.1c-.1 0-.5 0-.3.1.2-.2.1.2.3 0-.1.1-.2.1-.3.2.1-.1 0-.2-.2-.2-.1 0-.2 0-.4.1 0 .1 0 .2.2.2-.1 0-.2.1-.3 0 0 0 .1 0 .1-.1-.1-.1-.2 0-.2-.1h-.1l-.1.1c.2-.1.1 0 .1.1 0-.1-.1 0-.2 0l.2.1c0 .1-.2 0-.2 0 .3 0 .4 0 .6-.1l-.1-.1c.3-.1.2.1.5.1.1-.1.5-.1.5-.2 0 0 .2.1.3 0 .1-.2.5-.2.3-.3-.1 0-.2.1-.3 0h.1-.1l-.1-.2z"/><path d="M179.4 83.1s.2-.1.1-.2c0 .1-.3.1-.1.2zm.1 0c0-.1 0-.1 0 0zm.5.4c0-.1.1-.2.2-.2.1.2-.2.2-.2.4.2-.1.2-.3.4-.4-.1-.1-.5.1-.4.2zm0 .3l.1-.1-.1.1zm-3.6-.6s-.1 0-.1.1c0 0 .1 0 .1-.1zm-26.9 4.1l-1.1.1c.4 0 .7 0 1.1-.1zm23.7-2.5c.3-.2.3-.3.6-.4-.4 0-.4.4-.7.3l.1.1zm0-.6c.1.1-.2.2-.1.3.2-.1 0-.1.2-.2l-.1-.1zm1.8 1.6v.1-.1zm-3-1.1h-.1.1zm3 1.4h.1V86l-.1.1zm-1.3-.3c.1 0-.1 0 0 0zm-2.6-1l-.1.1.1-.1zm1.8 1.6c.1.1-.2.1 0 .1.1 0 .1 0 0-.1zm-1.8-.2s-.1 0 0 0zm0 0h.2-.2zm-.7.2c0 .1.1.1 0 0 .1 0 .1 0 .1-.1-.1 0-.1.1-.1.1zm-2.9-1.1c.2 0 .2 0 .2.1.2 0 .1-.1.2-.2-.1.1-.2 0-.4.1zm.5-.1zm3.4 1.8l-.1.2.1-.2zm-4.2-1.7h.1s-.1.1-.1 0zm1 1.4h.2s-.1-.2-.2 0zm-1.5-.9s.1 0 .1.1c0-.1.1-.2-.1-.1zm1.2.9h.1-.1zm.7 1c.1-.1-.3-.2 0-.3-.4 0 0 .1-.2.2.1 0 .2.1.2.1zm-.2-.1zm-2.4-.2c.1 0 .1 0 0 0 .1 0 .1 0 0 0zm1.5.4l.2-.2c-.1.1-.5.2-.5.3.2.1.3 0 .3-.1zm-3-1.9c0-.1-.1 0 0 0zm-.1-.1zm2.1 1.5h.2c0-.1-.2-.1-.2 0zm-2.7-1.1h.2-.2zm-.8-.2h-.2.2zm1.4 2.5c.1 0 .2-.1.2-.2h-.2c.1.1 0 0 .2 0l-.2.2zm-7.2-1.6c0-.1.3 0 .3 0s-.2.1-.1.1l.2-.2c.2.1-.2.3-.3.3.2 0 .3-.1.6-.1-.1 0-.1 0-.2-.1 0-.1.3-.1.4-.1-.1 0 0-.1 0-.2h-.4c.1.2-.3.1-.5.1h-.1l.1-.1c-.1 0-.3 0-.2.1h-.5s-.6 0-1.1.1c-.6 0-1.1.1-1.1.1.1 0 .2 0 .3.1-.2.1.2 0 .2.1h-.2c0 .1.1.1.1.2.3.1.3-.3.6-.2 0 .1-.1.2.1.1.3-.1.2.2.4 0v.1c.1-.1.4-.1.5-.1.4-.2.2 0 .7-.1l-.2.1c.2 0 .2-.1.3-.1 0 0 0 .1-.1.1l.5-.2c-.1-.1-.3-.1-.3-.1zm.8.1zm-4-.1h.2-.2zm4.7-.2c-.1 0 .1-.1.1-.1h-.3v.1h.2zM158.3 86.5l.1.1c.1-.1 0-.1-.1-.1zm.3 2.3h-.2.2zm-1-.2h.3-.3zm.2.7h-.1.1zm-5-1.9zm1.4-.2c-.4-.1.2-.1.1-.3h-.5c0 .1.1.1.1.2-.3 0-.1-.1-.3-.2h-.4-1.2c-.2.1.1.1 0 .2.3 0 .7 0 .7-.1v.1l.1-.1h-.1c.2-.1.6-.1.7 0-.3 0-.1.2-.5.1 0 0 .1.1 0 .1.4.1.8.2 1.3 0zm-4.4.3l.2-.2h-.3v.1s.1-.1.1.1zm.5-.3c-.2 0-.2.2-.1.2-.2 0-.1-.1-.2 0 0 .1.2 0 .2 0l.1-.2zm1.3 0zm-.1.1h-.1s0 .1.1 0zm-.4-.1h-.2.2zm.1.1h-.1.1zm.2 0c0-.1 0-.2-.2-.2v.1l.2.1zm5.3 1.9l-.2.1.2-.1zm-.8 0c-.1 0-.1.1 0 0-.1.1-.1.1 0 0zm-.6.7c-.2-.1.2-.1-.1-.2 0-.1.1-.2.2-.2 0 .1-.1 0 0 .1.1-.1.1 0 .1-.2.2-.1.2-.2.3-.3-.2.1-.6 0-.9.1-.1.1 0 .3 0 .5 0 .3.4.3.4.2zm.3.2h.2c-.1-.1-.2-.1-.2 0zm-1.9-1.4s-.2.1-.1.1l.1-.1c.1.1.1 0 0 0zm.2 0c-.1.1 0 0 0 0zm-.2-.1c0 .1 0 .1 0 0zm-3.1-1.4h-.1.1zm-3.5.3c-.1 0-.1 0 0 0zm-1.3 1.4s0 .1 0 0c0 .1 0 0 0 0zm0 .1h-.4.4z"/><g><path d="M154.2 129c0 .1 0 .2-.1.1.1.2 0 .2.1.2.1.1 0 .2-.1.1l.1.4v-.2c.1 0 0 .3.1.4v-.4-.3.1c.2-.5-.1-.2-.1-.4 0-.1 0-.1 0 0zm.3-.4l-.2-.2v-.3s-.1-.2-.2-.1v.1c-.1 0 0-.4-.2-.3 0 .2 0 .2.1.4 0 .2 0 .3-.1.4l.1.1h.2v-.2l.2.3c.2-.1.1-.4.1-.5 0 .2.1-.1 0 .3zm-.3.2s0 .1 0 0zm-1.8-23.6c0-.1 0-.1 0 0v.7s.1-.2.1-.1c0-.1 0-.2-.1-.3h.1c-.1-.2.1-.3.1-.2l-.4-.5c0 .2.2.2.2.4zm-.8-15.5c.1.1.1.1 0 0 .1 0 0 0 0 0zm.6 15.1l-.1-.1.1.1zm1.7.9zm-2.3-4.4zm3.1 6.5l-.1-.3s0-.1.1 0v-.1.1c-.2-.2-.2 0-.3-.3-.1.2 0 .3.1.4v.1l.2.1zm-2-13.5c.1 0 .1 0 0 0zm.1 0s0 .1 0 0zm-.5 10.5c-.1 0-.1 0 0 0zm.3.2v.3l.1.1c0-.1 0-.2-.1-.4zm-1.1-3.2c0-.6.2.1.2-.1s-.1-.2-.1-.3c.1.5-.3 0-.2.4-.2 0-.2-.3-.2-.5.1-.2.1.2.2.2 0-.2 0-.2-.1-.2 0-.3-.2-.6 0-.8 0-.2-.1-.2-.2-.3-.2 0 0 .3-.2.4v.2c0-.2.2 0 .2.1v.2-.1c0 .1.1.3 0 .4h-.1c.1.2.1.3.2.5l-.2-.1c.2.2.2.6.1.9 0 0 0-.1.1 0 0 .2 0 .3-.1.2.1.2-.1.6.1.9l.8 1v-.1c.1-.1.1-.2.2 0-.1-.2-.2-.1-.2-.3.1.1.2.1.2-.1-.2-.6-.6-1-.8-1.5.2-.3.1-.7.1-1 .1.2.2.3.2.5v-.4l-.2-.1zm.5 1.4zm-.3-.9zm.8 2.4c.1 0 0 0 0 0s0-.1 0 0zm-.2.1zm0-5.3z"/><path d="M151.7 101.1c0 .2.2 0 .2.3v-.1c.1.2.1.6.1.8 0 0-.1.2-.2.1 0 .2 0 .3.2.4 0 .1.1.3 0 .4 0 0 .2.2.1-.1.1-.2-.1-.3-.1-.5 0-.1.1.2.1.1-.1-.2 0-.7-.2-.7v-.2c-.2-.2 0-1-.2-1 0 .1 0 .3.1.4l-.1.1zm.8 3.2zm-.7 2.6l-.2-.1c-.1-.5 0-.7 0-1.1 0-.3 0-.8-.1-1 0-.1 0-.3.1-.2v-.2c.1 0 0 .1.1.1v-.1c0 .1.2-.1.2.3-.2.1 0-.2-.2-.1 0 .1.1.1.1.1 0 .1 0 .1-.1.1 0 0 0 .2.1.3 0 .3-.1 0-.1.2l.2.1v.3c.1.4.3-.1.4.4-.1 0-.3.1-.3.4 0-.1-.1-.4-.1-.5-.1.3 0-.3-.2-.2.1.1.1.3.1.5s.2.3.1.5c0 .1 0 .1-.1.1v.1zm-.1-.2v-.2.2zm3.1 7.8v.1c.1 0 .1 0 0-.1zm-.3 10.8zm.1-6.7s-.1.1 0 0c-.1.1-.1.1 0 0zm0-7zm-.5.1zm.2-3.1v-.1.1zm-.1 2.8zm-.2 15.8s0-.1 0 0zm.3-6.8s0 .1 0 0c0 .1.1.1 0 0zm-1.5 6.1c.1 0 .1.1 0 0 .1.1.1 0 0 0zm.1.1c0 .1 0 .1 0 0zm-.1-7s.1 0 0 0zm1.4 8s.1.5.2.1c.1 0 0 .3.1.4 0-.1.1 0 .1 0v-.2s.1.1.1.2c.1-.1.1.2.2 0 0-.4-.1-.7-.3-.9 0 .2.1.5 0 .6l-.1-.1c.1-.2 0-.3 0-.5l-.1.5c-.2.2-.2 0-.2-.1zm-1-.3c0 .1 0 .1 0 0zm-1.2-18.6zm2.5 1.1zm-1.8 4.4zm2.1 6v-.2.2zm-2.7-10.5c-.1 0 0 0 0 0zm1.2 6.3c-.1 0-.1 0 0 0 0 .1 0 .5.1.5 0 0 0-.4.1-.3v-.4c0 .2-.1 0-.2-.1 0-.1.1 0 .1-.1v-.3.3l-.1-.1c.1.5-.1.2 0 .5zM153.2 116zm-.4-10.4s-.1.2 0 .2v-.2zm1 16.5c-.1 0 0 0 0 0zm-.3-5.8c0-.1 0-.1 0 0 0-.1 0 0 0 0zm0 5.9c-.1.2 0 .2 0 .2v-.2zm0 .3s0-.1 0 0z"/><path d="M152.8 105.5V105.2c-.1-.1-.2-.5-.3-.5 0-.1-.1-.2-.1-.4 0 .1 0 .2.1.2 0-.2.2-.3 0-.6v.2l-.2-.4c.1-.1.1.2.2.3-.1-.3.1-.6 0-.7.1 0 .2-.1.2-.3-.1.2-.1-.1-.2 0v-.2c.1-.4-.1-.5-.2-.6-.1-.4 0-.6 0-1 .1 0 .2-.1.2-.2-.1 0-.2-.4-.3-.4 0 .3.1.2.2.3-.1.1-.1 0-.2.2 0-.1-.1-.6 0-.8 0-.2.3-.3.1-.7l-.1-.2c0-.3.1-.3 0-.5 0-.2-.1-.4-.1-.5.1-.1.1 0 .2.1 0-.3-.2-.7-.3-.9v-.2c0 .1.2.3.2.2 0-.1-.1-.1-.1-.2.1 0 .1.1.2.2.1-.4-.2-.1 0-.3 0-.1-.1-.2-.2-.2l.1-.2c-.1 0-.1-.3-.1-.4 0 0-.1.1 0 .2-.1 0-.1-.2-.1-.3.2 0-.1-.7.2-.6-.1-.5-.2-1.2-.3-1.5 0-.1 0-.3.1-.2 0-.4-.2-.6-.2-1 0 0 0 .2.1.2-.1-.2 0-.5 0-.9 0 .1 0 .1.1.1l-.1-.2s0 .1 0 0c0-.8-.3-1.4-.3-2.1 0 .2.2.3.2.3v-.2c-.1-.1-.1-.3-.1-.4 0 0 0-.1.1 0 .1-.4-.3-.7-.2-1.2l.3.6.1-.3.1.2c0-.2-.1-.3 0-.3 0 0 0 .1.1.1 0-.2 0-.2-.1-.3.2.3.3.9.3 1.2h-.1v.4c.1.1 0-.1 0-.2.1 0 .1 0 .1.1-.1 0 0 .5-.1.7.1.5.2-.1.2.4l-.1.2c.1.3.2.6.2 1v-.1s-.1 0-.1.1c0 .2.1.5 0 .6.1.2.2.7.3 1-.2.1-.2-.4-.2-.5v.3c0-.2-.1-.3-.2-.3 0 .2.1.3.2.6 0 0-.1 0 0 .1h.1l.1.4c0-.1.1-.1.1-.2 0 0-.1 0-.1-.2.1.1 0-.1.1-.1 0 .2 0 .5.1.6h-.1v.6c0 .2.1.5 0 .8.1.2.2.5.3.7.1.1-.1.7.1.9 0 0-.1-.2-.2-.3 0 .2.2.3 0 .4 0-.4-.1 0-.2-.1 0 .2 0 .4.1.5 0-.3.2.1.1-.2.1.2.2.5.2.8 0 0-.1 0-.1.1l.1.1c0 .1-.1-.3-.1 0 .2.2 0 .8.2.9-.1.2-.1-.4-.2-.1-.1-.2 0-.4-.1-.5 0 .2-.1.1-.1.2l.1.2c.1.3.1.8.2 1.2.2.3.3.6.4 1-.1-.1 0 .3-.2.1 0 .2 0 .4.1.4v-.2c.1.1.1.3 0 .4 0 .2.1.1.1.2-.1 0 0 .3 0 .5l.1.2c-.1-.1 0 .2-.1.2.1.1.2.2.2.5 0-.1 0 .2-.1.2-.1.4.3.6.2.9 0 0-.1-.1-.1 0v.4c.1.1.2.2.3.5.1 0 0-.3 0-.4l-.1-.1c.2-.1 0-.3 0-.3.2.2.2.7.3 1 .1-.2.1-.6.1-.9v.2-.2l-.1.2v-.5c0 .2-.1.3-.1.2.1-.2-.1-.2-.1-.4v.1c.1-.3 0-.4.1-.7-.2 0 0-.3-.2-.4v.1l-.1-.3c.1-.2.2.2.2-.2 0-.3-.2-.3-.2-.6.1.1.2.3.2.5v-.1c0 .1.1.4.1.5-.1-.2 0 .1-.1.3.1 0 .1-.1.2 0v-.4c0 .5.4.4.3.9 0-.2-.1.1-.2.1 0 .1 0 .3.1.4l.1-.1c.1.2-.2.3 0 .6.1 0 0-.2 0-.2.1.4-.1.5-.2.9 0 0 .1 0 .2.1-.1 0-.1 0-.2-.1 0 .1 0 .2.1.4 0-.3.1.1.2.1 0 .1-.1 0-.1-.1 0 .1-.1.2 0 .3-.1 0-.2-.3-.3-.5v-.1c0 .1-.1.1-.2.1v-.2c-.1-.1-.1.1-.1.2v.2l.4.5c0 .2 0 .3-.1.5h.1c0 .2 0 .4-.2.2v-.1c0 .2.1.3.1.3-.2-.3-.2 0-.4 0l.1.4c0-.2.1 0 .1.1-.1 0 0 .3 0 .4v.5s.2.2.3.2c0-.2.1-.1.1-.1v.1h.1c0-.2-.1-.5-.2-.6 0 .1.1.1 0 .3-.1-.1-.1-.3-.1-.5l.1-.1v-.2c0 .1.1 0 .2.2.1 0 0-.2 0-.4l-.1-.1c.1 0 0-.3.2-.1l.1.3.1-.1v.3-.1c.1.5-.2.2 0 .6.1.1.2.3.2.6 0-.2-.1 0-.2-.1 0 .2.1.3.1.4-.1 0-.1.1-.1-.1-.2 0 0 .2-.1.3 0 .7.5.5.4 1.2h-.1c.1.5 0 .8.1 1.2l-.1.4c0-.1-.2-.3-.2-.2.2-.2.1-.4.2-.5 0 0-.1 0-.1.1 0-.1.1-.2 0-.3 0 0-.1.2-.1 0l.1-.2c0-.2-.3-.1-.2-.4.1 0 .2.2.2.3 0-.1 0 .2.1 0-.1-.2 0-.3-.1-.6v.1-.4c-.1.1-.1-.3-.2-.3v.8c0-.1-.2-.3-.2-.4-.1-.1-.1 0-.3 0 .2.2 0 .4.1.6.1 0 .1-.2.1-.3l.1.2v.6c0-.1-.1-.1-.1-.2v.3h.2c0 .4-.1.6-.2.8.1-.1.2.3.3.4-.1 0 0 .2-.1.3.1 0 .3 0 .4-.2-.1-.2-.1-.1-.3-.2l-.1-.4.1.1c0-.2-.1-.4 0-.4.1.1 0 .3.1.4v-.1c.1.3-.1.1 0 .4.1-.1 0 0 .1.1.1-.1 0-.5.1-.4.1.1-.2.5 0 .7 0 .3.1.4.2.5V115.1c-.1-.1 0-.2 0-.4h-.1c.1-.2-.1-.3-.2-.5.1.2 0 .6.2.6l-.1.1c-.1.1-.2 0-.2-.2 0-.1-.1-.2-.1-.4v.1c0-.3 0-.5-.2-.6v1.1c.3.1.4.2.6.2 0 .3.1.6 0 .8v.3c0 .1-.1-.1-.1 0l.1.3c-.1 0-.1-.3-.1-.5 0 0 0 .1 0 0 0-.2-.1-.5 0-.5 0-.1.1.2.1-.1 0-.2-.1-.2-.1-.2s-.1.3-.1.2c0 .1.1.2 0 .4 0-.1-.1-.3 0-.4-.1-.3-.4-.2-.4-.1.1 0 .1.5.2.1.1.2.1.5.2.7v.3s0-.1-.1-.1l.2.3c-.1-.2-.1.1-.1.2.1 0 .2.2.2 0v-.2l.1.2.1.1c0 .2-.2-.1-.1.2h.2c0 .4-.2.9-.1 1.2-.1-.1-.2-.1-.3 0v-.5s.2.2.2.4c.2-.1-.2-.5.1-.5.1-.5-.2-.3-.1-.7-.1 0 0-.1-.2-.1-.2.1 0 .5 0 .8v-.1.4c.1.2-.1.1-.1.3 0 0 0 .2.1.2l-.1.3h.1c0 .1-.1.2 0 .3h.1v-.3c0 .2.1 0 .1.2-.1-.2 0 .2-.2.2l.1.1v.2c0-.2.1-.2 0-.5.1.1.1.4.2.5v.4c0-.2-.3.1-.2-.4v.1c.1-.1 0-.3-.1-.4-.1 0-.1-.1-.1.1 0-.1.2.2.1.4h-.2v.3c-.1.1 0 .3 0 .5.1.1 0 .7.2.5-.1.2 0 .3.1.5l.1-.2c.1.3 0 .2.2.4 0 0-.1.1-.1 0 0 .4 0 .9.1 1.1 0 .3-.2.3-.1.7 0 .1.2-.1.1.2 0 0-.1-.2-.1 0 .1.2-.1.5 0 .7 0 .1 0 .4-.1.3v-.5c.1 0 0-.2.1 0 .1-.3-.1-.2 0-.5l-.1.2c-.1 0-.1-.6-.2-.3 0 .3.3.4.2.7-.1-.1 0-.3-.2-.4v.2l.1.2c-.1.4.2.4.2.7.1-.2.2 0 .3-.1 0 .3 0 .4-.1.4-.1-.4-.2 0-.3-.4 0 .1-.2-.1-.2.1.1.2.1-.1.2.2.1.1 0 .1 0 .3-.1.2.1.2 0 .4.1-.1.1.1.2.2 0-.2.2-.2.2-.6-.1 0-.1 0-.2-.1v.1-.2c0 .2.2.1.2.2v.3c-.1 0-.2.5-.3.7v-.1c-.1-.2-.1.1-.1.1l.1.1s0-.1 0 0c0 .2.2.2.2.4-.1 0-.2-.1-.2 0 0 0-.2.2-.2.4v.2l-.1.2c-.1-.1 0-.3 0-.4h-.1c0-.1 0-.2-.1-.3v.4c-.1 0-.1-.1-.1-.1h.1c.1-.2-.1-.3-.1-.6-.1-.2 0-.5-.1-.7v.1c0-.2-.2-.5-.2-.7v-.1c0-.2-.1-.3-.1-.4v.1s0 .3.1.3c-.1.1 0 .3 0 .4.1-.2.1.1.2.1-.1 0 0 .2-.1.2 0 0 .1-.1 0-.2-.1-.2-.1.3-.2.1.1.3 0 .6.1.9v-.2.2c-.1 0 0 .3-.1.3l.2.3v-.5c.1.1 0 .4 0 .7-.2-.1 0-.4 0-.6 0-.2-.2.1-.2 0V127.4c-.1-.2-.1-.5-.2-.7v-.5.2s0-.2-.1-.2c0 .2-.1 0-.1.1v-.3c0-.1.1 0 .1 0 0-.1.1-.2 0-.4 0 .3-.2-.1-.2-.2-.1-.1-.1-.2 0-.2 0 .1 0 .2.1.2v-.2.1-.3c-.1 0-.2-.1-.3-.2.1-.1 0-.2 0-.3v-.5c0-.1.4.8.3 0 0-.3-.2-.2-.3-.3 0-.1-.1-.1-.1-.2v.2c-.1 0 0-.3-.1-.4.1.1 0-.2.1-.2.1-.2 0-.5-.1-.7.2-.2 0-.3 0-.6v.2c.1.2 0-.3.2 0 0 .1 0 .2.1.2l.1-.2v.1l.1-.3v-1.2c-.3 0-.2-.8-.3-1.1.1.1.2.1.3 0 0 0 .1.2.1.3 0 0-.1.2-.2.1 0 .4.1 0 .3 0 0-.4-.2-.7-.3-1l-.1-.2c0 .2-.2.2-.1 0 .1-.1 0-.4 0-.6l-.1-.1c0-.2.2-.2.3-.3 0-.3-.2-.5-.2-.7.1-.1.1-.5.2-.3-.1-.3-.5-.2-.3-.7l.1.1c0-.5-.2-1.1-.1-1.3.3.2.2-.6.5-.7 0 0-.1-.1-.1-.2v-.2c0 .2-.3-.1-.2.2-.2-.2-.3-.4-.3-.7h.1v.3c.1 0 .1.1.1.2 0-.5.2 0 .2-.5-.1 0 0 0-.1-.2 0 .1.1.1.1 0l-.1-.1c.2-.2.1.3.2.2.1.2.2.6.3.5 0-.4-.3-.3-.2-.7 0-.1-.1-.1-.2-.2l.1-.1c-.2-.2-.2-.4-.3-.5.1.5-.1.5 0 1 0-.1-.1-.5-.2-.5h.1c-.1-.2-.1-.4-.1-.6l.1.1c-.1-.3.1-.5 0-.7v-.3l-.2-.3s0-.2.1-.1c.1-.2-.1-.4-.1-.5.1-.3.1.2.2.2 0-.4 0-.7-.1-.9 0 .1 0 .1-.1.1v-.2h-.1c0-.1.1-.1.1 0 0-.1-.1-.3 0-.4.1.2 0 .5.1.6-.1-.5.2-.5.1-1 0 0 .1.1.1 0 0-.2-.2 0-.3-.1 0 .2 0 .3-.1.4v-.2h-.1c.1 0 .2-.2.2-.3-.1.2-.1.1-.3.2-.2-.2.1-.2 0-.5 0 0 .1.2.1 0s-.1-.1-.1-.2c.1.1.2.1.3.2 0 .3 0 .1.1.4l.1-.3c0 .3.1.2.2.2.1-.4-.2-.3-.2-.5-.1-.1 0 .2-.1 0 0-.2-.1 0-.1-.3v-.2c0-.1-.4.1-.4-.3h.1l.9.4v-1.4c.2-.1.2.3.2.3v.2c-.1 0 0-.5-.2-.2.1.4 0 .6.2 1 .2-.1 0-.5.1-.8v-.5.3c0-.3-.1-.4-.3-.5v-.1l-1.3-.3zm-1-15.4c.1.1 0 .1 0 0zm1.6 20v-1c-.2.5-.4 1-.5 0v.5c.1.2.5.6.5.6.1.1.1 0 0-.1zm-.4.3c0 .2 0 .1.1.2l-.1-.2zm.2.1zm-.2-3.5v-.1.1zm0 .4c0-.1 0-.1 0 0zm-.3 1.2c.1.1.1.3.3.3V108.6c0 .1 0 .1-.1.1.2-.2-.1-.2-.1-.4-.2-.1-.2.2-.1.3zm.9 15.5s-.1 0 0 0l-.2-.1c0-.2.2-.5 0-.7 0-.1.1-.2.2-.2v.1c.3.7-.2.4 0 .9zm.1-2.9s.1 0 0 0c-.2-.5-.3-1-.3-1.3-.1 0-.2.3-.2.5l-.1-.1.1-.1-.1-.2c-.1 0 0 .2-.1.3 0 0 .2.3.2.5l.1-.3v.6s.1-.3 0-.3c.1 0 .1.2.2.1.1.2 0 .5 0 .7h-.1c0 .2.2.1.1.3 0-.2-.2 0-.2-.2 0 .1-.1 0-.1.2.2.2-.1.2 0 .4 0 .1-.1-.1-.1.1.1.2.2.2.3.2 0-.2-.2-.2-.2-.5l.2.4v-.2c0 .1 0 .1.1.2l.1.1v-.4h.1v-.2c0-.2-.1-.4 0-.4v.1-.5zm-.1-7.6c-.2.2-.4.3-.4 1-.1.3.2.6.1 1-.1-.2-.1-.2-.3-.4l.1.2c-.1 0 0 .2 0 .3l-.2-.1v-.3s.2-.3.1-.5c-.1 0 0 .5-.2.3.1.2 0 .2 0 .4-.1-.2-.1 0-.2-.2v.3s-.1-.4-.2-.2c0 .1 0 .4.1.4 0 .2.2.1.1.3 0 0 .1 0 .1-.1s-.1-.1-.1-.2c.1-.1 0 .2.1.1.1 0-.1-.4.1-.3v.2c.1 0 .1.2.2.2 0 .1-.1.2 0 .4.1 0 .2 0 .2.2-.2.2-.1.7-.1.9l.1.2c.1 0 0-.3.1-.2v.3c0 .1 0 .2.1.2-.1-.1 0-.2-.2-.2v.3c0 .2.1.2.2.3.2.2.1-.2.2-.2l.1.7-.1-.1c0 .2-.1 0-.1.3.2 0 .1.3.2.5 0 .1-.1.1-.1-.1-.1 0 0 .2 0 .3 0 0 0 .1.1.2 0-.1.1 0 .2.1 0-.2.1-.7 0-.8.1-.3-.2-.6 0-.8h.1l-.1-.2v-.4c-.1-.2-.2-.3-.2-.4h-.1v-.1c0-.1.1-.2.1-.2v.3c.1 0 .2 0 .2-.2 0 .1.1.1.1 0 0 0 0-.2-.1-.1 0-.3.2-.9 0-1.3.1.3.1-.3.2.1.1-.3-.1-.3-.1-.5 0 0 0 .2.1.2 0-.5-.2-.8-.2-1.2h.1c-.3-.7-.3-.8-.4-.9zm-.1-.9v-.3l-.1-.2c0 .2-.1.3-.2 0h.1c0-.2.1-.5 0-.4.2.3-.2.1-.1.3-.1-.1-.1-.2-.1-.3.1.1.2 0 .2-.2v-.4c-.1 0-.2 0-.2.2v-.3s0 .1.1.1c.1-.1.1-.2.1-.3v-.1l-.1-.1c0 .2 0 .1-.1.1.1 0 0-.1 0-.2l-.1.2c0-.1.1-.2 0-.2v.7l.1-.1c.1.3-.2.2-.1.5.1.1 0 .5.2.5 0 0-.1.2 0 .3.2.1.2.5.2.4 0-.1-.1-.2 0-.3v.2l.1-.1c-.3.1-.2.1 0 0z"/><path d="M154 127.3s0 .2.1.2c-.1 0-.1-.3-.1-.2zm-.2.2c.1 0 .1 0 0 0v-.1.1zm-.6.2c.1.1.1.2.1.3-.2 0 0-.3-.2-.3 0 .3.2.4.2.6 0-.2.1-.6-.1-.6zm-.2-.2v.1-.1zm1.8-3.4c.1 0 0-.1 0-.2v.2zm-1.3-30.6l-.1-1.2c0 .4 0 .7.1 1.2zm.8 26.7c.1.3.2.5.2.8.1-.4-.2-.5-.1-.9l-.1.1zm.5.1c-.1 0-.2-.3-.2-.2 0 .2.1.1.1.3l.1-.1zm-2 1.5zm1.9-3v-.1.1zm-2.2 2.9v.2h.1l-.1-.2zm.7-1.3v0zm1.5-2.5v-.2.2zm-1.9 1.5c-.1.1 0-.2-.1-.1 0 .2 0 .1.1.1zm.6-1.9zm0 0v0zm-.1-.8v.2c.1-.1.1-.2 0-.2zm1.6-2.9c0 .2 0 .3-.1.3 0 .2.1.2.2.3-.1-.3-.1-.4-.1-.6zm-2.4 3.9l-.1-.2v.1l.1.1zm2.4-4.3v.1c.1.1 0-.1 0-.1zm-1.5.9v.2s.1-.1 0-.2zm1.1-1.5s0 .1-.1.1c.1 0 .2.1.1-.1zm-1.1 1.1v.2-.2zm-1.1.6c.1.2.2-.3.3 0 .1-.4-.1 0-.1-.3 0 .3-.1.3-.2.3zm.2-.2zm.5-2.5zm-.6 1.6l.2.3c-.1-.2-.1-.6-.3-.6-.1.1 0 .3.1.3zm2.3-3.2v.1-.1c.1 0 0 0 0 0zm-1.7 2.1v.3c.1-.1.1-.3 0-.3zm1.5-2.8v.2-.2zm.2-.9v-.2.2zm-2.7 1.2c0 .1.1.2.1.2v-.2c-.1.1 0 .1 0 .2l-.1-.2zm2.1-7.7c.1 0 0 .3 0 .3s-.1-.2-.1-.1l.2.2c-.1.3-.2-.2-.3-.3 0 .3.1.4.1.7 0-.1 0-.2.1-.2s.1.3.1.5c0-.1.1 0 .2 0v-.4c-.2.1-.1-.4-.1-.5v-.2l.1.1c0-.1 0-.3-.1-.3v-.6l-.2-2.5v.4c-.1-.2 0 .2-.1.2v-.3c-.1 0-.1.1-.2.1 0 .3.2.4.2.7-.1 0-.2-.1-.1.1.1.3-.2.2.1.5h-.1c.1.1.1.4.1.6.2.5 0 .3.1.8l-.1-.2c0 .2.1.2.1.3 0 0-.1 0-.1-.1l.1.2c0 .2 0 0 0 0zm.2 1.6c0-.1.1.1.1.1v-.4h-.1v.3z"/><path d="M154.5 103.3c-.1 0-.1 0 0 0l-.1.1c0 .1.1.1.1-.1zm-2.3.2v-.2.2zm.1-1v.3c0-.3.1-.2 0-.3zm-.6.2v-.2.2zm1.8-5.5zm.3 1.5c.1-.4.1.3.2.1l-.1-.2v-.3c-.1 0-.1.1-.2.1 0-.4.1-.1.2-.4v-.4l-.1-1.4c-.1-.2-.1.2-.2 0 0 .3 0 .7.1.8h-.1l.1.2V97c.1.2.1.7.1.8 0-.3-.2-.1-.2-.6 0 0-.1.1-.1 0 .1.5.1 1 .3 1.5zm-.4-5.1zm-.1.2l.2.2v-.4h-.1c0 .1 0 .2-.1.2.1.1 0 0 0 0zm.3.5c0-.2-.2-.2-.2-.1-.1-.2.1-.1 0-.2-.1 0 0 .3 0 .3h.2zm.1 1.4zm-.1 0v-.1c-.1 0-.1 0 0 .1zm0-.5V95v.2zm0 .2v-.2.2zm0 .2c.1 0 .2 0 .1-.2h-.1v.2zm-1.9 5.9v-.2.2zm.1-1s-.1 0 0 0c-.1 0-.1 0 0 0zm-.7-.6c.1-.2.1.3.2-.1.1 0 .2.1.2.3-.1 0 0-.2-.1 0 .1.1 0 .1.2.1.1.2.2.2.2.3-.1-.2 0-.7-.1-.9-.2-.1-.3 0-.5 0-.2-.1-.2.3-.1.3zm-.2.3v.2c.1-.1.1-.1 0-.2zm1.4-2s-.1-.2-.1-.1v.3c0-.2.1-.2.1-.2zm-.1.2c0-.1 0-.1 0 0zm1.4-3.8v-.2.2zm-.4-3.9zm-1.7-1.2s0-.2-.1-.3v-.1c.1 0 .1.3.1.4z"/></g><g><path d="M170.9 111h.2c.2-.1.3 0 .3-.2.2-.1.4 0 .2 0l.5-.2h-.3c0-.1.5 0 .5-.2l-.5.1c-.1.1-.4.1-.5.1l.1-.1c-.7.1-.1.2-.7.4h.2zm-.6-.2l-.2.2h-.4s-.3.1-.1.2h.2c0 .1-.5.1-.4.2.3-.1.4 0 .5-.2h.6c.1 0 .1-.1.2-.1h-.1v-.2c-.1 0-.2 0-.2.1l.4-.3c-.2-.1-.6 0-.8 0 .2.1-.2.1.3.1zm-7.3-9.3c.1 0 .1 0 .1-.1l-1.1.1s.4.1.2.1c.1 0 .4 0 .4-.1l-.1.1c.2-.1.4 0 .3.1 0 0 .2-.1.3-.2.2-.1.3-.2.3-.2-.1 0 0 .1-.4.2zm10.2 8.2v-.2.2zm-9.5-8.5l.2-.1c-.1 0-.1 0-.2.1zm-1.4 1.8zm6.3-2.9zm-9.4 3.6l.5-.1c-.1 0 .2 0 .1.1h.2-.1c.2-.2.1-.2.5-.3-.3-.1-.4 0-.5.1h-.1l-.4.2h-.2zm14.8-.9s0-.1 0 0zm-10.4-1.5c0-.1.1-.1 0 0z"/><path d="M163.3 101.6h-.4l-.2.1c.2.1.3 0 .6-.1zm4.7-1.5c.8-.2-.2.2.2.2.2 0 .3-.2.4-.2-.7.2 0-.3-.6-.1.1-.2.5-.2.7-.2.3.1-.2.2-.2.3.2-.1.2-.1.3-.2.4 0 .8-.3 1.1-.2.3-.1.2-.2.4-.3 0-.2-.5 0-.6-.1h.1-.2c.2 0 0 .2-.1.2s-.3.1-.3 0h.1c-.2 0-.4.2-.6.2l.1-.1c-.2.2-.4.2-.8.3l.2-.2c-.3.2-.8.3-1.3.2h.1c-.2.1-.5 0-.3-.1-.2.2-.9 0-1.2.2 0 0-.4.2-.7.5-.4.2-.7.5-.7.5h.2c.2.1.2.1 0 .3.2-.1.1-.2.5-.2-.1.1-.2.2.2.2.8-.3 1.4-.7 2.1-1 0 .1.7 0 1 0-.1.1-.3.2-.5.3.2 0 .4 0 .6-.1l-.2-.4zm-.8.4zm-3.4 1s-.1 0-.1.1c.1 0 .1-.1.1-.1.1 0 .1 0 0 0zm-.1-.2c-.1 0-.1 0 0 0zm7.6-.9c.1-.1 0 0 0 0z"/><path d="M168.9 100.1c-.3.1 0 .2-.4.2h.1c-.3.1-.8.2-1.2.3 0-.1-.2 0-.2-.1-.3 0-.5.1-.6.2-.2 0-.4.1-.6.1.1 0-.2.2.2.1.3 0 .4-.1.7-.2.2 0-.3.1-.1.1.3-.1 1-.1 1-.3h.3c.3-.3 1.4-.2 1.3-.5-.1 0-.3.1-.5.2v-.1zm-4.6 1.4c.1-.1.1-.1 0 0zm-3.8-.6l.1-.2c.7-.1 1 0 1.6-.1.4 0 1.1 0 1.4-.2.1 0 .5 0 .4.1h.2c0 .1-.2 0-.2.1h.1c-.1.1.1.2-.3.2-.2-.1.3 0 .2-.2-.2 0-.1.1-.1.1-.2 0-.2 0-.2-.1-.1 0-.3 0-.4.1-.4 0 0-.1-.3-.1l-.1.2h-.4c-.6.1.1.3-.6.5.1-.1-.2-.2-.5-.2.2 0 .5-.2.8-.1-.4-.1.5 0 .3-.2-.2.1-.5.1-.7.1h.1c-.2 0-.4.2-.8.1-.2 0-.1 0-.1-.1h-.5zm.4-.1h.2-.2zm-5.4 3.6v0zm.7 2.9v.2c.1-.1.1-.1 0-.2zm9.4 4.2zm-9.2.1zm-.9-8zm2.4-.2h.2-.2zm10.8 8h.2-.2zm-10.3.5s.2 0 .1.1c.1 0 .1-.1-.1-.1zm9.2 1zm.1-.1s.1 0 0 0zm-10.5.6zM169 111.4s.7-.2.1-.2c0-.1.3-.1.5-.2-.1 0 0-.1 0-.1-.1 0-.2.1-.3.1-.1 0 .1-.1.2-.1-.2 0 .2-.1 0-.2-.5.1-.9.2-1.2.5.3-.1.6-.2.9-.2l-.1.1c-.3 0-.5 0-.8.1h.7c.3.1.2.1 0 .2-.1-.1 0-.1 0 0zm-.3 1c.1 0 .1 0 0 0zm-10.8-11.3zm-1.4 0s0-.1 0 0zm-2.4 5.8s0-.1 0 0c.1-.1 0-.1 0 0zm.1-1.4zm3.9 5.9h-.1.1zm-1.6-10.4s.1 0 0 0zm-1.7 7.9zm-.1.7c0-.1 0-.1 0 0 0 .2 0 .7.1.7 0-.1 0-.5.1-.5v-.5c0 .3-.1 0-.2-.2 0-.2.1 0 .1-.1v-.4.3l-.1-.1c.2.7 0 .2 0 .8zM154.7 109.5zm0 2.7v0zm7.7-10.4s-.4-.1-.3 0h.3zm-1.4 10.7h-.2.2zm-6-2.6v-.1.1zm6 2.8s.1 0 .1.1c.1 0 .2 0 .3-.1h-.4z"/><path d="M162.6 101.8h.5c.2-.1.6-.2.8-.3.2 0 .4-.1.5-.1-.1 0-.3 0-.2.1.2 0 .4.2.8 0h-.2l.6-.2c.2 0-.3.1-.3.2.5-.2.8.1 1-.1 0 .1.1.2.4.2-.2-.1.2-.1 0-.2.1-.1.3 0 .3-.1.5.1.7-.2.9-.3.6-.2.9-.1 1.4-.3 0 .1.2.2.4.2.1-.1.5-.2.5-.4-.4 0-.3.2-.5.2-.2-.1 0-.1-.3-.1.2 0 .9-.2 1.1-.2h-.1c.3 0 .5.2 1 0l.2-.1c.5-.1.4.1.8-.2.2 0 .3 0 .4-.1.1-.1.3-.1.4-.2.2 0 0 .1-.1.2.3 0 .5-.2.8-.3.2-.1.5-.3.8-.5h.3c-.3.1-.6.3-.5.4.2-.1.2-.1.5-.2-.1.1-.2.2-.4.3.4 0 .3-.3.5-.2.1 0 .3-.2.5-.3h.2l.2-.2v.4s.2-.3.2-.4c.1-.1.1.2 0 .3-.1.2-.2.4-.2.7 0 .2-.1.5-.2.5 0 .4-.1.8-.2 1.3v1.1c-.1.1-.2.5-.2.2-.1.6 0 .9-.2 1.5v-.3c0 .4-.2.7-.3 1.2v-.2V105.6c-.4 1.1-.3 2-.6 3.1.1-.3 0-.5-.1-.5l-.1.3v.6s-.1.1-.1 0c-.3.6 0 1-.3 1.8v-1l-.2.2v-.4c-.1.2 0 .5-.1.5v-.2c-.1.2 0 .2 0 .4-.1-.5.1-1.4.2-1.9v.1c0-.2.1-.3.2-.5 0-.2-.1.1-.1.2-.1 0 0-.1 0-.3.1 0 .2-.7.4-.9.1-.7-.3 0-.1-.6l.2-.2c0-.4 0-1 .2-1.5v.1c0 .1.1 0 .1-.1.1-.3.1-.7.2-.9 0-.4 0-1.1.1-1.6.2-.1 0 .6 0 .8l.1-.4v.5c.1-.4 0-.5 0-.9 0 0 .1 0 .1-.2l-.1-.1v-.1-.3-.2c-.1.1-.2 0-.2.2.1 0 0 .1 0 .3 0-.2-.1.1-.1.1l.1-.5v-.2h.1c.1-.2 0-.4.1-.5.1-.2.1-.4.2-.8 0 0 0-.1-.1-.1h-.1c-.1.1-.2.1-.3.2-.1.1-.2.1-.2.1s-.2 0-.4.2c0 0 .2-.1.2-.2-.1 0-.3.2-.3.1.3 0 0-.1.2-.2-.2 0-.3.1-.4.2.2-.1-.1.2.1.1-.1.1-.2.2-.3.2h-.1-.3s-.1-.1-.2 0l-.1.1c-.2 0 .3-.2 0-.1-.3.2-1.2.2-1.3.5-.3 0 .5-.2.1-.2.2-.1.6-.1.7-.3-.2.1-.1-.1-.3 0l-.2.1h.1c-.5.2-1.2.3-1.8.5-.5.2-.8.5-1.4.5.2-.1-.5 0-.2-.2-.3 0-.6.1-.5.2h.3c-.1.1-.5.1-.6.1.1 0 0 0 0 0-.3 0-.1.1-.3.1-.1-.1-.5 0-.7 0l-.3.2c.2-.1-.3 0-.3-.1-.2.1-.4.2-.7.2.1 0-.3 0-.3-.1-.5 0-.9.3-1.4.3 0 0 .1-.1 0-.1h-.5-.1c-.2.1-.3.2-.8.3 0 .1.4 0 .5 0l.1-.1c.1.1.4 0 .5 0-.2.2-1 .2-1.4.3.3.1.9.1 1.4.1h-.2.2l-.2-.1h.7c-.2 0-.4-.1-.2-.1.3.1.3-.1.5-.1h-.2c.5.1.6 0 1 .1-.1-.2.5-.1.5-.2h-.2l.4-.1c.4.1-.3.2.3.2.5 0 .5-.2.9-.3-.1.1-.4.3-.8.3h.2c-.1.1-.5.1-.8.1.4-.2-.2 0-.4-.1 0 .1.2 0 0 .2h.7c-.8 0-.6.4-1.3.4.3-.1-.1-.1-.2-.2-.1 0-.4.1-.5.1l.1.1c-.4.1-.5-.2-1 0 0 .1.4 0 .3 0-.6.1-.8-.1-1.4-.2 0 0 0 .1-.2.2 0-.1-.1-.1.1-.2-.2 0-.4 0-.5.1.4 0-.2.1-.2.2-.2 0 0-.1.2-.1-.2 0-.3-.1-.4 0 0-.1.4-.2.7-.3h-.2.3c-.2 0-.2-.1-.1-.2h.3c.1-.1-.2-.1-.3-.1h-.3l-.4.2-.4.2c-.3 0-.5 0-.8-.1l-.1.1c-.3 0-.6 0-.4-.2h.1c-.3 0-.5.1-.5.1.5-.2 0-.2.1-.4h-.5c.3 0 0 .1-.1.1 0-.1-.4 0-.6 0h-.6s-.1.2-.1.3c.1 0 0 .1.1.1v.1h.2c.2 0 .3-.1.4-.1-.1-.1-.2 0-.3 0 .2-.1.5-.1.8-.1l.1.1h.3c-.1 0 0 .1-.4.2 0 .1.3 0 .6 0l.1-.1c0 .1.4.1.1.2l-.5.1.2.1h-.5.1c-.7.1-.2-.2-1-.1-.3.1-.2.2-.3.1v-.2c-.1 0 0 0 0 .1 0-.1-.1-.1 0-.1-.1-.2 0 0-.2-.1 0 0-.1 0 0 .1 0 .1.1.1.2.2s.2.1.1.1h-.1v1.3l-.1.5c0-.1-.2-.4-.2-.2.2-.3.1-.5.2-.8l-.1.1v-.5s0 .2-.1.1l.1-.3v-.1h-.1s-.1 0-.1-.1c.1 0 .2.1.2.1-.1 0 0 0-.1-.2-.1 0-.1-.1-.2-.3v.3s-.2-.2-.2-.3c-.1-.1-.2-.1-.4-.2.2.2 0 .3.1.6.1 0 .1-.1.1-.2l.1.2v.6c0-.2-.1-.2-.1-.3v.3c.1 0 .2 0 .2.1 0 .5-.1.9-.2 1.1v.1c.1-.1.2.4.3.5-.1 0 0 .3-.1.5.1.1.3 0 .4-.3-.1-.4-.1-.2-.3-.4l-.1-.6.1.1c0-.3-.1-.6 0-.6.1.2 0 .4.2.6v-.2c.2.3-.1.2 0 .6.1-.2 0 0 .1.2.1-.2-.1-.8.1-.6.1.2-.2.8 0 1 0 .4.1.6.2.8 0 .2 0 .4.1.6v.3c-.1-.1 0-.3 0-.6h-.1c.1-.3-.1-.5-.2-.7.1.3 0 .9.2 1l-.1.2v.1c-.1.2-.2 0-.2-.2 0 0 0-.1 0 0 0-.1-.1-.2-.1-.5l.1.2c0-.4-.1-.7-.2-.9v1.6c.2.1.4.3.6.4 0 .3.1.8 0 1.1v.4c0 .2-.1-.1-.1 0l.1.5c-.1 0-.1-.5-.1-.7v.1c0-.2-.2-.7 0-.8 0-.1.1.2.1-.2 0-.2-.1-.3-.1-.4 0 0 0 .4-.1.3 0 .2.1.3 0 .5 0-.2-.1-.5-.1-.6-.1-.4-.4-.3-.4-.1.1 0 .1.7.2.2.1.2.1.7.2 1v.4s0-.2-.1-.2l.2.5c0-.1-.1-.1-.1 0v.2h.2v-.1s0 .1.1.1h.2c0 .1-.2 0-.1.1l.1-.1s0 .1-.1.2c0 0 .1.1.1 0-.1.1-.2.2-.2.3h-.3H156.8c0-.1 0-.1-.1 0-.1 0-.1 0 0-.1 0-.1 0-.1-.1-.1 0 0-.1 0 0-.1h-.2c-.1 0-.1.1 0 .2v.4h.1c.2-.1 0 .1.1.1h.2l.1.1v-.1c.1 0 .1.1.2 0v-.1h-.2c.1 0 0-.1.1-.1-.1.1 0 0 .2.2H157.8c-.2-.1-.4-.1-.6-.1.2 0 .6-.1.7-.1h.5c-.4 0 .1.3-.6.2h.1c-.1-.1-.5 0-.6 0 0 .1-.1.1.2.2-.1 0 .2-.2.5-.1v.2h.4c.2.1.5 0 .7 0 .2-.1 1 0 .7-.2.2.1.5 0 .8-.1h-.4c.4-.1.3 0 .6-.2 0 0 .1.1 0 .1.5 0 1.3 0 1.6-.2.4 0 .5.2 1 .1.1 0-.1-.2.3-.1 0 0-.3.2 0 .1.3-.2.7 0 1-.1.2 0 .5 0 .5.1-.3 0-.8 0-.8.1 0-.1-.2 0 0-.1-.5 0-.3.1-.7 0 0 0 .2.1.3 0 0 .1-.8.1-.4.2.5 0 .5-.3 1-.2-.2.1-.4 0-.6.2h.3l.2-.1c.6.1.5-.2 1-.3-.3-.1 0-.2-.2-.3.3 0 .6 0 .6.1-.6.2 0 .2-.6.3.1 0-.1.2.2.2.4-.1-.1-.1.2-.2.2-.1.2 0 .4-.1.3 0 .3-.1.5 0-.1-.1.1-.1.3-.2-.2 0-.4-.2-.8-.1 0 .1 0 .1-.2.2h.3c-.1 0-.1 0-.2.1h-.3c.4-.1.2-.2.3-.3h.5c0 .1.7.1 1 .2h-.5c-.2.1.2.1.2.1l.2-.1s-.1 0 0 0c.2 0 .2-.2.5-.3 0 .1-.2.2 0 .2.1 0 .3.2.6.1 0 0 .1 0 .2-.1h.2c-.2.2-.4 0-.6.2v.1c-.2 0-.4.1-.5.2.2 0 .3 0 .6-.1 0 .1-.1.1-.2.2v-.1c-.3 0-.5.2-.9.2-.1 0 0 0 0 0-.3.1-.7 0-1 .2l.1-.1c-.2.1-.6.2-1 .4h-.2c-.2.1-.4.1-.6.2h.2c.1 0 .5 0 .4-.2.2 0 .5-.1.6 0-.2 0 .2-.1.2-.2.1.1.4 0 .3 0h-.2c-.2.1.5 0 .2.2.4-.1 1-.1 1.3-.3h-.2c.2 0 .6-.1.7 0-.1 0-.3 0-.5.1 0 .1.4 0 .5 0l.5-.2h-.2c.1-.1.6-.1 1-.1-.2.2-.5.1-.9.2-.2.1.2.1-.1.2h.4c-.2.2-.7.2-1 .4-.2 0-.5 0-.8.1h.3s-.2.1-.3.1c.2 0 0 .1.2.1h-.5c-.1 0 .1-.1 0-.1-.2 0-.3-.1-.6 0 .4 0-.1.2-.2.2h.1c-.1.1-.2.1-.3 0 .2 0 .3 0 .3-.1h-.3l.1-.1-.5.1c-.1.1-.2.2-.2.3h-.4c-.2 0-.7 0-.8.1-.2 0 1.1-.5 0-.3-.4 0-.2.2-.5.3-.2 0-.2.1-.4.1h.3c0 .1-.4 0-.5.1.2-.1-.4 0-.2-.1-.4-.1-.8 0-1 .2-.3-.2-.5 0-.9 0h.3c.2-.1-.4 0-.1-.2h.1c.1 0 .2-.1.2-.1l-.3-.1h.1l-.5-.1h-1.8c-.1.3-1.3.1-1.7.3.1-.1.2-.2.1-.3.1 0 .3-.1.5-.1 0 0 .3.1.1.2.6 0-.1-.1.1-.2-.3 0-.6.1-.8.1-.1 0-.2 0-.3.1h-.9c.4 0 .3.2-.2.1h.1c-.2-.1-.9 0-1.3 0l-.4.1v-.3c0-.1 0-.2.1-.2 0-.1.1-.2.2-.3 0-.6-.2-1-.3-1.5v-.3-.2c0-.1 0-.2.1 0-.1-.4-.5-.3-.3-1l.1.2c0-.7-.3-1.6-.2-1.9.3.2.2-.8.5-1l-.1-.2v-.2c0 .2-.3-.2-.2.3-.2-.3-.3-.5-.4-1.1h.1v.5c.1 0 .1.2.1.2 0-.8.2.1.2-.8-.1-.1 0 0-.1-.2 0 .1.1.1.1 0l-.1-.2c.2-.3.1.5.2.2.1.3.2.9.3.8 0-.5-.3-.5-.2-1 0-.2-.2-.2-.2-.3v-.2c-.1-.2-.1-.3-.2-.4 0-.1 0-.1-.1-.2 0-.1-.1-.1-.1-.3v1.6c0-.1-.1-.7-.2-.8h.1c0-.1-.1-.2-.1-.4V103.6l.1.3v-.9c0-.3 0-.5-.1-.8v.5c-.1-.4-.1-.8-.1-1.2 0 0 0-.2-.1-.5v-.1h.2s.6.1.4.2c.6.1.8 0 1.2-.1.7.1-.5 0-.5.2h2c-.1 0-.2 0-.2-.1h.3l.1-.1c.2 0 .2.1 0 .1.2 0 .4-.1.6 0-.3.1-.7 0-.9 0 .7-.1.7.2 1.5.1 0 0-.1.1 0 .1.4 0 .1-.2.2-.2-.3 0-.4 0-.6-.1h.1s.2 0 .2.1v-.1c0 .1.2.2.5.2-.2-.1-.2-.1-.2-.3.3-.2.4.1.7 0 0 0-.3.1-.1.1.2 0 .2-.1.3-.1-.2.1-.1.2-.3.3h-.5l.3.1c-.3 0-.3.1-.3.2.6.1.4-.2.8-.2.2-.1-.3 0-.1-.1.3 0 .1-.1.5-.1h-.1c.1.1.2 0 .4 0s-.2-.4.4-.4v.1l-.6 1h2.1c.2.2-.5.2-.5.2h-.3c0-.1.7 0 .4-.2-.6.1-.9 0-1.4.2.2.2.7-.1 1.1 0h-.4H161.6h-.5c.3 0 .6-.1.7-.2H162.6zm10.6 7.2zm-17.3-6.6H157.2c-.8-.3-1.4-.5 0-.5h.1-.8c-.1 0-.4.1-.5.2-.2.1-.3.2-.3.2.1.1.2 0 .3 0l-.1.1zm-.6-.5c-.3 0-.2 0-.2.1l.2-.1c.1.1 0 .1 0 0zm-.1.1zm5.2.1s-.1 0 0 0h.2-.2zm-.6-.1l.1.1s0-.1-.1-.1zm-1.7-.2c-.1.1-.5.1-.5.3h.4c-.1 0-.2 0-.1-.1.3.2.3-.1.5-.1.2-.2-.2-.2-.3-.1zm5.8 10.7l-.1.2c-.4 0-.7-.2-1 0-.2 0-.2-.1-.3-.2h.2c.8-.2.4.3 1.2 0zm-4.3 0c-.8.2-1.5.3-1.9.3.1.1.5.2.7.2l-.2.1-.1-.1-.3.1c.1.1.3 0 .5.1 0 0 .5-.2.7-.2l-.4-.1h.9s-.4-.1-.4 0c0-.1.4-.1.1-.2.3-.1.8 0 1.1 0v.1c.2 0 .2-.2.5-.1-.4 0 .1.2-.2.2.1 0 0 .1.3.1.2-.2.3.1.5-.1.2 0-.2.1.2.1.4-.1.3-.2.3-.3-.3 0-.4.2-.7.2l.5-.2h-.2c.1 0 .2 0 .3-.1 0 0 .1 0 .1-.1h-.6v-.1h-.4c-.3 0-.5.1-.6 0h.1c-.4.1-.4.1-.8.1zM155 106c-.2.2-.4.5-.3 1.4v-.1c-.1.5.2.9.1 1.5-.1-.3-.1-.2-.3-.6l.1.3c-.1-.1 0 .2 0 .5l-.2-.2v-.5c0 .1.2-.5.1-.7-.1 0 0 .7-.2.4.1.3 0 .3 0 .5-.1-.2-.1 0-.2-.2v.4s-.1-.6-.2-.2c0 .2 0 .6.1.6 0 .3.2.1.1.5 0 0 .1-.1.1-.2s-.1-.1-.1-.4c.1-.1 0 .3.1.1.1-.1-.1-.6.1-.5v.3c.1 0 .1.2.2.2 0 .2-.1.4 0 .6.1.1.2-.1.2.3-.1.1-.1.4-.1.6v.7l.1.3c.1 0 0-.5 0-.4v.4c0 .2 0 .3.1.4-.1-.1-.1-.4-.2-.3v.5s0-.1 0 0c0 .5.2.3.2.4.2.3.1-.5.2-.5v.6h.4c-.1 0-.3.1-.3.1.3 0 0 .1.3.1 0-.2.5-.1.8-.2.1.1.1.1-.1.1 0 .1.4.1.5.1h.3c-.1 0 0-.1.2-.2-.2 0-.4 0-.6-.1h-.5.1H155.2s-.1 0-.1-.1c.1 0 0-.1.1-.2l-.1-.2v-.4c-.1-.2-.2-.3-.3-.5l-.1-.1v-.2c0-.1.1-.2.1-.4v.5c.1 0 .2 0 .2-.2 0 .1.1.1.1 0 0 0-.1-.3-.1-.2 0-.5.1-1.2-.1-2 .1.5.1-.4.2.2.1-.4-.2-.3-.2-.7 0 0 0 .2.1.3 0-.7-.3-1.2-.2-1.8h.1c.2-.3.1-.5.1-.6zm-.2-1.3v-.4l-.1-.4c0 .3-.1.4-.2.1 0 0 .1-.1.1 0 0-.2.1-.7-.1-.6.2.5-.2.1-.1.5-.1-.2-.1-.4-.1-.6.1.2.2 0 .2-.3 0-.1 0-.4-.1-.7-.1 0-.2-.3-.2.1 0-.1-.1-.4 0-.5 0 .1 0 .2.1.3 0 0 0-.1.1-.1v-.1H154.6l.2-.1c-.3 0-.2 0-.3-.1.1.1.2 0 .3 0l-.3-.2c.1 0 .5.1.4 0-.5 0-1-.2-.8.4v-.1c.1.6-.1.2-.1.9.1.3 0 1 .2 1 0 0-.1.3 0 .5.2.2.2.8.3.6 0-.2-.1-.4 0-.5v.3l.1-.2c0 .2.1.2.2.2z"/><path d="M168.5 111.7c.1 0 .3-.1.2-.2.1.1-.3.1-.2.2zm.3.1c0-.1 0-.1 0 0h-.2.2zm.4.5c.1-.1.2-.1.5-.2.1.2-.4.1-.4.3.4 0 .5-.2.8-.3-.3 0-.9 0-.9.2zm-.2.3l.2-.1-.2.1zm-5.1-1.3c0-.1-.2 0-.2 0h.2zm9.1-7.6l-.3 1.7c.1-.5.2-1 .3-1.7zm-14.8 8.2c.5 0 .7-.2 1.1-.2-.6-.1-.8.2-1.3.1l.2.1zm.1-.5c.1.1-.4.2-.3.2.3 0 .1-.1.4-.1l-.1-.1zm2.2 2.1l-.2.1.2-.1zm-4-2zm3.8 2.3H160.6h-.3zm-1.9-.7h.2c-.1-.1-.3-.1-.2 0zm-1.5.3c.1.1-.4 0-.1.1.2 0 .2 0 .1-.1zm-2-1.7zm0 0v.3c.1-.1.1-.2 0-.3zm-.1-1.2v.1c.1 0 .1-.1 0-.1zm1.4-4.3c0 .3 0 .4-.1.4 0 .3.1.2.2.5 0-.4 0-.5-.1-.9zm-2.1 6.2l-.2-.3v.1l.2.2zm2.2-6.7v0zm-1.4 1.3v.3c-.1-.1.1-.1 0-.3zm1-2.3c0 .1 0 .2-.1.1 0 .1.2.2.1-.1zm-1.1 1.7v.3-.3zm-1 .9c.1.2.2-.4.3 0 .1-.6-.1 0-.1-.4-.1.3-.2.4-.2.4zm.1-.3v-.1.1zm.4-3.8v0zm-.5 2.4l.2.4c-.1-.3-.1-.9-.2-.9-.1.2 0 .5 0 .5 0 .1 0 0 0 0zm2.4-1.9c.1 0 0-.1 0 0zm-1.8.3v.3c.1 0 .1-.3 0-.3zm2.2-.5h-.3.3zm1.4.2h.3-.3zm-1.8-2.7c-.3 0-.5.1-.5.1h.6c-.2-.1-.2 0-.5 0l.4-.1zm11.5 1.8c-.1.1-.5.1-.5 0 0 0 .2-.1.1-.1l-.3.2c-.5 0 .3-.3.5-.4-.4 0-.5.2-1 .2h.3c0 .1-.4.1-.7.2.2 0 .1.1 0 .2.3-.1.5 0 .6 0-.2-.2.5-.1.8-.2H167.8l-.1.1c.1 0 .5-.1.5-.2l.9-.2h.1s.3 0 .6-.1c.4-.1.8-.2 1.3-.3 1-.2 1.9-.5 1.9-.5h-.5c.2-.2-.3 0-.2-.1.1-.1.3-.1.4-.1 0-.1-.2-.1-.2-.2-.5 0-.5.3-1 .4 0-.1.1-.2-.2-.1h.1c-.5.2-.4-.1-.7.2v-.1c-.2.1-.6.2-.9.3-.7.2-.4.1-1.1.3l.3-.2c-.3 0-.3.1-.5.2 0 0 0-.1.1-.1l-.9.3c-.3.3 0 .2 0 .3zm-1.2 0h-.2.2zm6.4-1c0 .1 0 0 0 0zm-7.7 1.4c.2 0-.1.1-.1.1l.6-.1v-.1l-.5.1zm.6.1l.1-.1h-.3c.1.1.1.1.2.1zm-.3-2.2l.2-.1-.2.1zm1.6-.1h-.4c.2.1.1.1.4 0zm-.4-.6l.3-.1-.3.1zm6.8.8z"/><path d="M172.8 101.5c0 .1 0 .1 0 0-.1.2-.3.2-.2.3l.2-.1h.1c0-.1-.1-.1-.1-.2.2 0 .1.1.1.2h.1l.2-.1v.1s.2-.2.3-.2v-.2c-.1 0-.1.1-.2.2l.1-.1-.1.1-.1.1c-.2.2-.3.2-.3.1.1-.1.2-.2.3-.2 0 0 0-.1.1-.2 0 0-.3 0-.5.2zm.4 1.8v-.4l-.1.5.1.1v-.2zm0-.8c0 .3.1.3.2.2 0 .3-.2.1-.1.3.1 0 .1-.3.1-.4l-.2-.1zm.3-.8zm0 0zm-.1.2c0 .1 0 .1 0 0zm.1-.1c-.1.1 0 .1 0 0zm0 0c-.1 0-.2.1-.2.2l.2-.2zm-5-1.6l.2-.1-.2.1zm1.3-.1s.1 0 .1-.1c-.1 0-.1 0-.1.1zm.8-.8c.3 0-.3.2.2.1 0 .1-.1.2-.4.3 0-.1.2-.1 0-.1-.1.1-.2.1-.1.2-.2.1-.2.2-.4.3.3-.1 1-.1 1.3-.4.2-.2 0-.3 0-.5-.1-.1-.6 0-.6.1zm-.5-.1c-.1 0-.2 0-.2.1.1 0 .1-.1.2-.1zm3.2.7s.3-.2.2-.2l-.4.2h.2zm-.3.1l.2-.1c-.1 0-.1 0-.2.1zm.3-.1s0 .1 0 0zm0 2.2v0zm-1.1 5.6l-.1.1c.1 0 .1 0 .1-.1zm1 2.3s0 .1 0 0c0 .1 0 0 0 0zm0 .1c0 .1-.1.4-.1.5v.2c0-.2.1-.6.1-.7z"/></g><g><path d="M174.2 97h.2c.3-.2.3-.1.3-.2.2-.1.4-.1.2 0l.5-.3-.3.1c0-.2.5-.1.6-.3l-.6.2c-.1.1-.4.1-.5.2l.1-.1c-.7.2-.1.3-.7.5.1-.1.1-.1.2-.1z"/><path d="M173.5 96.8l-.2.2-.4.1s-.3.2-.1.2c0 0 .1 0 .2-.1 0 .1-.5.2-.4.3.3-.1.4-.1.6-.2.3-.1.5-.1.7-.1.1 0 .1-.1.2-.2h-.1v-.2c-.1 0-.2.1-.3.1l.4-.3c-.2-.1-.7.1-.9.1.3.1-.2.1.3.1zm-10.9-7.2c.1 0 .1 0 .2-.1 0 0-.3 0-.6.1h-.6s.4.1.2.1c.1 0 .4 0 .5-.1l-.1.1c.3-.1.5 0 .3.1l.8-.4c-.4 0-.3.1-.7.2zm14.1 5.7v-.2.2zm-13.4-6l.2-.1s-.1 0-.2.1zm-1.5 1.8s0 .1 0 0h0zm6.9-3c.1 0 .1 0 0 0 .1 0 .1 0 0 0zM158.5 92l.5-.1c-.1 0 .2 0 .1.1 0 0 .2 0 .2-.1h-.1c.3-.2.1-.2.6-.3-.3-.1-.4 0-.6.1h-.1l-.5.2-.1.1zm19-3.8zm0 0zm-14.3 1.2s.1-.1 0 0z"/><path d="M162.9 89.7l-.5.1-.2.1c.2 0 .4-.1.7-.2zm5.1-1.6c.9-.2-.2.2.2.2.3-.1.3-.2.5-.2-.7.2 0-.3-.7-.1.1-.2.5-.2.8-.2.3.1-.2.2-.3.3.3-.1.3-.1.3-.2.5 0 .9-.4 1.2-.2.3-.1.3-.2.5-.3 0-.2-.5 0-.7-.1h.1-.3c.3 0 0 .2-.2.2-.1 0-.3.1-.3 0l.2-.1c-.2 0-.4.2-.7.2 0 0 0-.1.1-.1-.2.2-.5.2-.8.3l.2-.2c-.2.2-.9.3-1.4.3h.1c-.2.1-.5 0-.4-.1-.2.2-1 0-1.4.2 0 0-.4.2-.8.5s-.8.5-.8.5.1 0 .2-.1c.2.1.2.1 0 .3.2-.1.1-.2.5-.3-.2.1-.2.3.2.2.9-.2 1.5-.7 2.3-1 .3.2 1 .1 1.4 0-.2.2-.4.3-.7.3.2 0 .5-.1.7-.1v-.2zM165.9 88.8c.1 0 0 0 0 0zm1.3-.3zm-3.7 1.1s-.1 0-.2.1c.1 0 .1 0 .2-.1zm-.2-.1c-.1-.1-.1 0 0 0zm8.4-1.2z"/><path d="M169.1 88.1c-.3.1 0 .2-.5.2h.1c-.3.1-.9.2-1.3.2 0-.1-.2 0-.2-.1-.2.1-.5.1-.7.3-.2 0-.4.1-.6.1.1 0-.3.2.2.1.3 0 .5-.1.8-.2.2 0-.2.1-.1.1.3-.1 1.1-.1 1.1-.3h.4c.4-.3 1.5-.2 1.5-.5-.1 0-.4.1-.6.2l-.1-.1zm-5.1 1.4zm-4.2-.4l.1-.2c.8-.1 1-.1 1.8-.1h-.1c.5 0 1.2-.1 1.5-.2.2 0 .5 0 .4.1h.3c0 .1-.2 0-.2.1h.1c-.1.1.1.2-.4.3-.2-.1.4 0 .2-.2-.2 0-.2.1-.2.1-.2 0-.2 0-.2-.1-.1.1-.4 0-.5.1-.4 0 0-.1-.3-.1l-.1.2h-.5c-.7.1.1.3-.7.5.1-.1-.2-.2-.6-.2.2 0 .6-.2.9-.1-.4-.1.5 0 .3-.2-.2.1-.5.1-.8.1h.1c-.3 0-.5.2-.8.2-.2 0-.2 0-.1-.1 0-.2-.2-.2-.2-.2zm.4-.1h0zm9.9 8.7zm-14.4-.9v0zm12.7 1.2zm-10.6 1h0zm-2.2-2.2zm-.3-4.6c-.1 0 0 0 0 0zm-.5.2c0-.1 0-.1 0 0-.1-.2 0 0 0 0zm2.2-.7h.2-.2zm14.5 6.2c-.1 0-.1 0 0 0zm.3-.3h.2c0-.1-.1-.1-.2 0zm-11.2 1.5s.2 0 .1.1c.1-.1.1-.2-.1-.1zm10.1.1zm.1-.1c.1 0 .1 0 0 0 .1 0 .1 0 0 0zm-11.4 1.5c-.1.1 0 .1 0 0zm12.8-3.1s.7-.3.1-.2c0-.1.4-.2.5-.3-.1 0 0-.1 0-.1-.1 0-.2.1-.3.1-.1 0 .1-.1.3-.2-.2 0 .2-.2-.1-.1-.6.2-1 .3-1.3.6.3-.1.7-.2 1-.2l-.1.1c-.3 0-.5.1-.8.2l.7-.1c.3 0 .1.1 0 .2zm-.3 1.1c.1 0 .1 0 0 0zm-15-9.2zm-1.6.1zm-1.8 6.9s0-.1 0 0c0-.1 0-.1 0 0zm.1-1.5zm6.6 3.7h-.2.2zm-4.9-9.1h.1c0-.1-.1 0-.1 0zm-1.1 9.1zm0 .8c0 .3 0 .8.1.8 0-.1 0-.7.1-.6V99c0 .3-.1.1-.2-.1 0-.2.1 0 .1-.2v-.4.4l-.1-.1c.1.7-.1.1 0 .8zm0 0c0-.1-.1-.1 0 0-.1-.1 0 0 0 0zm2 1.1h0zm5.7-10.5s-.4-.1-.4 0h.4zm1.6 9.4h-.2c.1.1.2.1.2 0zm-9 .3c0-.1 0-.1 0 0 0-.1 0-.1 0 0zm9-.1s.1 0 .2.1c.1 0 .2-.1.3-.1-.2.1-.3.1-.5 0z"/><path d="M162.2 90h.5c.2-.1.7-.2.8-.3.2 0 .4-.1.6-.1-.1 0-.3 0-.2.1.3 0 .5.2.9 0h-.3s.2-.1.3-.1c.2-.1.3-.1.3-.1.2 0-.3.1-.4.2.5-.2 1 0 1.2-.2 0 .1.1.2.5.2-.3-.1.2-.1 0-.2.1-.1.4 0 .4-.1.6.1.7-.2 1-.3.7-.2 1-.1 1.5-.2 0 .1.2.2.4.2.1-.1.6-.3.6-.4-.4 0-.3.2-.5.2-.2-.1 0-.1-.3-.1.2 0 1-.2 1.2-.2h-.1c.4 0 .5.2 1.1 0l.3-.1c.5-.1.4.1.9-.2.3 0 .6-.2.8-.3.2 0 0 .1-.1.2.5-.1 1.1-.4 1.4-.6h.4c-.2.1-.4.3-.3.3.2-.1.1-.1.4-.2 0 .1-.1.2-.2.3.6-.1 0-.3.5-.2.2 0 .2-.2.2-.3h.3c0-.1.5-.2.7-.4 0-.1-.2 0-.3 0 0-.1.4-.2.6-.3 0 .1.3 0 .6-.1s.5-.2.3 0c.2-.1.5-.2.8-.4.2-.1.1.2.1.3 0 .2 0 .3-.1.5 0 .3-.1.6-.1.8-.1.2-.2.6-.2.5-.1.3-.1.6-.1.9 0 .2 0 .6-.2.9 0 0 .1-.3 0-.3 0 .4-.2.7-.4 1.4v-.2.4c-.4 1.2-.3 2.2-.7 3.4.1-.3 0-.5-.1-.5l-.1.3v.6s-.1.1-.1 0c-.3.6 0 1.1-.3 1.9v-1.1l-.2.2v-.5c-.1.2 0 .5-.1.5v-.2c-.1.2 0 .3 0 .5-.1-.5.2-1.5.2-2.1v.1c0-.2.1-.3.2-.6 0-.2-.1.1-.1.3-.1 0 0-.1 0-.3.1 0 .2-.8.4-1 .2-.8-.3.1 0-.7l.2-.2c0-.5.1-1.1.2-1.6v.1c0 .1.1 0 .1-.1.1-.4.1-.8.2-1v-1.1c.2-.2 0 .3.1.5l.1-.3v.4c.1-.3 0-.4 0-.6 0 0 .1 0 .1-.2h-.1v-.5c-.1.2-.2.3-.2.4.1-.1.1 0 0 .1 0 0-.1.2-.2.2 0-.2.1-.5.1-.5l.1-.2v-.1h-.1c-.1 0-.2.1-.3.1l.1-.1c-.2.1-.5.2-.7.2-.3.2-.5.4-.7.5l-.1.1c-.1 0-.2 0-.4.1-.3.1-.6.1-.8.3 0 0 .2-.2.4-.3-.3 0-.5.3-.6.2.6-.1 0-.1.2-.2-.3.1-.6.2-.7.3.5-.1-.1.2.3 0-.3.2-.8.4-1.2.5 0 0-.1-.1-.2 0l-.1.1c-.2 0 .4-.2 0-.1-.4.2-1.3.2-1.4.5-.3 0 .6-.3.1-.3.2-.2.7-.1.8-.3-.3.1-.1-.1-.3 0l-.3.1h.1c-.5.2-1.3.3-2 .5-.5.2-.9.5-1.6.6.2-.1-.6 0-.2-.2-.3 0-.6.1-.6.2h.3c-.1.1-.5.2-.7.1.1 0 0 0 0 0-.3 0-.2.1-.4.2-.1-.1-.5 0-.7 0l-.3.2c.2-.1-.3 0-.4 0-.2.1-.4.3-.8.3.1 0-.3 0-.3-.1-.6 0-1 .3-1.5.3 0 0 .1-.1 0-.1s-.3 0-.5.1h-.1c-.2.1-.3.2-.8.3 0 .1.4 0 .6 0l.1-.1c.2.1.4 0 .5 0-.2.2-1.1.2-1.5.4.3.1 1 .1 1.5 0h-.2.3l-.3-.1c.3 0 .5 0 .8-.1-.3 0-.4-.1-.3-.1.3.1.3-.1.6-.1h-.2c.5.1.6 0 1.1 0-.1-.2.5-.1.6-.2h-.9l.4-.2c.4.1-.3.2.3.2.6-.1.5-.2 1-.3-.1.1-.5.2-.8.3h.2c-.1.1-.6.1-.9.2.4-.2-.2 0-.4-.1 0 .1.2 0-.1.2h.7c-.8 0-.7.4-1.4.4.3-.1-.1-.1-.2-.2-.2 0-.5.1-.6.1l.1.1c-.4.1-.6-.2-1 0 0 .1.4 0 .3 0-.6.1-.9-.1-1.5-.1 0 0 0 .1-.2.2 0-.1-.1-.1.1-.2-.2 0-.4 0-.6.1.4 0-.2.1-.2.2-.2 0 0-.1.2-.1-.2 0-.4-.1-.5 0 0-.1.5-.3.7-.3h-.2.4c-.2 0-.2-.1-.2-.2.2 0 .3 0 .3-.1.1-.1-.3 0-.3-.1h-.3l-.4.2-.4.2c-.4.1-.5 0-.8 0l-.1.1c-.3 0-.6 0-.4-.2h.1c-.3 0-.5.1-.6.1.6-.2 0-.2.1-.4l-.6.1c.4 0 0 .1-.1.1 0-.1-.5 0-.7 0h-.4s-.1.2-.1.3c.1 0 .1.1.1.1v.1h.1c.2 0 .3-.1.4-.2-.1 0-.2.1-.4 0 .2-.1.5-.1.9-.1l.1.1h.4c-.2 0 0 .1-.5.2 0 .1.4 0 .6 0l.1-.1c0 .1.5 0 .1.2l-.6.1.2.1h-.4.1c-.8.1-.2-.2-1-.1 0 .1 0 .2-.1.1 0 0 0-.1-.1-.2-.1 0 0 0 0 .1-.1-.1-.2-.1-.1-.1-.1-.2 0 0-.2-.1 0 .1.1.2.2.3 0 0 .1 0 .1.1v.3h-.1c.1.8.1 1.2.2 2l-.1.6c0-.1-.2-.5-.2-.3.1-.3.1-.6.1-.9 0 0-.1.1-.1.2V94s0 .3-.1.1l.1-.3c-.1-.4-.2-.2-.2-.7.1.1.2.3.2.5 0-.3.1.3.1.1-.1-.2-.1-.3-.1-.4V93v-.1c-.1 0-.1-.1-.2-.2v.2l-.1-.1c-.1-.1-.1-.1-.2-.1-.1-.1-.2 0-.3-.1.1.1.1.2.1.3 0 .2 0 .3.1.5.1.1.1-.2.1-.5l.1.4v-.1 1c0-.2-.1-.2-.1-.3v.4c.1 0 .2 0 .2.1 0 .6 0 1-.2 1.2v.1c.1-.1.2.4.3.6-.1 0 0 .3-.1.5.1.1.3 0 .4-.3-.1-.4-.1-.2-.3-.4l-.2-.7.1.1c0-.3-.1-.6 0-.6.1.2.1.5.2.6v-.2c.2.4-.1.2 0 .7.1-.2 0 0 .1.3.1-.2-.1-.8.1-.7.1.3-.2.8 0 1.1 0 .5.1.6.2.8 0 .2 0 .5.1.7v.3c-.1-.1 0-.4 0-.6h-.1c.1-.3-.1-.5-.2-.8.1.3 0 1 .2 1l-.1.2v.1c-.1.2-.2 0-.2-.3V98c0-.1-.1-.2-.1-.6l.1.2c0-.4-.1-.8-.2-1 0 .6 0 1.2.1 1.8.2.2.4.3.6.4v.2l-.1.1v.1l.2-.1-.1.1h-.1c0-.1-.1-.1 0-.2 0 0 .1 0 .1-.1h-.1l-.1.1c0 .1.1 0 0 .2 0 0-.1-.1 0-.2-.1-.1-.4-.1-.4 0 .1 0 .1.3.2 0 .1.1.1.3.2.3h.1s-.1 0-.2.1l.3-.2c-.2.1 0 .1.1.1.1-.1.2-.2.1-.2h-.2l.1-.1.1-.1c.1 0-.1.2.1.1v-.2H157.2c-.1.1-.2.2 0 .3h-.8s.3-.2.6-.2c-.2-.2-.8.2-.8-.1-.8 0-.5.2-.8.1 0 .1-.1 0-.2.2 0 .1.1.1.3.1h1c.4-.1.2.1.5.1.1 0 .4 0 .3-.1l.4.1v-.1h.5v-.1h-.5c.3 0 .1-.1.4-.2-.3.1.2 0 .3.2l.2-.1h.4c-.2 0-.4-.1-.7 0 .2-.1.7-.2.8-.2h.6c-.4.1.2.3-.7.3h.1c-.1-.1-.5 0-.7.1 0 .1-.1.1.2.1-.1 0 .2-.2.6-.2v.2h.5c.2.1.5 0 .8 0 .2-.1 1.1-.1.7-.2.3.1.5-.1.8-.1h-.4c.4-.2.3-.1.7-.3 0 0 .1.1 0 .1.6 0 1.5-.1 1.8-.3.4 0 .5.2 1.1 0 .1 0-.1-.2.3-.2 0 0-.4.2.1.1.3-.2.8 0 1.1-.2.2 0 .6-.1.5 0-.3 0-.8.1-.9.2 0-.1-.2 0 0-.1-.5 0-.3.1-.8.1 0 0 .2.1.3 0 0 .1-.9.2-.5.3.5 0 .6-.4 1-.3-.2.1-.4.1-.6.2h.4l.2-.1c.6 0 .5-.2 1.1-.4-.3 0 0-.3-.2-.3.4-.1.6-.1.7 0-.7.2 0 .2-.6.4.1 0-.1.3.2.2.4-.2-.2-.1.2-.2.2-.1.2 0 .5-.1.3 0 .3-.2.6-.1-.1-.1.2-.1.3-.2-.2 0-.4-.1-.9 0 0 .1 0 .1-.2.2l.3-.1c-.1 0-.1 0-.2.1h-.3c.4-.1.2-.2.3-.3.4 0 .3-.1.5-.1 0 .1.7.1 1.2 0h-.2c-.3.1.2 0 .2.1l.2-.1s-.1 0 0 0c.3-.1.2-.2.5-.3 0 0-.2.2 0 .2.1 0 .3.2.7 0 0 0 .1-.1.2-.1h.3c-.2.2-.5 0-.7.2v.1c-.2 0-.4.1-.5.2.3 0 .3-.1.6-.2 0 0-.1.2-.2.2v-.1c-.4 0-.5.2-1 .3-.1 0 0 0 0 0-.3.2-.7.1-1 .3l.1-.1c-.2.1-.7.3-1.1.5h-.2c-.2.1-.5.2-.6.3h.2c.1 0 .5-.1.4-.2.2 0 .5-.1.7-.1-.3 0 .2-.1.2-.2.1 0 .4-.1.4 0h-.2c-.3.1.5 0 .2.1.4-.2 1-.3 1.5-.4h-.2c.2 0 .7-.2.7-.1l-.5.1c0 .1.5-.1.5 0l.5-.3h-.2c.1-.1.7-.1 1-.2-.2.2-.6.1-1 .3-.3.1.2.1 0 .2.1 0 .2 0 .3-.1h.1c-.2.2-.7.3-1.1.5-.3 0-.6.1-.8.2.2 0 .2 0 .3-.1 0 0-.3.1-.3.2.2 0 .1.1.2 0-.2.1-.3.1-.5.1-.1 0 .1-.1 0-.2-.2.1-.3 0-.6.1.4 0-.1.2-.2.2h.1c-.1.1-.2.1-.3.1.2-.1.3-.1.2-.1-.1 0-.2 0-.3.1l.1-.1-.5.1c-.1.1-.2.2-.2.3-.1 0-.3 0-.5.1-.2 0-.8.1-.8.2-.2 0 1.2-.6 0-.3-.5.1-.2.3-.5.3-.2 0-.2.1-.4.2h.4c0 .1-.4 0-.6.1.2-.2-.4 0-.3-.1-.4 0-.8.1-1 .3-.3-.1-.5.1-1 0h.3c.2-.1-.5 0-.1-.1h.1c.2 0 .3-.1.2-.1h-.4.1l-.6-.1h.1c-.7 0-1.4.2-2 .2-.1.3-1.4.2-1.8.5.1-.1.2-.3.1-.3.1 0 .3-.2.5-.1 0 0 .3.1.2.1.6-.1-.1-.1.1-.2-.7.1-1.1.3-1.5.4l-.3.1c.3 0 .3.2-.1.1h-1l-.2.1c-.3 0-.3-.2-.5-.3h-.7c-.2 0-.5.1-.8.2-.1 0-.4 0-.7-.1-.2 0-.3 0 0-.1-.3 0-.6.2-.8.2h-.2v-1l.1.3c0-.5-.1-1.2-.2-1.9 0-.4-.1-.8-.1-.9.3.3.2-.9.5-1.1 0 0-.1-.2-.1-.3v-.2c0 .3-.3-.2-.1.4-.2-.3-.4-.6-.4-1.2h.1v.5c.1 0 .1.2.1.3 0-.9.3.1.2-.8-.1-.1 0 0-.1-.2 0 .1.1.1.1 0l-.1-.2c.2-.3.2.5.2.3.1.3.2 1 .3.8 0-.6-.3-.5-.3-1.1v-.1c0-.2-.2-.2-.2-.3V94c-.2-.3-.2-.6-.4-.9.2.9 0 .8.1 1.7 0-.1-.1-.8-.3-.8h.1c-.1-.3-.2-.6-.1-1l.1.2c-.1-.5.1-.7-.1-1.4v.5c-.1-.4-.1-.9-.1-1.3l-.3-1s0-.5.1-.2v-.2h.5l.5-.1c.7.1-.5.1-.5.2h1.3c.4 0 .8-.1 1-.1h-.2.4l.1-.1c.2 0 .2.1 0 .1.2 0 .5-.1.7 0-.3.1-.8 0-1 .1.7-.1.7.2 1.7.1 0 0-.1.1 0 .1.4 0 .1-.2.2-.2h-.7.4v-.1c0 .1.3.2.5.2-.3-.1-.2-.1-.3-.2.3-.2.4.1.8 0 0 0-.4.1-.1.1.2 0 .2-.1.4-.2-.2.1-.1.2-.3.3-.5 0-.2 0-.6.1l.4.1c-.4 0-.2.1-.3.2.6.1.5-.2.9-.2.2-.1-.4 0-.1-.1.4 0 .1-.1.5-.1h-.1.4c.2 0-.2-.4.5-.4v.1s-.2.3-.3.5c-.2.2-.3.5-.3.5.7 0 1.5-.1 2.3-.1.2.2-.6.2-.5.2h-.4c0-.1.8-.1.4-.2-.7.1-1 0-1.5.3.2.2.8-.1 1.2 0-.2 0-.3 0-.5.1h1.3-.5c.4 0 .7-.1.7-.3h-.1.1l1.1-.5zm14.5 4.5zm-21.9-3.7h1.5c-.2 0-.4-.1-.6-.2-.2 0-.3-.1-.3-.1-.1-.1.1-.1.9-.2h.1-.9c-.1 0-.4.2-.6.3-.2.1-.3.2-.2.2 0 .1 0 0 .1 0zm-.7-.4c-.3 0-.2 0-.2.1.1 0 .2 0 .2-.1.1 0 0 0 0 0zm-.1.1zm5.1-.2l.1.1c0-.1 0-.1-.1-.1zm-1.9-.2c-.1.1-.5.2-.5.3h.6c-.1 0-.2 0-.2-.1.3.2.2-.1.6-.1.1-.2-.4-.2-.5-.1zm9.5 9.1l-.1.1c-.4 0-.8-.1-1.1.1-.2 0-.3-.1-.4-.1h.2c.9-.3.5.2 1.4-.1zm-4.8.4c.1 0 .1-.1 0 0-.8.3-1.6.4-2.1.5.1.1.5.1.8.2l-.2.1-.1-.1-.3.1c.1.1.4 0 .5.1 0 0 .6-.2.7-.3h-.5c.1 0 .7 0 1-.1 0 0-.4-.1-.5 0 0-.1.4-.1.1-.2.3-.1.9-.1 1.2-.1v.1c.3 0 .2-.2.5-.1-.4.1.1.1-.2.2.1 0 0 .1.3.1.2-.2.4.1.6-.1.2 0-.2.1.2.1.4-.1.3-.2.4-.3-.4 0-.4.2-.7.2l.6-.3h-.2c.1 0 .2-.1.3-.1 0 0 .1 0 .1-.1-.3 0-.6.1-.7 0v-.1c-.1 0-.3 0-.4.1-.3 0-.6.2-.7.1l.1-.1c-.3 0-.3 0-.8.1zm-7.5-4.2c-.2.2-.4.5-.3 1.5v-.1c-.1.5.2 1 .1 1.7-.1-.3-.1-.3-.3-.6l.1.3c-.1 0-.1 0-.1.1v.4l-.1-.1c0-.1-.1-.1-.1-.1V98c0 .1.2-.5.1-.8-.1 0 0 .7-.2.4.1.2 0 .3 0 .6-.1-.2-.1 0-.2-.2l.1.5s-.1-.7-.2-.3V98.9c0 .5.2.2.2.8 0 0 .1-.2 0-.4 0-.2-.1-.2-.2-.6.1-.2 0 .5.2.2v-.5c0-.1 0-.2.1-.2v.4c.1 0 .1.3.2.3 0 .2 0 .5.1.8.1 0 .2-.2.2.2v.4h1.4l.3-.1c0-.1-.6 0-.4-.1h.5c.2 0 .3 0 .5-.1-.1.1-.5 0-.4.2h.4c.4 0 .4-.1.5-.2.4-.2-.4-.1-.4-.2l1.2-.1c-.1 0-.2.1-.2.1.3 0 0 .1.4.1 0-.2.5-.1.8-.2.1 0 .2.1-.1.1 0 .1.4 0 .6 0 .1 0 .2 0 .3-.1-.1 0-.1-.1.2-.2-.4 0-1-.1-1.3 0h.1c-.5-.1-1 .2-1.2 0 0-.1-.1 0-.1-.1l-.3.1h.1-.5c-.2.1-.5.2-.7.2 0 0 0 .1-.1.1h-.3c-.1 0-.2-.1-.3-.1h.5c.1-.1.1-.2-.1-.2.1 0 .2-.1.1-.1 0 0-.3 0-.3.1h-.2V98.3v-.2-.3c.1.6.1-.5.2.2.1-.5-.2-.4-.2-.8 0 0 0 .3.1.3 0-.8-.3-1.2-.3-2h.1c-.5.2-.6 0-.6-.1zm-.2-1.5c0-.1 0-.3-.1-.4l-.1-.4c0 .2-.1.5-.2.1 0 0 .1-.1.1 0 0-.2.1-.8-.1-.6.2.5-.2.1 0 .5-.1-.2-.1-.4-.1-.6.1.2.2 0 .2-.4 0-.1 0-.5-.1-.7-.1 0-.2-.2-.2.2 0-.2-.1-.4 0-.6 0 .1 0 .3.1.3.1-.1.1-.3.1-.3v-.2l-.1-.3c.1.4 0 .1-.1.1v-.2h-.1v-.1H153.8c-.5-.1-.3.2-.3.5 0 .2 0 .4.1.7l.1-.2c.1.6-.1.3-.1 1.1 0 .2.1.4.1.5 0 .2 0 .3.1.3 0-.1-.1.4 0 .6.2.2.2.9.3.7 0-.2-.1-.4 0-.6v.3l.1-.2c-.2 0-.2 0 0-.1z"/><path d="M171.6 97.9c.1 0 .3-.1.2-.2.1.1-.3.1-.2.2zm.4 0h-.2.2zm.4.5c.1-.1.2-.2.5-.2.1.2-.4.2-.5.4.5-.1.5-.3.9-.4-.2-.1-.9 0-.9.2zm-.2.4l.2-.1-.2.1zm-5.7-.8c0-.1-.2 0-.2 0h.2zm10-8.9v.2c0 .1 0 .2-.1.3l-.2 1c0-.3.1-.5.2-.8v-.2-.1c.1-.3.1-.3.1-.4zm-16.2 10c.5-.1.7-.2 1.2-.3-.7-.1-.9.3-1.5.2l.3.1zm.2-.5c.1.1-.4.2-.3.2.3 0 .2-.1.5-.1l-.2-.1zm2.5 1.9l-.2.1.2-.1zm-4.8-1.7h-.2.2zm0 0zm4.6 2h.2l.1-.1-.3.1zm-2.1-.6h.2-.2zm-4.1-1.4l-.2.1.2-.1zm2.5 2c.2.1-.4 0-.1.1.2-.1.1-.1.1-.1zm-3.1-.6h-.1.1zm0 0h.3-.3zm-1.4.1H154.9c-.2-.1-.3-.1-.3 0zm1-4.7c0 .4 0 .5-.1.5 0 .3.1.3.2.5 0-.4 0-.5-.1-1zm.6 5.4l-.3.1h.1l.2-.1zm-.6-6v.2c.1.1 0-.2 0-.2zm-1.3 1.6v.4c0-.2.1-.3 0-.4zm1-2.6c0 .1 0 .2-.1.1 0 .2.1.3.1-.1zm-1.1 1.9v.3-.3zm-1 1c.1.3.2-.5.3 0 0-.6-.1 0-.1-.4-.1.3-.2.4-.2.4zm.1-.4v-.1.1zm.3-4s.1 0 0 0zm-.5 2.5l.2.4c-.1-.3-.2-1-.3-1 0 .3 0 .6.1.6zm2.4-3c0 .1 0 0 0 0zm-1.7 1.3v0zm1.9-1.4h-.1.1zm1.4.1h.3H157.1zm-2.2-2.6c-.3 0-.5.1-.5.1h.6c-.2-.1-.2 0-.5 0l.4-.1zm12.9 1.4c-.1.1-.5.1-.5 0 0 0 .3-.1.1-.1l-.4.3c-.5 0 .3-.3.5-.4-.5 0-.6.2-1.1.2h.3c0 .1-.5.1-.8.2.2 0 .1.1 0 .2h-.1c.3-.1.5 0 .7 0-.2-.2.6-.1.8-.2l.2-.1h.1l-.1.1c.1 0 .5-.1.5-.2l1-.2h.1s.2 0 .6-.1c.4-.1.9-.2 1.4-.3.5-.1 1-.3 1.4-.3.4-.1.6-.2.6-.2-.2 0-.4 0-.6.1.3-.2-.3.1-.3-.1.1-.1.3-.1.5-.1 0-.1-.2-.1-.2-.2-.5 0-.5.4-1 .4 0-.1.1-.2-.2-.1h.1c-.5.2-.5-.1-.7.2v-.1c-.2.1-.7.2-1 .3-.7.2-.4.1-1.2.3l.4-.2c-.3 0-.3.1-.5.2 0 0 0-.1.1-.2l-1 .4c-.1.2.2.2.3.2zm-1.4 0h-.2.2zm7.2-1.1l-.3.1c.1 0 .2 0 .3-.1zm-8.6 1.5c.2 0-.1.1-.2.1l.6-.1v-.1l-.4.1zm.7.2s.1-.1.2-.1h-.3c-.1 0-.1.1.1.1zm-.4-2.3h.2-.2zm1.7 0c-.1 0-.4 0-.5.1.4-.1.3 0 .5-.1zm-.4-.6l.3-.1-.3.1zm9 .2h0z"/><path d="M173.3 89.5c.7 0-.4.2-.2.3l.3-.1.4-.1c-.1 0-.2 0-.2-.1.6-.1.2 0 .7 0l.7-.2h.1s.1 0 .3-.1c.1 0 .2-.1.3-.1.1 0 .1 0 .2-.1l.2-.1v-.1s0-.1.1-.2c-.1 0-.4 0-.3.2v-.1.1c0 .1-.1.1-.1.1h.1s-.1 0-.2.1l-.4.1c-.3.1-.5.1-.6.1.5-.2.2-.2.9-.4 0 0-.2 0 0-.1-.8.3-1.5.4-2.3.8zm3.4-.5h-.1v.2h.1c-.1-.1-.1-.2 0-.2zm-.2-.1s.2 0 .2-.2c0 0-.2.1 0 .1.1 0 .1-.2 0-.2.1.1-.2.3-.2.3zm-.1-.3zm.1-.1c.1 0 .1-.1.1-.1l-.1.1zm.1 0c0 .1 0 0 0 0zm0 0zm-.1 0c-.1.1-.2.2-.1.2l.1-.2zm-7.9-.3l.3-.1-.3.1zm1.4-.2s.1 0 .1-.1c0 .1-.1.1-.1.1zm.9-.8c.3 0-.4.2.2.1.1.1-.2.2-.4.3 0-.1.2-.1 0-.1-.1.1-.2.1-.1.2-.2.1-.3.2-.5.3.3-.1 1-.2 1.5-.4.2-.2 0-.3 0-.5-.1-.1-.7 0-.7.1zm-.4 0c-.1 0-.2 0-.2.1-.1 0 0-.1.2-.1zm3.3.7s.2-.1.2-.2l-.3.1c.1 0 .1 0 .1.1zm-.3 0h.2c-.1-.1-.1-.1-.2 0zm3 .9s.1 0 0 0zm-.8 4.3l-.1.1c.1 0 .1-.1.1-.1zm.9 2.6s.1 0 0 0c.1 0 0 0 0 0zm.1 0c0 .1-.1.4-.1.5v.2c0-.2.1-.6.1-.7z"/></g><g><path d="M156.5 114.8c-.1 0-.2 0-.2-.1-.3.1-.3 0-.3.1-.2.1-.3 0-.2-.1l-.5.1h.3c-.1.1-.5 0-.5.1h.8c.6 0 .2-.2.7-.2h-.1v.1zM157 115.2l.2-.2h.3s.2-.1.1-.1h-.2c0-.1.5 0 .4-.2-.3 0-.3 0-.5.1-.2 0-.5 0-.5-.1-.1 0-.1.1-.2.1h.1v.2h.2l-.4.2c.1.2.5.1.7.2-.2-.2.2-.1-.2-.2zm9.2 10.8c-.1 0-.1 0-.1.1h1s-.3-.1-.1-.1h-.4l.1-.1c-.2.1-.4-.1-.2-.2l-.6.3c.1.2 0 0 .3 0zm-11.3-10.3v0zm10.7 10.5l-.2.1c.1 0 .1 0 .2-.1zm1.4-1.6c-.1 0-.1 0 0 0zm-5.8 2.2zm6.6-2.8l.1.1c-.1-.1-.1 0-.1-.1v.2c0 .1.1.2.1.2.1.1.1 0 .1 0v-.1l-.2-.3zm-11.9-2.2s0 .2 0 0zm9.7 4.4z"/><path d="M166 125.8h.4l.1-.1c-.2.1-.3.1-.5.1zm-4.3 1c-.7 0 .2-.2-.2-.2-.2 0-.3.1-.4.2.6-.1-.1.3.5.2-.1.2-.4.2-.6.2-.3-.1.2-.1.2-.2-.2 0-.2 0-.3.1-.4 0-.8.2-1 0-.2 0-.2.1-.4.2 0 .2.4 0 .5.2h.2c-.2 0 0-.2.1-.2h.3-.1c.2 0 .4-.1.5-.1l-.1.1c.2-.1.4-.1.7-.2l-.2.2c.2-.2.8-.2 1.1-.1 0 0-.1 0-.1-.1.2 0 .4 0 .3.1.2-.1.8.1 1.1-.1l1.4-.7h-.2c-.1-.1-.2-.1 0-.3-.2.1-.1.2-.5.2.1-.1.2-.2-.2-.2-.8.1-1.3.5-2 .7 0-.1-.6 0-.9-.1.1-.1.3-.2.5-.2h-.5l.3.3zm.7-.2zm3.1-.7s.1 0 .1-.1l-.1.1zm.1.2c.1 0 0 0 0 0zm-6.9 0z"/><path d="M160.9 126.7c.2 0 0-.2.4-.2h-.1c.2-.1.8-.1 1-.1 0 0 .2.1.2.2.2 0 .4 0 .5-.2h.5c-.1 0 .2-.2-.2-.1-.2-.1-.4.1-.6.1-.1 0 .2-.1.1-.1-.3 0-.9 0-.9.2h-.3c-.3.3-1.2 0-1.2.3.1 0 .3 0 .5-.1h.1zm4.1-.7zm3.9.9l-.1.2h-3.2c-.1 0-.5-.1-.3-.1h-.2c0-.1.2 0 .2-.1h-.1c.1 0-.1-.3.3-.2.2.2-.3 0-.2.2.1 0 .1-.1.1-.1.2 0 .2 0 .2.1h.4c.3 0 0 .1.2.1l.1-.2h.4c.5 0-.1-.3.6-.4 0 0 0 .1.1.2 0 0 .1 0 .2.1h.3-.8c.3.1-.5 0-.3.2.2-.1.4-.1.6 0h-.1 1c.2 0 .2 0 .2.1.2-.2.4-.2.4-.1zm-.6 0h-.4.4zm-8.5-11.7zm10 3.6v-.1.1zm0-2.7v-.2.2zm-8.6-.9zm8.6-.4zm-.8 5c0 .1 0 0 0 0zm.5-.1zm-.2.5s0-.1 0 0zm-10.9-5.3h-.1.1zm9.3-.1s-.2-.1 0 0c-.2-.1-.2 0 0 0zm-8.1-1.3c0 .1 0 .1 0 0 0 .1 0 .1 0 0zm-.1.1s0 .1 0 0zm-1.3 1.3s-.6.1-.1.2c0 .1-.3 0-.5.1.1 0 0 .1 0 .1h.2s-.1.1-.2.1c.2.1-.2.1 0 .2.5 0 .8-.1 1.2-.3-.3 0-.6.1-.8 0l.1-.1c.2.1.4 0 .7 0l-.6-.1c-.4-.1-.2-.2 0-.2zm.4-1s-.1 0 0 0zm11.9 10.3zm-2-2.1s-.1 0 0 0zm3.2-5zm-3.7-1.8h0zm2.7 7.7c.1 0 0 0 0 0zm.9-7.8zm.2-.7c.1 0 .1 0 0 0 0-.2.2-.7.1-.6 0 .1-.2.5-.2.5 0 .1-.2.4-.1.5.1-.2.1-.1.1.1-.1.2-.1 0-.2.1l-.1.3.1-.3.1.1c.1-.6.2-.2.2-.7zm.1 0zm-.4-1.5h-.1c0 .1.1.1.1 0zm-4.8 12.8s.3.1.3 0h-.3zm4.9-11.5c0 .1 0 .1 0 0 .1.1.1 0 0 0zm-6.3-.2s-.1 0-.1-.1c-.1 0-.2 0-.2.1h.3z"/><path d="M166.6 125.7h-.4c-.2.1-.6.2-.7.2h-.5c.1 0 .2 0 .2-.1-.2 0-.3-.2-.7-.1h.2l-.5.2c-.2-.1.3-.1.3-.2-.4.1-.7-.2-.9 0 0-.1-.1-.2-.3-.2.2.1-.2.1 0 .2h-.3c-.5-.2-.6.1-.8.2H161c0-.1-.2-.3-.3-.2-.1.1-.5.2-.5.3.3 0 .3-.1.4-.2.2.1 0 .1.2.2-.2 0-.8.1-1 0h.1c-.3 0-.4-.3-.9-.1l-.2.1c-.4 0-.3-.1-.8 0-.2-.1-.5 0-.7 0-.1-.1 0-.1.1-.2H156l-.3-.2h.5c-.2 0-.2 0-.4-.1.1 0 .2 0 .3-.1-.3-.2-.2.2-.4-.1-.1-.1-.2 0-.3 0l-.1-.2c-.1 0-.1-.3-.1-.5 0 0-.1.2 0 .3-.1 0-.1-.2-.1-.4.1 0 .1-.3.1-.5s0-.4.1-.3c-.1-.7-.1-1.5-.2-2 0-.1 0-.4.2-.3 0-.5-.2-.8-.2-1.3 0 0 0 .2.1.2-.1-.3.1-.6 0-1.1 0 .1 0 .1.1.1 0 0-.1-.2-.1-.3 0-.1 0 .1 0 0 .1-1-.2-1.8-.2-2.8 0 .3.1.4.2.4v-.3c-.1-.1-.1-.3-.1-.5 0 0 0-.1.1 0 .1-.6-.2-.9-.2-1.5l.3.8.1-.2.1.4c.1-.2-.1-.4 0-.4 0 0 0 .2.1.2 0-.2 0-.2-.1-.4.2.4.2 1.2.3 1.7 0 .1 0 0-.1-.1v.5c.1.1 0-.1.1-.2.1 0 .1.1.1.2-.1 0 0 .7-.1.8 0 .7.2-.1.2.5l-.1.2c.1.4.2.8.2 1.3v-.1s-.1 0-.1.1c0 .3.1.6 0 .8.1.4.2 1 .3 1.4-.2.1-.1-.5-.2-.7v.4c0-.3-.1-.3-.2-.5 0 .3.1.5.2.7 0 0-.1 0-.1.2h.1v.1l.1.5c0-.1.1-.1.1-.3 0 0-.1-.1-.1-.2.1.1 0-.1.1-.1v.8l-.1.1v1.6c0 .1.1.2.2.2 0 0 0 .1.1.1h.1c.1 0 .1 0 .2.1s.2.1.3.1c0 0-.1.1-.2.1.1 0 .2-.1.2 0-.2-.1 0 .1-.2.1h.5c-.3 0 .1-.2-.2-.2.3 0 .6-.1.9 0 0 0 0 .1.2.1l.1-.1c.2 0-.3.1 0 .1.2-.1.4-.1.6-.1.2 0 .4 0 .5-.2.2.1-.5.1-.1.3-.2.1-.5 0-.6.2.2 0 .1.1.2.1l.2-.1c.4-.2 1.1-.2 1.6-.2.5-.2.7-.4 1.3-.4-.2.1.5 0 .1.2.2 0 .5 0 .5-.1h-.2c.1-.1.4-.1.5 0 .2 0 .1-.1.3-.1.1.1.4 0 .6.1l.2-.1c-.1.1.2 0 .3.1.2 0 .3-.2.6-.2-.1 0 .2.1.2.2.5.1.8-.2 1.2-.1 0 0-.1.1 0 .1h.5c.2-.1.3-.2.7-.2 0-.1-.3-.1-.5 0l-.1.1c-.1-.2-.3 0-.4 0 .1-.1.3-.1.6-.1.2 0 .6 0 .5-.1v-.1h-1l.2.1h-.2l.2.1h-.6c.2 0 .3.1.2.1-.2-.1-.3 0-.5 0 .1 0 .2 0 .2.1-.4-.1-.5 0-.9-.2 0 .2-.5 0-.5.2h.2l-.4.1c-.3-.1.3-.1-.2-.2-.5 0-.5.2-.8.2.1-.1.4-.2.7-.2h-.2.7c-.3.1.2 0 .3.1 0-.1-.2-.1.1-.2h-.6c.7 0 .6-.3 1.2-.2-.2 0 .1.1.1.2h.5l-.1-.1c.3 0 .5.2.8.1 0-.1-.3 0-.2 0h.6l.2.1v-.1.2s0-.1-.1-.2v.1s.1.2 0 0c.1.1.1.2 0 .2h-.1c.1.1.1.2.1.2h-.1c0 .1.1.1.2.1h.1v-.3s0-.1-.1-.1c0-.1 0 0 .1-.1l-.1-.1s.1-.1.2 0v-.5.1h.1s.1-.1.2 0v-.5c-.1.2-.1 0-.1-.1.1 0 .1-.4.1-.5.1-.1.1-.4.1-.6 0 0-.1-.3-.2-.4-.1.3-.1.1-.2.1v-.1h-.1c0 .3-.1.7 0 .9.1-.1 0-.2 0-.3 0 .2 0 .4-.1.7l-.1.1v.3c0-.1-.1-.1-.1-.4-.1 0 0 .3-.1.5l.1.1-.1.1h.6v-.5l-.1.1.1-.4v.1c.1-.6.2-.1.3-.8-.1-.2 0-.4.1-.8 0 .3.1 0 .1.2.1-.2 0-.4 0-.5.1 0 .2-.1.1.2.1.1 0-.3.2-.3.2-.8-.3-.8.1-1.7.1-.6.2-1 .3-1.5l.2-.4c0 .1 0 .4.2.3-.2.2-.2.4-.3.6 0 0 .1 0 .1-.1 0 .1-.1.2-.1.4 0 0 .1-.2.1 0l-.2.2c0 .3.2.2 0 .6-.1-.1-.2-.3-.1-.4-.1.2 0-.2-.1-.1.1.3-.1.4-.1.7v-.2l-.2.5c.1-.1 0 .4.1.4.2-.5.1-.4.3-1 0 .2 0 .4.1.5.1.1.1 0 .3.1-.1-.3.1-.5.1-.8-.1-.1-.2.2-.2.3v-.3.1l.2-.7v.3c0-.1.1-.2.1-.3-.1 0-.2 0-.2-.1.1-.5.3-.7.5-.9-.1 0-.1-.4-.2-.5.1 0 .1-.2.2-.3-.1-.1-.3 0-.5.1 0 .3.1.2.2.4v.5l-.1-.1c-.1.3 0 .5-.2.5v-.5l-.1.2c0-.3.2-.1.2-.5-.1.1 0 0 0-.2-.1.1-.1.6-.3.5 0-.2.4-.6.2-.9.1-.4 0-.5 0-.7.1-.1.1-.4.1-.5 0 .1-.1.2-.1.3h.1c-.2.2 0 .4 0 .6 0-.3.2-.7 0-.9h.1c.1 0 .2 0 .2.1h-.1c0 .1.1.2 0 .5v-.2c-.1.3-.1.6 0 .8.1-.2.2-.5.2-.7 0-.1 0-.2.1-.3v-.2c-.2-.1-.3-.1-.6-.1v-.1c.1-.1.1-.1.2-.1h-.1c.1-.1.1 0 .1 0 0 .1.1.1 0 .2 0 0-.1 0-.1.1h.1s.1-.1.2-.1c0 0-.1 0 0-.1 0 0 .1.1 0 .1.1.1.4 0 .4 0-.1 0 0-.2-.2 0-.1 0-.1-.2-.1-.2v-.1h.1-.2s.1 0 .1-.1l-.2.2h0l-.1.1-.2.1s.3-.3.1-.2l-.1.2-.1-.1h-.1c0-.1.1-.3 0-.3h.2l-.2.2c0 .1 0 .1.1 0 0 0 .1-.1 0 0 0 0 .1 0 .2-.1s.2-.1.2 0l.2-.2c.1-.1 0-.1-.1 0-.1 0-.2.1-.3.1h.1c-.1 0-.2 0-.2.1-.2.1 0-.1-.1-.1 0 0-.2 0-.1.1l-.2-.1v.1h-.2-.2v.1h.4v.1l-.2.1c.2-.2-.2 0-.3-.1l-.2.1c-.2 0-.2.1-.3.1.2 0 .3.1.6 0-.2.1-.5.2-.6.2-.2.1-.3 0-.5 0 .3-.1-.2-.3.5-.3h-.1c.1.1.4 0 .5-.1 0-.1.1-.1-.2-.1.1 0-.2.2-.5.2v-.2h-.4c-.2-.1-.4.1-.7 0-.2.1-.9.1-.6.2-.2-.1-.4.1-.7.1h.3c-.4.2-.3.1-.5.3 0 0-.1-.1 0-.1-.5 0-1.2 0-1.5.2-.3 0-.4-.2-.9-.1-.1 0 .1.2-.2.1 0 0 .3-.1 0-.1-.2.1-.6 0-.9.1-.2 0-.5 0-.4-.1.3 0 .7 0 .7-.1 0 .1.2 0 0 .1.4.1.3-.1.7 0 0 0-.2-.1-.3-.1 0-.1.8-.1.4-.2-.4 0-.5.3-.9.2.1-.1.4 0 .5-.2h-.3l-.2.1c-.5-.1-.5.2-.9.2.2.1 0 .3.1.3-.3 0-.5 0-.5-.1.6-.1 0-.2.5-.3-.1 0 .1-.2-.2-.2-.3.1.1.1-.2.2-.2.1-.2 0-.4 0-.2-.1-.2.1-.5 0 .1.1-.1.1-.2.2.2 0 .3.2.8.2 0-.1 0-.1.2-.2h-.2.4c-.3.1-.2.2-.3.2h-.5c0-.1-.6-.2-.9-.3h.2c.2-.1-.2-.1-.2-.1h-.2s.1 0 0 0c-.2 0-.2.1-.5.2 0-.1.2-.2 0-.2 0 0-.2-.2-.5-.2h-.2l-.2-.1c.2-.1.4 0 .5 0v-.7c.1 0 .3 0 .4-.1h-.5c0-.1.1-.1.2-.1v.1c.3.1.5-.1.8-.1.3-.1.6 0 .9-.1h-.1c.2 0 .6-.2 1-.2h.2c.2 0 .4-.1.5-.1h-.2s-.4 0-.4.1c-.2-.1-.4 0-.5 0 .2.1-.2.1-.2.2-.1-.1-.3 0-.3-.1 0 0 .1.1.2 0 .2-.1-.4-.1-.1-.2-.4.1-.8 0-1.2.1h.2-.6.4c0-.1-.4 0-.4-.1l-.5.2h.2c-.1.1-.5 0-.8 0 .2-.1.5 0 .8 0 .2 0-.1-.2.1-.2h-.4c.2-.1.7-.1 1-.2h.7-.3s.2 0 .3-.1c-.2 0 0-.1-.2-.1h.4c.1 0-.1.1 0 .1.2 0 .2.1.5 0-.3 0 .1-.2.2-.2.1-.1.2-.1.2 0-.1 0-.2 0-.2.1h.3-.1.5c.1-.1.2-.2.2-.3h.3c.2 0 .6 0 .7-.1.1 0-1 .4 0 .3.4 0 .2-.2.4-.3.2 0 .2-.1.3-.1h-.3c0-.1.3 0 .5-.1-.2.1.3 0 .2.1.3.1.7 0 .8-.2.2.2.4 0 .8 0h-.2c-.2.1.4 0 .1.1h-.1c-.1 0-.2.1-.2.1l.3.1h-.1l.5.1c.5 0 1.1-.1 1.5-.1 0-.3 1.1-.2 1.4-.5-.1.1-.1.2 0 .3-.1 0-.2.2-.4.2 0 0-.2-.1-.1-.1-.5.1.1.1 0 .2.5-.1.9-.3 1.2-.4H169h-.2s.1-.1.3-.1c.2 0 .8-.1 1.2-.2l.3-.2c.4-.1.3.1.3.3.5-.1 1-.3 1.6-.5h.2s0 .2-.1.2c0 .1 0 .2-.1.2 0 .1-.1.2-.1 0 0 .2.1.2.2.3.1.1.1.3-.2.8v-.2c-.1.5-.2 1-.2 1.5-.1.5-.2 1-.2 1.1-.2-.3-.5.7-.7.7.1 0 0 .2 0 .3 0 0-.1.1 0 .2.1-.2.2.2.2-.2.1.2.2.6.1 1h-.1l.1-.4c-.1 0 0-.2 0-.2-.2.7-.2-.2-.4.6v.2c0-.1 0-.1-.1 0v.2c-.2.2 0-.5-.2-.3 0-.3 0-.8-.1-.7-.2.5.2.5 0 .9h-.1c0 .2.1.2.1.3 0 0-.1 0-.1.1.1.3 0 .5.1.8 0-.7.3-.5.3-1.3 0 .1-.1.6.1.7h-.1c0 .2 0 .5-.1.7v-.1c0 .4-.3.6-.2 1v-.3c0 .2-.1.5-.1.7l.1.5s-.1.2-.2.1c-.2.3 0 .5 0 .7-.2.3 0-.3-.1-.4-.2.5-.2.9-.2 1.2 0-.1.1-.1.1-.1s-.1.2-.1.3v.1c-.1.2-.1.1-.1 0 0 .2 0 .4-.1.5 0-.3.1-.6.1-.8-.1.6-.3.5-.5 1.3 0 0-.1-.1-.1 0v.2h.1v-.2-.1c0-.1.1-.1.1-.2v.1l-.1.2.1.1c-.1 0-.1 0-.2.1s-.1.3-.1.5c.2-.3.1-.2.3-.2 0 .2 0 .4-.1.5-.1.1-.1.2-.1.5 0-.1 0-.5-.1-.2s0 .3 0 .6c0-.3-.1-.3-.2-.7.1-.5 0-.2.1-.7l-.2.4c.1-.4 0-.4-.1-.4-.2.6 0 .6-.1 1 0 .3.1-.4.1 0-.1.4 0 .2 0 .7v-.1.1h-.3c-.2 0 .5.4-.5.4 0 0 .1-.2.2-.5.1-.2 0-.5 0-.5h-2.1c-.2-.2.5-.1.4-.2h.3c0 .1-.6 0-.4.2.5 0 .9 0 1.3-.1-.1-.1-.3-.1-.5-.1h-.5.3c-.3 0-.6-.1-1-.1h-.1.4c-.3 0-.6.1-.6.2h-.1l.7-.6zm-11.6-9.4zm14.6 5.7c-.1.4-.2.8-.4 1.2.4-.6.8-1.1.5.1v.1c.1-.1.1-.4.2-.7 0-.2-.2-1-.2-1-.2.1-.1.2-.1.3zm.5-.2c.1-.2 0-.2 0-.2-.1.1-.1.1 0 .2zm-.1-.2c0 .1 0 .1 0 0zm-1.4 4h-.2.2zm.5.1v-.2c-.1 0-.1.1 0 .2l-.1-.1.1.1zm.7-1.5c-.1-.1 0-.4-.1-.5l-.1.1c0 .1 0 .2-.1.3v.1c0-.1.1-.1.2-.1-.2.2.1.2 0 .5 0 .1.1 0 .1-.1v-.3zm-7-10l.1-.2c.3 0 .6.2.9 0 .1 0 .2.1.3.2h-.2c-.8.4-.4-.1-1.1 0zm3.8.1c.7-.2 1.3-.4 1.7-.4-.1-.1-.5-.1-.6-.1l.1-.1.1.1.3-.1c-.1-.1-.3 0-.4-.1 0 0-.5.2-.5.3h.4c-.1 0-.6 0-.7.1 0 0 .3.1.4 0 0 .1-.3.1-.1.2-.3.1-.7.1-1 0v-.1c-.2 0-.1.2-.4.1.3 0-.1-.1.2-.2-.1 0 0-.1-.3-.1-.2.2-.3-.1-.5.1-.1 0 .1-.1-.1-.1-.3.1-.3.2-.3.3.3 0 .3-.2.6-.2l-.5.2h.2c-.1 0-.2 0-.2.1 0 0-.1 0-.1.1h.5v.1h.3c.3 0 .5-.1.5 0l-.1.1c.1-.3.1-.3.5-.3zm4 3.3c.2-.1.5-.2.7-1.1v.1c.3-.4 0-.8.3-1.4 0 .3 0 .2.2.6v-.3c.1.1.1-.3.2-.5l.1.2c-.1.2-.2.5-.2.5s-.1.1-.2.3c-.1.2-.2.3-.2.5.1 0 .2-.5.3-.3 0-.2.1-.3.1-.6 0 .3.1.1.1.3l.1-.5s-.1.8.1.3c0-.2.2-.8.1-.8.1-.4-.1-.1 0-.6-.1 0-.1.1-.2.3 0 .1.1.1 0 .4-.1.2.1-.4-.1-.1-.1.1-.1.7-.2.5l.1-.4c-.1 0 0-.3-.2-.2 0-.2.2-.5.1-.6-.1 0-.2.2-.1-.2l.3-.6c0-.1.1-.2.1-.3v-.2-.1c-.1 0-.2 0-.2.1l-.3.1c0 .1.5-.1.2 0l-.4.1h.1c-.1 0-.3.1-.4.1.2-.1.4-.1.5-.2h-.3.1c-.4 0-.5.2-.6.3-.5.2.3.1.1.2 0 0-.2 0-.5.1-.3 0-.5.1-.5.1.1 0 .2-.1.2-.2-.2 0 0-.1-.3 0 0 .2-.4.2-.6.3-.1 0-.1 0 .1-.1 0-.1-.3 0-.5 0 0 0-.2 0-.2.1.1 0 .1.1-.1.2.3 0 .9 0 1-.1.2 0 .3 0 .5-.1.2 0 .3-.1.3 0v.1l.3-.1-.1.1.4-.1c.3-.2.5-.3.8-.4 0 0 .1-.1.2-.1v.1c0 .1-.2.3-.2.5l.1-.4c-.1.1-.2.2-.3.5 0-.1-.1 0-.1.1 0 0 0 .2.1 0 0 .2-.1.4-.3.7-.1.3-.2.5-.2.8 0-.3-.2.3-.1-.1-.2.3.1.2 0 .5v-.1-.2c0 .1-.1.2-.1.4v.4c0 .2 0 .5-.1.8h-.1c.1 0 .1.2 0 .3zm-.1 1.2v.6c.1-.2.2-.3.2 0 0 0-.1 0-.1-.1-.1.2-.2.6-.1.5 0-.4.2 0 .2-.3v.5c0-.2-.2 0-.3.2 0 .1-.1.4-.1.5.1 0 .1.1.2-.1 0 .1 0 .3-.1.4v-.2c-.1.1-.1.2-.2.3v.4c0-.2.1-.1.1-.1-.1 0 0 .2-.1.2l.2-.2c0 .1-.2.3 0 .3.1-.4.2-.5.2-.9l-.1.1c0-.4.2-.2.3-.7 0-.2.2-.7 0-.8 0 .1.2-.2.2-.4-.1-.2 0-.7-.1-.6 0 .1 0 .3-.1.5v-.3l-.3.2c.2-.1.1-.1 0 0z"/><path d="M158.7 114.6c-.1 0-.3 0-.2.1-.1 0 .3 0 .2-.1zm-.3-.1c0 .1 0 .1 0 0h.2-.2zm-.2-.6c-.1.1-.2.1-.4.1-.1-.2.3 0 .4-.2-.4 0-.5.2-.8.2.2 0 .8.1.8-.1zm.1-.2h-.2.2zm4.4 1.8c0 .1.2 0 .2 0h-.2zm-6.1 5.4l-.1-1.5c0 .4 0 .8.1 1.5zm11.4-6.2c-.4.1-.6.2-1 .3.6.1.7-.3 1.2-.2l-.2-.1zm-.2.6c-.1-.1.3-.2.2-.2-.3 0-.1.1-.4.2h.2zm-2-1.9zm3.9 1.6zm-3.8-1.9h-.2l-.1.1.3-.1zm1.7.5h-.2c.1.1.3.1.2 0zm2.4 1.4zm-1.2-1.9c-.1-.1.3-.1.1-.1-.2 0-.1.1-.1.1zm2.7.2s.1 0 0 0zm0 0h-.2c0 .1.1.1.2 0zm.5.3c.1 0 .1-.1 0-.1 0-.1 0 0 0 0v.1zm-2.5 3.5c.1-.3.1-.3.2-.3.1-.2 0-.2 0-.4-.1.2-.1.3-.2.7zm.2-.8v-.1.1zm2.4-4l.4-.2h-.1l-.3.2zm-2.7 5.2s0-.1.1-.2c-.1 0-.2.2-.1.2zm1.7-.8s.1-.2.1-.3c0 .1-.2.2-.1.3zm-1.6 1.7l.1-.1c0-.1-.1-.2-.1.1zm1.5-1.2v-.2.2zm1.2-.4c0-.2-.3.3-.3-.1-.2.5.1 0 0 .3.1-.2.3-.2.3-.2zm-.2.2c0 .1-.1.1 0 0 0 .1 0 .1 0 0zm-1.4 3zm1.2-1.7v-.4c0 .2-.1.8 0 .8v-.4zm-3.4 3.2v-.2.2s.1.1 0 0zm-.1 0zm2.4-2.1v-.3.3zm-2.3 3.1v-.2.2zm-.5 1.1v.2-.2zm2.9-.8c0-.2 0-.3-.1-.3l-.1.3c.1 0 0-.1.1-.3l.1.3zm-8.6 1.4c.1-.1.4 0 .5 0 0 0-.2.1-.1.1l.3-.2c.4.1-.3.2-.5.3.4 0 .5-.1.9-.1-.1 0-.2 0-.2-.1s.4-.1.6-.1c-.2 0-.1-.1 0-.2h.1-.5c.2.2-.5 0-.7.1H162.3l.1-.1c-.1 0-.5 0-.4.1h-.8-.6c-.3 0-.8.1-1.2.1-.4 0-.7.1-1 .1h-.5c.1 0 .2.1.4.1-.2.1.2 0 .2.2h-.3c0 .1.1.1.1.2.4.1.4-.2.8-.2 0 .1-.1.2.1.1.4-.1.3.1.6-.1v.1c.2-.1.6-.1.8-.2.6-.2.3 0 1-.1l-.3.1c.2 0 .3-.1.5-.1 0 0 0 .1-.1.1l.8-.2h-.3zm1 .1h.2-.2zm-5.5 0h.2-.2zm6.7-.2c-.1 0 .1-.1.1-.1h-.5v.1h.4z"/><path d="M163.9 123.9s-.1 0-.1.1h.3c-.1 0-.1-.1-.2-.1zm.1 2.3h-.2.2zm-1.4-.2h.4-.4zm.3.7h-.2.2zm-6.2-2.2zm1.1.1c-.5-.2.3-.1.2-.2h-.5c0 .1.1.1.1.2-.4-.1-.1-.1-.4-.3h-.1-.1v-.1h-.3v.2h.1s-.1 0 0 .1h.2c.2 0 .2 0 .2.1-.1 0-.1.2-.2 0 0 0 0 .1-.1.1.1 0 .2.1.3.1s.3-.1.6-.2zm-1.3-3.6zm0 .2l.2.3v-.5h-.1c-.1 0-.1.2-.1.2zm.2.7c0-.2-.2-.2-.2-.1-.1-.2.1-.1 0-.3-.1 0 0 .3 0 .4h.2zm0 1.9zm-.1 0v-.2h-.1l.1.2zm.1-.7v-.2.2zm0 .2v-.2.2zm0 .3c.1 0 .2-.1.1-.3h-.1v.3zm4.6 3h-.2.2zm-1.2 0h-.1c.1.1.1 0 .1 0zm-.8.7c-.2 0 .3-.2-.1-.1 0-.1.2-.2.4-.2 0 .1-.2.1-.1.1.1-.1.2 0 .1-.2.2-.1.2-.2.4-.2-.2.1-.9 0-1.2.2-.2.2-.1.3 0 .5 0 0 .5 0 .5-.1zm.5.2h.2c-.1-.2-.2-.1-.2 0zM157 126s-.2 0-.2.1h.3l-.1-.1zm.3 0h-.1.1zm-.6-3.6v-.2.2zm-.3-5.2v-.1.1zm-1.6-1.7zm0 0V114.9c-.1.1-.1.4 0 .6z"/></g></g><linearGradient id="b" gradientUnits="userSpaceOnUse" x1="347.605" y1="54.193" x2="406.295" y2="-14.475" gradientTransform="matrix(.4167 0 0 -.4167 0 104.167)"><stop offset="0" stop-color="#225db2" stop-opacity="0"/><stop offset="1" stop-color="#06448e"/></linearGradient><path fill="url(#b)" d="M171.5 119.9s1.5-24.2 17.8-42.2c0 0 5.4-6-4.8-5.4s-32.5 10.2-46 3.8c0 0 15 47.1 9 70 0 0 12.1 3.5 20.4-.4v2.7l5.4-4.6s-2-10.6-1.8-23.9z"/><linearGradient id="c" gradientUnits="userSpaceOnUse" x1="415.555" y1="-12.65" x2="401.242" y2="-8.226" gradientTransform="matrix(.4167 0 0 -.4167 0 104.167)"><stop offset="0" stop-color="#225db2"/><stop offset="1" stop-color="#4b92e8"/></linearGradient><path fill="url(#c)" d="M189.4 77.8s1.7-1.9 1.4-3.4c-.5 1.3-2.6 4.5-11.3 4.4 0 0-10.4 17.2-12.5 47.3 0 0 1 17 1 19.7v2.7l5.4-4.6s-2-10.5-1.8-23.9c.1-.1 1.6-24.3 17.8-42.2z"/><path fill="#DD002A" d="M160.5 150.7l7.7 30.3h-7.8l.1-30.3z"/><path fill="#930023" d="M160.5 150.7l7.7 30.3h-7.8l.1-30.3z"/><path fill="#050505" d="M119.4 110.3H84.8c-1.1.5 3.1.7 2.1 1.3-4.5 1.8-3.5 7.8-3.5 24.4v51.5h80.1s9-63.4-44.1-77.2z"/><g fill="#050505"><path d="M129.6 154.7L92 203.1s-1.5.5-2.1-.2v-48.2h39.7z"/><path d="M92 203.1l7.5 4.9v1h-9.7l.1-6.2c.1.1 1.1-1.1 2.1.3z"/></g><path fill="#DD002A" d="M163.5 187.5s2.7-18.9-3.5-38.3l-2.6.8c5.6 13.8 3.4 34.4 3.4 34.4H85.9v-34l-2.5.2v36.9h80.1z"/><path fill="#DD002A" d="M160.5 150.7c-.2-.6-.4-1.2-.5-1.8H83.4v1.8h77.1zm-3-8.2c-.2-.6-.5-1.2-.8-1.8H83.4v1.8h74.1z"/><path fill="#FFB000" d="M156 148.6h-.6c-.3 0-.5-.2-.5-.5v-4.5c0-.3.2-.5.5-.5h3.2v-.5c0-1.5-1.2-2.7-2.7-2.7h-1.7c-1.5 0-2.7 1.2-2.7 2.7v6.6c0 1.5 1.2 2.7 2.7 2.7h3.5c1.5 0 2.7-1.2 2.7-2.7v-.5l-4.4-.1z"/><path fill="#F4CF8C" d="M128.6 77.9s2-9-5.2-10.4l.3-5.4H80.4l.3 5.2h-.2c-4.1 0-7.4 3.3-7.4 7.4 0 4.1 3.3 7.4 7.4 7.4.4 0 .7 0 1-.1l1.5 27s4.5 6.7 18.8 6.7c12.1 0 19.5-6.7 19.5-6.7l.1-2c5.8-2.6 1.2-10.7.6-11.7l.1-1.8c2.5-2.3.2-3.8.2-3.8l.5-8.9 5.8-2.9z"/><path fill="#050505" d="M121.6 81.1c-3.9 0-7.1 1.9-7.1 4.2 0 2.3 3.2 4.2 7.1 4.2h.6l.5-8.5c-.3.1-.7.1-1.1.1z"/><path fill="#DD002A" d="M121.6 87.2c-1.8 0-3.5.6-4.3 1.5 1.2.5 2.7 1.1 4.3 1.1h.6l.1-2.5h-.7z"/><path fill="#FFF" d="M122.8 81.2h-1.1c-3.9 0-7.1 1.9-7.1 4.2v.4h7.9c0-.1.3-4.6.3-4.6z"/><path fill="#C98C28" d="M122 93.6c-1.5 0-2.8-.3-3.9-.7.9 1.2 2.3 1.9 3.9 1.9v-1.2zm-.9 11.5c-2.5 0-4.8-.5-6.7-1.2 1.5 2 4 3.3 6.7 3.3h.2v-.1c1.2-.5 1.9-1.3 2.4-2.2-.8.1-1.7.2-2.6.2z"/><path fill="#CEA063" d="M80.4 67.4c-2.2 0-4.2 1-5.5 2.5h52.6c-.8-1.1-2.1-2-4-2.3l.3-5.4H80.4l.3 5.2h-.3z"/><path fill="#050505" d="M123.9 62.2l3.8-22S121.9 29 102.2 29c-24 0-25.7 11.2-25.7 11.2l3.8 22h43.6z"/><path fill="#DD002A" d="M78.7 52.8l1.6 9.5h43.6l1.6-9.5H78.7z"/><path fill="#050505" d="M130.4 67.5H73.7L72 62.2h60.2l-1.8 5.3z"/><path fill="#DD002A" d="M101.8 115.7C87.4 115.7 83 109 83 109l.5 9.5s4.3 6.5 18.3 6.5c11.7 0 18.9-6.5 18.9-6.5l.5-9.5c0 .1-7.4 6.7-19.4 6.7z"/><path fill="#4F1907" d="M122.8 80.8s-4.3-5.2-14.5-2.6-15.4 15.1-15.4 15.1 5.5 4.1 14.2 3c8.7-1.1 15.7-10.4 15.7-15.5z"/><path fill="#B27D30" d="M119.3 72s.7-1.1 1.2-2.3l-1.6-2.6.2 1.2c-6.5-1.8-10.9 3.5-10.9 3.5 6-3.2 9.9-3 9.9-3l1.1 1.4c-2.1 4.2-7 4.5-7 4.5 5.3.5 7.1-2.7 7.1-2.7z"/><defs><path id="d" d="M123.9 62.2l3.8-22S121.9 29 102.2 29c-24 0-25.7 11.2-25.7 11.2l3.8 22h43.6z"/></defs><clipPath id="e"><use xlink:href="#d" overflow="visible"/></clipPath><g clip-path="url(#e)"><circle fill="#050505" cx="124.9" cy="55.8" r="7"/><path fill="#DD002A" d="M124.9 61.9c-3.4 0-6.2-2.8-6.2-6.2 0-3.4 2.8-6.2 6.2-6.2 3.4 0 6.2 2.8 6.2 6.2 0 3.5-2.8 6.2-6.2 6.2zm0-11.5c-3 0-5.3 2.4-5.3 5.3 0 3 2.4 5.3 5.3 5.3 3 0 5.3-2.4 5.3-5.3.1-2.9-2.3-5.3-5.3-5.3z"/><path fill="#DD002A" d="M124.9 60.2c-2.5 0-4.5-2-4.5-4.5s2-4.5 4.5-4.5 4.5 2 4.5 4.5-2 4.5-4.5 4.5zm0-8.3c-2.1 0-3.9 1.8-3.9 3.9 0 2.1 1.8 3.9 3.9 3.9 2.1 0 3.9-1.8 3.9-3.9 0-2.1-1.8-3.9-3.9-3.9z"/><path fill="#DD002A" d="M126 54.2l2-1.5-1.5 2 2.4-.6-2.2 1.3 2.5.3-2.5.4 2.2 1.2-2.5-.5 1.6 1.9-2.1-1.3.8 2.3-1.5-2v2.5l-.7-2.4-.9 2.3.2-2.5-1.7 1.8 1.1-2.2-2.2 1 1.9-1.7-2.5.2 2.4-.9-2.4-.8h2.5l-2-1.5 2.3 1-1.3-2.2 1.8 1.7-.4-2.5 1.1 2.2.5-2.4.2 2.5 1.3-2.1-.4 2.5z"/><path fill="#050505" d="M126.2 55.8c0 .8-.6 1.3-1.3 1.3-.7 0-1.3-.6-1.3-1.3 0-.8.6-1.3 1.3-1.3.8 0 1.3.5 1.3 1.3z"/></g><path fill="#050505" d="M157 141.7l-4.9-4.6s-26 16.6-38.1-9.6c0 0-14.6-3.1-24.8 13 0 0 27.5 38.2 67.8 1.2z"/><path fill="#050505" d="M157 141.7l-4.9-4.6s-26 16.6-38.1-9.6c0 0-14.6-3.1-24.8 13 0 0 27.5 38.2 67.8 1.2z"/><path fill="#DD002A" d="M135.3 142.2c.7 0 1.3 0 2-.1-.2 1.7-.2 6.2 2.4 11.5-.6.3-1.2.6-1.8.8-1.1-1.9-3.1-6.9-2.6-12.2zm-2.8-.1c-.1 1.9-.1 7.4 2.8 13.3-.7.3-1.4.5-2.1.7-1.3-2.6-3.4-7.9-2.5-14.2.5.1 1.2.2 1.8.2zm24.5-.4c-3.6 3.3-7 5.9-10.4 8.1-1.6-2.5-3-5.8-2.4-9.1 4.7-1.5 7.9-3.6 7.9-3.6l4.9 4.6z"/><path opacity=".2" fill="#FFF" d="M152.1 137c-.1.1-.1.1-.2.1-.8.5-3.7 2.1-7.6 3.4-2.1.7-4.5 1.2-7 1.5-.3 0-.6 0-.9.1h-1c-1 0-1.9 0-2.9-.1-.3 0-.6 0-.9-.1-.3 0-.6-.1-.8-.1-6.1-1.1-14.1-9.2-18.5-18.7 0 0-1.7.8-5.1 1.5 6.4 12.5 22.6 27.6 45.6 13-.3-.2-.4-.3-.7-.6z"/><path fill="#F4CF8C" d="M152.1 137s.8-5 5.3-8 4-10.1 7.9-9.3c3.7.8 1.8 5.8 1.8 5.8s3.8.4 4-3c0 0 .2-.9.6-2.6 0 0 4.5.5 4.8 4 .3 3.6-1.7 5.2-1.7 5.2s.8 4.1-1 5.8c0 0 1.7 3.3.5 4.7s-10.4 7.7-17.2 2c-.1.1-3-1.5-5-4.6z"/><g fill="#F4CF8C"><ellipse cx="147.6" cy="121.8" rx="3.1" ry="3.3"/><path d="M150.7 121.8c0-.8-.3-1.6-.7-2.2 0 1.2-.2 2.8-1.5 3.5-1.6.9-3 .5-3.6.1.5 1.1 1.5 1.9 2.8 1.9 1.6 0 3-1.5 3-3.3z"/></g><circle fill="#F4CF8C" cx="76.6" cy="74.8" r="3.6"/><path fill="#D8AF6F" d="M76.6 71.2h-.4c1.4.2 2.5 1.7 2.5 3.5s-1.1 3.3-2.5 3.5h.4c2 0 3.6-1.6 3.6-3.6 0-1.8-1.6-3.4-3.6-3.4z"/><path fill="none" d="M0 0h250v250H0V0z"/></svg>